<?xml version="1.0" encoding="UTF-8"?>
<svg version="1.1" xmlns="http://www.w3.org/2000/svg" width="687" height="687">
<path d="M0 0 C7.19295765 5.79390457 11.2338399 13.09655189 12.359375 22.25 C12.77975257 32.41154063 9.44333972 40.89846109 2.96875 48.66796875 C-1.1490665 52.81074172 -5.32194368 55.20255623 -10.96484375 56.61328125 C-11.29484375 73.44328125 -11.62484375 90.27328125 -11.96484375 107.61328125 C-8.08549072 107.5975708 -4.2061377 107.58186035 -0.20922852 107.56567383 C12.6588866 107.51579491 25.5270004 107.482606 38.39518642 107.45784473 C46.19132386 107.44244129 53.98736907 107.42147824 61.78344727 107.38696289 C68.58641045 107.35685895 75.38930676 107.33765899 82.19233471 107.33101577 C85.78733394 107.32713865 89.38214204 107.31816705 92.97707939 107.29609108 C130.41869275 107.0753349 164.44781042 114.7656594 192.0078125 141.5859375 C193.01947776 142.59249495 194.02870159 143.60151373 195.03515625 144.61328125 C195.92074219 145.49886719 196.80632813 146.38445312 197.71875 147.296875 C212.35453064 162.66330304 221.58001641 181.19957376 227.03515625 201.61328125 C227.25945313 202.41636719 227.48375 203.21945312 227.71484375 204.046875 C228.60957988 207.38681466 229.03515625 210.12601115 229.03515625 213.61328125 C229.89882813 213.86335937 230.7625 214.1134375 231.65234375 214.37109375 C248.06645832 220.3984476 260.81011962 235.76741017 269.03515625 250.61328125 C269.36386719 251.2047998 269.69257812 251.79631836 270.03125 252.40576172 C281.25637186 273.14856973 284.03968772 298.99523332 277.3515625 321.69921875 C269.03856599 347.20601849 252.68810304 366.85653813 228.84765625 379.2734375 C224.57102545 381.31507375 221.83485575 382.61328125 217.03515625 382.61328125 C217.0327679 381.81043009 217.03037954 381.00757893 217.02791882 380.18039894 C216.96857117 360.57112176 216.89289631 340.96196833 216.79944134 321.35282326 C216.7546322 311.86966698 216.71518396 302.386547 216.6887207 292.90332031 C216.66561931 284.62984859 216.63208791 276.35649323 216.58645469 268.08311403 C216.56268477 263.70958364 216.54385044 259.33616732 216.53754234 254.96257401 C216.53141699 250.83059904 216.51115538 246.69891532 216.48088074 242.56704903 C216.47221801 241.06527684 216.46835288 239.5634664 216.47014809 238.0616703 C216.48155792 224.08942562 215.09219173 209.80628447 210.41015625 196.55078125 C210.15709717 195.82020508 209.90403809 195.08962891 209.64331055 194.33691406 C199.44719203 166.15921009 179.40484263 144.56416118 152.41015625 131.80078125 C134.14949725 123.48896832 116.34452534 121.51350997 96.4519043 121.40795898 C95.26982391 121.39805939 94.08774353 121.38815979 92.86984253 121.37796021 C89.01220616 121.3466944 85.15455754 121.32172777 81.296875 121.296875 C78.60259804 121.27677544 75.9083323 121.25532199 73.21406555 121.23390198 C66.87860494 121.1843005 60.54312077 121.13924317 54.20761472 121.09587961 C46.98614132 121.04622618 39.76470984 120.99141375 32.54327714 120.93620002 C17.70727607 120.82288064 2.87123381 120.71611873 -11.96484375 120.61328125 C-11.96484375 124.90328125 -11.96484375 129.19328125 -11.96484375 133.61328125 C-10.83046875 133.69578125 -9.69609375 133.77828125 -8.52734375 133.86328125 C3.94018233 135.46562175 14.67015683 143.8998529 22.16015625 153.55078125 C28.03515625 161.56076836 28.03515625 161.56076836 28.03515625 165.61328125 C29.19423492 165.60661942 30.3533136 165.59995758 31.54751587 165.59309387 C42.52136874 165.53202834 53.4951867 165.48718714 64.46917152 165.45784473 C70.10972859 165.44225194 75.75014745 165.42113143 81.390625 165.38696289 C86.84362504 165.35414032 92.29649292 165.33638033 97.7495842 165.32864952 C99.82018486 165.32314684 101.89077906 165.31240261 103.96132278 165.29609108 C124.06469786 165.14415354 140.52557794 167.31440273 157.03515625 179.61328125 C158.02515625 180.27328125 159.01515625 180.93328125 160.03515625 181.61328125 C160.03515625 182.27328125 160.03515625 182.93328125 160.03515625 183.61328125 C160.69515625 183.61328125 161.35515625 183.61328125 162.03515625 183.61328125 C167.23442482 189.63560006 172.05235494 196.20193311 175.03515625 203.61328125 C175.3084375 204.27199219 175.58171875 204.93070313 175.86328125 205.609375 C181.56772163 220.84917895 180.32972102 237.7302026 180.30078125 253.703125 C180.30213107 256.33761124 180.30407424 258.97209724 180.30657959 261.60658264 C180.31019874 267.10940592 180.305475 272.61217519 180.29589844 278.11499023 C180.28502329 284.43614631 180.28854095 290.75717322 180.29955125 297.07832617 C180.30979565 303.21004156 180.30861616 309.34170066 180.30278778 315.4734211 C180.30146309 318.05952536 180.30305714 320.64563297 180.30774689 323.23173332 C180.34058773 346.4284392 179.94697484 365.96731729 166.03515625 385.61328125 C164.95234375 387.16015625 164.95234375 387.16015625 163.84765625 388.73828125 C153.41673298 400.45613661 137.81291679 407.76235964 122.24641347 408.79899466 C119.16856472 408.87221619 116.0964357 408.88475731 113.01773071 408.87397766 C111.25964523 408.87971598 111.25964523 408.87971598 109.46604288 408.88557023 C106.23950432 408.89405639 103.01311275 408.89368464 99.78657055 408.88938963 C96.29635632 408.88691089 92.80616824 408.89595074 89.31596375 408.90342712 C82.48863087 408.91614428 75.66133737 408.91797156 68.83399464 408.91562686 C63.28179536 408.91384024 57.72960799 408.91560071 52.17741013 408.9198513 C51.38570102 408.92044649 50.59399192 408.92104168 49.77829164 408.92165491 C48.16967675 408.92286672 46.56106186 408.92408085 44.95244698 408.92529728 C29.88364389 408.93616128 14.81486321 408.93401571 -0.25394113 408.92791244 C-14.02216147 408.922744 -27.79031104 408.93399881 -41.55851738 408.95301066 C-55.71569396 408.97240888 -69.87283709 408.9806416 -84.03002703 408.9768874 C-91.97021033 408.97497841 -99.91033341 408.97743349 -107.85050583 408.99160194 C-114.60993228 409.00354202 -121.36926142 409.00489127 -128.12868927 408.99281178 C-131.57326189 408.98694152 -135.01765677 408.98577188 -138.46221733 408.99781418 C-142.20612517 409.00830095 -145.94955978 409.00016476 -149.69345093 408.98750305 C-150.76837779 408.99487734 -151.84330466 409.00225162 -152.95080507 409.00984937 C-171.36919553 408.87939421 -186.26378259 401.84164439 -199.65234375 389.48828125 C-213.52727734 375.01657633 -217.10688288 356.67506435 -217.12597656 337.28491211 C-217.13342392 335.46124619 -217.13342392 335.46124619 -217.14102173 333.60073853 C-217.15307144 330.28417911 -217.16057335 326.96768226 -217.16503239 323.6511085 C-217.16797864 321.57114508 -217.17208631 319.49118698 -217.17653656 317.41122627 C-217.19018987 310.88065207 -217.19986623 304.35009025 -217.20373845 297.81950277 C-217.20820943 290.3237363 -217.22572162 282.82815305 -217.25473905 275.33244222 C-217.27648151 269.51043492 -217.28644943 263.68847869 -217.28777957 257.8664313 C-217.28881897 254.40241291 -217.29453879 250.93856723 -217.31259918 247.47459221 C-217.48421086 212.57246647 -217.48421086 212.57246647 -210.33984375 199.30078125 C-209.99139404 198.63618896 -209.64294434 197.97159668 -209.28393555 197.28686523 C-202.08934334 184.10078453 -189.33589829 173.32569946 -174.96484375 168.61328125 C-162.56792646 165.23283996 -150.48460085 165.21947963 -137.71875 165.3203125 C-135.6102682 165.32592082 -133.50178243 165.33018506 -131.39329529 165.33317566 C-125.89424487 165.34452723 -120.3954393 165.37390896 -114.89648438 165.4072876 C-109.26500763 165.43819951 -103.6334906 165.45172575 -98.00195312 165.46679688 C-86.98947687 165.49878961 -75.97718082 165.54986606 -64.96484375 165.61328125 C-64.67367676 164.52217041 -64.38250977 163.43105957 -64.08251953 162.30688477 C-60.96544417 152.00582903 -52.61736956 144.35926187 -43.48828125 139.21875 C-37.40348973 136.02928979 -31.92645221 133.61328125 -24.96484375 133.61328125 C-24.96484375 129.32328125 -24.96484375 125.03328125 -24.96484375 120.61328125 C-40.56087875 120.69801536 -56.15680903 120.7929007 -71.7526989 120.90080833 C-78.99608174 120.9506768 -86.23945471 120.99711977 -93.48291016 121.03515625 C-99.80507534 121.06836396 -106.12715747 121.10834745 -112.44923031 121.15607131 C-115.7887657 121.18105454 -119.12819463 121.20190212 -122.46780014 121.21662521 C-160.28828201 121.38918312 -194.79932051 126.57025633 -222.77734375 154.26171875 C-233.90090278 165.72457294 -242.1104991 179.09145184 -247.77734375 193.98828125 C-248.05537842 194.70580566 -248.33341309 195.42333008 -248.61987305 196.16259766 C-254.62048617 212.80356737 -254.40460441 229.5638033 -254.3348887 247.02532434 C-254.32340975 250.58213897 -254.32769407 254.13894238 -254.32963562 257.69577026 C-254.33051325 263.66164917 -254.31954849 269.6274133 -254.30102539 275.59326172 C-254.27984651 282.45298178 -254.27635529 289.31253427 -254.28258735 296.17228043 C-254.288316 302.82299415 -254.28259563 309.47364995 -254.2714138 316.12435532 C-254.26681587 318.93179287 -254.26587276 321.73919443 -254.26799965 324.54663467 C-254.27026329 328.47923078 -254.25565477 332.41167294 -254.23950195 336.34423828 C-254.24197937 337.48436371 -254.24445679 338.62448914 -254.24700928 339.79916382 C-254.03981552 371.67490003 -241.18671403 400.66125781 -218.64160156 423.06298828 C-213.85999632 427.48395411 -208.4242302 431.09067714 -202.96484375 434.61328125 C-202.34577148 435.02505615 -201.72669922 435.43683105 -201.08886719 435.86108398 C-196.17025201 439.05940435 -191.14958281 441.48165925 -185.71484375 443.67578125 C-184.58949219 444.16401367 -184.58949219 444.16401367 -183.44140625 444.66210938 C-166.87657368 451.38657919 -149.43082312 452.21547827 -131.79296875 452.22265625 C-129.64677716 452.23768276 -127.50059693 452.25441903 -125.35443115 452.27276611 C-119.77829376 452.31595057 -114.20231214 452.33632861 -108.6260376 452.35150146 C-102.90684987 452.37125138 -97.18782617 452.41319954 -91.46875 452.453125 C-80.30083247 452.52789558 -69.13295258 452.57850639 -57.96484375 452.61328125 C-57.82546387 451.83388184 -57.68608398 451.05448242 -57.54248047 450.25146484 C-56.03848151 443.38239775 -50.29736332 438.52409203 -44.65234375 434.80078125 C-27.0425874 424.37966516 -7.83615385 422.57093765 12.03515625 426.61328125 C23.73320758 429.64610937 34.26723461 435.0864097 41.66015625 444.92578125 C45.62081982 451.6718373 46.9869357 459.25484757 45.03515625 466.86328125 C41.24726905 477.23013042 33.56728809 484.0801486 23.84765625 488.80078125 C7.19448644 495.97011198 -13.6170153 498.03924388 -30.96484375 491.61328125 C-42.87476143 486.62503651 -52.75070815 480.92164941 -57.96484375 468.61328125 C-57.96484375 467.95328125 -57.96484375 467.29328125 -57.96484375 466.61328125 C-59.57738541 466.61994308 -59.57738541 466.61994308 -61.22250366 466.6267395 C-71.42988748 466.66755396 -81.6372544 466.69739306 -91.84470177 466.71690559 C-97.09051327 466.72727487 -102.3362581 466.74130635 -107.58203125 466.76416016 C-112.65897894 466.78613617 -117.73586312 466.79790119 -122.81285477 466.80303574 C-124.73500186 466.80668762 -126.65714608 466.8138164 -128.57926559 466.82474136 C-169.28981009 467.04660557 -204.51207567 456.6785129 -233.96484375 427.61328125 C-245.27035558 416.32810307 -256.74117006 399.98802864 -260.8125 384.359375 C-262.39122601 380.59719064 -264.2527355 379.94808583 -267.90234375 378.23828125 C-289.19400817 367.51046794 -305.59789756 349.18919589 -313.40625 326.55078125 C-321.26716312 302.59801983 -320.28352495 276.91886534 -309.21484375 254.17578125 C-300.44413685 237.28381889 -287.62651148 223.74005466 -270.96484375 214.61328125 C-269.64002265 214.24757927 -268.30755067 213.90658486 -266.96484375 213.61328125 C-266.90768188 212.70340454 -266.90768188 212.70340454 -266.84936523 211.77514648 C-266.34567382 205.40586761 -265.08263643 199.71536604 -263.02734375 193.67578125 C-262.72086914 192.77335693 -262.41439453 191.87093262 -262.09863281 190.94116211 C-256.59283863 175.3762874 -248.63414966 162.13442529 -237.96484375 149.61328125 C-237.4234375 148.92105469 -236.88203125 148.22882813 -236.32421875 147.515625 C-231.97795768 142.03284163 -226.46282912 137.88456558 -220.96484375 133.61328125 C-220.10890625 132.93007812 -219.25296875 132.246875 -218.37109375 131.54296875 C-202.74017943 119.5372966 -183.30072389 111.91105713 -163.96484375 108.61328125 C-163.01048935 108.43942398 -162.05613495 108.26556671 -161.07286072 108.08644104 C-155.43174344 107.29566044 -149.73663083 107.48285587 -144.05297852 107.49975586 C-142.12023827 107.49953682 -142.12023827 107.49953682 -140.14845276 107.49931335 C-136.63243637 107.49902758 -133.11645441 107.50488876 -129.60044599 107.51188731 C-125.91958114 107.51815746 -122.23871543 107.51872754 -118.55784607 107.51991272 C-111.59529244 107.52301526 -104.63275461 107.5312141 -97.67020792 107.54126221 C-89.74033166 107.55245684 -81.81045463 107.55794223 -73.88057244 107.56295764 C-57.57531886 107.57339764 -41.27008701 107.5917297 -24.96484375 107.61328125 C-24.96484375 90.78328125 -24.96484375 73.95328125 -24.96484375 56.61328125 C-27.27484375 56.28328125 -29.58484375 55.95328125 -31.96484375 55.61328125 C-38.19059707 52.64484207 -42.90708538 48.11088936 -46.96484375 42.61328125 C-47.54234375 41.85015625 -48.11984375 41.08703125 -48.71484375 40.30078125 C-52.56261901 32.02806443 -52.88460066 22.85000446 -50.2109375 14.1640625 C-46.36585584 4.68810813 -41.00572403 0.17607305 -31.8671875 -4.22265625 C-21.28287734 -8.46777661 -9.21390051 -6.50285225 0 0 Z M-122.55078125 254.5078125 C-125.90025205 259.49500797 -126.48380335 264.45814907 -125.62890625 270.2734375 C-124.02899941 275.91075629 -120.60075287 280.91815461 -115.65234375 284.11328125 C-109.29012993 286.70130043 -104.3793673 287.40619461 -97.77734375 285.17578125 C-91.56230463 282.39206233 -88.71658275 277.87788574 -85.58984375 272.05078125 C-83.97261499 265.74358907 -85.00000811 260.27994292 -87.96484375 254.61328125 C-91.78571612 249.80989885 -96.86005137 246.33062361 -102.9765625 245.26171875 C-111.43828651 244.89598608 -117.31991874 247.95132045 -122.55078125 254.5078125 Z M53.16015625 252.55078125 C49.17923965 257.35565501 47.55210722 260.9364395 47.7265625 267.17578125 C48.48678181 273.18055146 50.94812281 277.97459993 55.41015625 282.05078125 C60.93274867 286.25402284 65.69761375 287.09638163 72.50390625 286.21484375 C77.95831709 284.91857944 81.69624756 282.0931277 85.41015625 277.98828125 C88.34830372 271.88597496 89.9303125 265.54419356 88.16015625 258.86328125 C85.69309537 252.75593498 80.81711612 248.91909915 74.97265625 246.17578125 C66.13878007 244.48418794 59.22119609 245.79812898 53.16015625 252.55078125 Z M-68.96484375 316.61328125 C-64.54114677 331.35893785 -57.3914647 342.6812626 -43.70703125 350.29296875 C-31.08120192 356.37207176 -17.62818132 357.76498075 -4.08984375 354.05078125 C9.66967703 349.14401947 20.18829827 340.1610045 26.84375 327.19140625 C29.28271164 322.10834432 29.28271164 322.10834432 30.03515625 316.61328125 C-2.63484375 316.61328125 -35.30484375 316.61328125 -68.96484375 316.61328125 Z " fill="#5C16E6" transform="translate(358.96484375,73.38671875)"/>
</svg>
