<?xml version="1.0" encoding="UTF-8"?>
<svg version="1.1" xmlns="http://www.w3.org/2000/svg" width="697" height="776">
<path d="M0 0 C8.04923838 5.90272279 12.88704783 14.33004464 17.64355469 22.90942383 C18.62569223 24.64662645 19.60784952 26.38381847 20.59147644 28.12017822 C21.59134254 29.88736357 22.5869616 31.6568986 23.58251953 33.42651367 C26.48638467 38.55679748 29.47112723 43.63853299 32.45605469 48.72192383 C38.19786558 58.53725631 43.85179823 68.4015966 49.48486328 78.27954102 C55.83779364 89.41844887 62.244021 100.52624963 68.65966797 111.62915039 C71.78180074 117.03363028 74.89996673 122.44039795 78.01855469 127.84692383 C79.2685359 130.01360133 80.5185359 132.180268 81.76855469 134.34692383 C99.26855469 164.68025716 116.76855469 195.01359049 134.26855469 225.34692383 C134.88722412 226.4192627 135.50589355 227.49160156 136.14331055 228.59643555 C137.39419949 230.76468647 138.6450132 232.9329808 139.89575195 235.10131836 C143.00653804 240.49410298 146.11859706 245.88614476 149.23339844 251.27661133 C155.37127646 261.90206224 161.49020907 272.53769424 167.56890869 283.19708252 C174.09378558 294.6387333 180.68192016 306.04173396 187.33496094 317.40942383 C187.84937744 318.28953125 188.36379395 319.16963867 188.89379883 320.07641602 C190.05969348 322.064481 191.23144571 324.04911523 192.40698242 326.03149414 C193.34392944 327.61849121 193.34392944 327.61849121 194.29980469 329.23754883 C194.86892578 330.19693359 195.43804688 331.15631836 196.02441406 332.14477539 C201.38082177 341.83182122 202.12284201 353.21700972 199.86230469 363.96801758 C196.61399295 373.83896488 190.64362202 382.65906829 181.51855469 387.84692383 C175.61696601 390.70830016 170.04375727 392.97855086 163.51855469 393.84692383 C161.79572266 394.08668945 161.79572266 394.08668945 160.03808594 394.33129883 C149.60030416 395.07921154 149.60030416 395.07921154 145.09667969 391.46411133 C142.25960865 388.805778 139.79448634 385.9982138 137.51855469 382.84692383 C137.51855469 382.18692383 137.51855469 381.52692383 137.51855469 380.84692383 C138.24856689 380.83757812 138.9785791 380.82823242 139.73071289 380.81860352 C143.09813112 380.7643032 146.46424768 380.680775 149.83105469 380.59692383 C150.97896484 380.58274414 152.126875 380.56856445 153.30957031 380.55395508 C163.02599767 380.27870218 172.76403889 378.67509335 180.01464844 371.65161133 C185.7724544 364.74224417 187.07459828 358.31756563 187.08496094 349.43676758 C185.75342866 340.99760786 180.83753058 333.60088487 176.64355469 326.28442383 C176.07548096 325.28628662 175.50740723 324.28814941 174.92211914 323.25976562 C170.32332859 315.20038676 165.64930277 307.18529467 160.96020508 299.17822266 C156.45098106 291.47086201 152.00382024 283.72910458 147.58105469 275.97192383 C142.39428847 266.87603462 137.19173889 257.78979991 131.95605469 248.72192383 C131.34052734 247.65586914 130.725 246.58981445 130.09082031 245.49145508 C128.23385275 242.27634859 126.37631889 239.06157005 124.51855469 235.84692383 C116.45766164 221.89848015 108.42146043 207.93688495 100.44119263 193.94219971 C95.84461246 185.88429171 91.20531309 177.85274596 86.51855469 169.84692383 C81.48674779 161.25169711 76.51466397 152.62380253 71.58105469 143.97192383 C66.39413042 134.87612396 61.19173962 125.7898012 55.95605469 116.72192383 C55.03276367 115.1228418 55.03276367 115.1228418 54.09082031 113.49145508 C52.23385275 110.27634859 50.37631889 107.06157005 48.51855469 103.84692383 C41.14015879 91.07946258 33.77302502 78.30618649 26.46820068 65.49649048 C20.99818093 55.90606117 15.50601548 46.32888501 9.95605469 36.78442383 C9.40876709 35.84002441 8.86147949 34.895625 8.29760742 33.92260742 C6.72159666 31.22011675 5.12734428 28.53002385 3.51855469 25.84692383 C2.92582764 24.85716553 2.33310059 23.86740723 1.72241211 22.84765625 C0.82099487 21.38162964 0.82099487 21.38162964 -0.09863281 19.88598633 C-0.6372998 19.00507324 -1.1759668 18.12416016 -1.73095703 17.21655273 C-5.68205734 11.86796422 -11.99670193 8.17034084 -18.48144531 6.84692383 C-26.00045995 6.13636403 -33.08404377 6.81248538 -39.43017578 11.19165039 C-45.07387095 15.9232187 -48.44906433 21.12411976 -51.98144531 27.53442383 C-52.56748535 28.56809082 -53.15352539 29.60175781 -53.75732422 30.66674805 C-55.01547777 32.88762231 -56.26741164 35.11202957 -57.51367188 37.33959961 C-59.5390429 40.95861983 -61.5970149 44.55848945 -63.66113281 48.15551758 C-64.36753528 49.3870315 -65.07391558 50.61855814 -65.78027344 51.85009766 C-66.12646729 52.45367096 -66.47266113 53.05724426 -66.8293457 53.67910767 C-69.07553331 57.5998583 -71.30997777 61.52731412 -73.546875 65.45336914 C-76.85362268 71.25394875 -80.16770588 77.05033646 -83.48144531 82.84692383 C-82.70655762 82.8364502 -81.93166992 82.82597656 -81.13330078 82.81518555 C-52.71732127 82.48147626 -52.71732127 82.48147626 -41.48144531 84.84692383 C-41.09279297 83.7099707 -41.09279297 83.7099707 -40.69628906 82.55004883 C-39.43890664 79.75227187 -38.38835899 78.51278877 -36.04394531 76.59692383 C-35.44710937 76.09676758 -34.85027344 75.59661133 -34.23535156 75.08129883 C-29.40052441 71.67861424 -23.10313443 72.12154459 -17.48144531 72.84692383 C-12.34103724 74.96980622 -7.5992567 78.49390428 -5.05566406 83.56958008 C-3.72234679 88.85749823 -4.21160812 94.44268459 -4.48144531 99.84692383 C-3.62808594 100.08540039 -2.77472656 100.32387695 -1.89550781 100.56958008 C1.88417559 101.98371792 4.91470351 103.92194989 8.14355469 106.28442383 C8.74820557 106.72181885 9.35285645 107.15921387 9.97583008 107.60986328 C16.25353092 112.24240753 21.90457633 117.44368039 27.51855469 122.84692383 C28.46601562 123.69963867 28.46601562 123.69963867 29.43261719 124.56958008 C52.24475794 145.70594746 65.1382378 179.78937989 66.64477539 210.41259766 C67.48836447 239.77217573 61.61466126 267.63846865 44.92480469 292.17504883 C43.36035934 294.64789579 43.36035934 294.64789579 43.51074219 296.90942383 C44.94624696 299.66915393 46.88993766 301.45905148 49.14355469 303.59692383 C52.10871412 306.42522975 54.89526444 309.2521347 57.54768372 312.37541199 C62.07780429 317.574793 66.97725135 322.38368605 71.88842773 327.21923828 C72.91771689 328.23675997 73.94672084 329.25457021 74.97546387 330.27264404 C77.17647536 332.45031204 79.37879967 334.62664055 81.58197594 336.8021183 C85.07136541 340.24903712 88.55347954 343.70324304 92.03388977 347.15922546 C92.62359155 347.74473893 93.21329333 348.3302524 93.82086486 348.93350869 C95.02582516 350.12996691 96.23076212 351.32644864 97.43567622 352.52295339 C105.52705844 360.55758456 113.62241666 368.58801904 121.74047852 376.59570312 C127.23294229 382.01359472 132.71276013 387.44393071 138.17843276 392.88885278 C141.06448263 395.76296889 143.9564502 398.6304855 146.86401939 401.4828434 C149.59866992 404.16577232 152.31623015 406.8649177 155.02202606 409.57693481 C156.01238329 410.56379554 157.00867634 411.54474427 158.01152229 412.51891136 C164.8432721 419.16421966 170.15332894 425.73908366 170.66047192 435.60884571 C170.43794726 442.40524169 167.74151901 447.59916747 162.99511719 452.38208008 C156.747591 457.82091633 152.0739726 458.30756928 143.92089844 458.14770508 C130.76953547 456.98507024 119.6700406 441.1491393 110.75683594 432.21801758 C109.55492942 431.01678679 108.35287468 429.81570429 107.15068054 428.61476135 C104.64887747 426.11442148 102.1488634 423.61231063 99.65014648 421.10888672 C96.46643398 417.91946535 93.27823469 414.73457279 90.08868122 411.55099392 C87.61172189 409.07766704 85.13717243 406.60194008 82.66332054 404.12550545 C81.48922027 402.95074397 80.31439306 401.77670852 79.13878822 400.60345268 C73.71056257 395.18370234 68.3617896 389.76004046 63.37367249 383.926651 C59.02653 379.05317593 54.30648078 374.51461388 49.67871094 369.90942383 C48.54506326 368.77764519 47.4116391 367.64564263 46.27842712 366.51342773 C43.31991618 363.55870372 40.35841287 360.60699729 37.39624023 357.65594482 C34.36420744 354.63420912 31.33506402 351.60957989 28.30566406 348.58520508 C22.37942502 342.66963577 16.45001627 336.75725654 10.51855469 330.84692383 C5.37304213 332.83420877 0.87773326 335.53743246 -3.83691406 338.38598633 C-6.48144531 339.84692383 -6.48144531 339.84692383 -8.48144531 339.84692383 C-8.495625 340.42700195 -8.50980469 341.00708008 -8.52441406 341.60473633 C-8.8980792 347.7247653 -10.0866512 350.55676767 -14.48144531 354.84692383 C-19.1502174 357.95943856 -24.01423493 357.45199059 -29.48144531 356.84692383 C-32.13911948 355.80930518 -33.36935289 354.84167778 -35.48144531 352.84692383 C-35.48144531 352.18692383 -35.48144531 351.52692383 -35.48144531 350.84692383 C-36.56941406 351.05188477 -37.65738281 351.2568457 -38.77832031 351.46801758 C-47.32998218 353.048874 -55.77753944 354.44903099 -64.48144531 354.84692383 C-65.32191406 354.88817383 -66.16238281 354.92942383 -67.02832031 354.97192383 C-103.30689237 355.85140436 -135.51601856 341.29408041 -162.48144531 317.84692383 C-163.24972656 317.18305664 -164.01800781 316.51918945 -164.80957031 315.83520508 C-176.64156933 304.77377743 -185.80181663 290.50068287 -192.48144531 275.84692383 C-192.48144531 275.18692383 -192.48144531 274.52692383 -192.48144531 273.84692383 C-193.14144531 273.84692383 -193.80144531 273.84692383 -194.48144531 273.84692383 C-194.74610596 274.55437744 -195.0107666 275.26183105 -195.28344727 275.99072266 C-196.54367872 278.99529729 -198.0252784 281.72193181 -199.64941406 284.54614258 C-200.28830566 285.66053711 -200.92719727 286.77493164 -201.58544922 287.9230957 C-202.27993614 289.12687854 -202.97443514 290.33065441 -203.66894531 291.53442383 C-204.38458006 292.78099488 -205.09990775 294.02774227 -205.81494141 295.2746582 C-209.07595119 300.95647278 -212.35191608 306.62953226 -215.64271545 312.29414368 C-216.65400742 314.03496539 -217.66412561 315.77646393 -218.67407227 317.51806641 C-219.9230518 319.66965654 -221.17527203 321.8193702 -222.43139648 323.96679688 C-232.84998779 340.43089758 -232.84998779 340.43089758 -233.95019531 359.15551758 C-231.47359565 367.13716757 -227.93476655 371.91400551 -220.99316406 376.55004883 C-214.33240108 379.98919861 -208.16238161 380.1200186 -200.81184387 380.04464722 C-199.74852252 380.04197283 -198.68520117 380.03929844 -197.58965796 380.03654301 C-194.03240643 380.02546373 -190.47539241 380.00024417 -186.91821289 379.9753418 C-184.36525867 379.96499312 -181.8123 379.95569626 -179.25933838 379.94737244 C-174.47492755 379.93083613 -169.69056087 379.91136711 -164.90618201 379.88741942 C-155.49984568 379.84060063 -146.09362084 379.82105294 -136.68717957 379.81155396 C-135.20420179 379.80993111 -133.72122402 379.80829929 -132.23824626 379.80665863 C-129.99099991 379.80421654 -127.74375353 379.80181232 -125.49650705 379.79948898 C-117.03144014 379.79073715 -108.566378 379.7800762 -100.10131836 379.76586914 C-99.32787414 379.76458103 -98.55442992 379.76329291 -97.757548 379.76196577 C-85.23054273 379.73995249 -72.70393456 379.68141095 -60.17711882 379.6111667 C-47.29912762 379.53998689 -34.42159602 379.51476464 -21.5434162 379.53016961 C-13.60923019 379.53809075 -5.67689295 379.50962356 2.25694159 379.43372865 C8.34464526 379.37918453 14.43060681 379.38795585 20.51853943 379.41981697 C23.00819371 379.42293319 25.49797335 379.40562426 27.98731422 379.36599922 C48.75485386 379.05405624 48.75485386 379.05405624 55.51104861 385.19032204 C61.51855469 391.57674701 61.51855469 391.57674701 61.51855469 393.84692383 C27.18200147 393.89273241 -7.15454475 393.92795884 -41.49112194 393.94905449 C-45.5477109 393.95155581 -49.6042998 393.95414446 -53.66088867 393.95678711 C-54.46845986 393.95731173 -55.27603105 393.95783635 -56.10807409 393.95837687 C-69.17273548 393.96707215 -82.2373792 393.9828373 -95.30203012 394.00122942 C-108.71419932 394.01995287 -122.12635929 394.03104572 -135.53854102 394.03510082 C-143.81012532 394.03784081 -152.08165972 394.04648525 -160.35322865 394.06275676 C-166.03047247 394.07335383 -171.7076906 394.0765183 -177.38494358 394.07392658 C-180.65715072 394.07264952 -183.92925286 394.07566883 -187.20144844 394.08533478 C-190.75784694 394.09532331 -194.31403396 394.09287832 -197.87043762 394.08743286 C-199.40404622 394.09617139 -199.40404622 394.09617139 -200.96863681 394.10508645 C-215.22372019 394.0463174 -226.89227532 391.05658835 -237.44238281 381.06567383 C-245.63050879 372.15598886 -248.95617043 361.31079348 -248.48144531 349.28442383 C-247.78624834 338.61025362 -241.56264328 328.79762609 -236.16894531 319.84692383 C-234.92418761 317.74741474 -233.68075268 315.64712097 -232.43847656 313.54614258 C-231.79217285 312.4560791 -231.14586914 311.36601562 -230.47998047 310.24291992 C-226.35904844 303.24045662 -222.34764977 296.1744928 -218.34179688 289.10571289 C-215.21406386 283.59238677 -212.05496098 278.10635699 -208.76660156 272.68676758 C-207.91509521 271.26303833 -207.91509521 271.26303833 -207.04638672 269.81054688 C-205.99692304 268.06065357 -204.93128261 266.32031226 -203.84619141 264.59228516 C-201.13796593 260.03685532 -199.89000059 257.039834 -200.98706055 251.77758789 C-201.15020752 251.14046875 -201.31335449 250.50334961 -201.48144531 249.84692383 C-201.85462891 247.9984082 -201.85462891 247.9984082 -202.23535156 246.11254883 C-202.43427002 245.14949829 -202.43427002 245.14949829 -202.63720703 244.16699219 C-206.30305003 225.50991966 -206.10170542 205.30925877 -201.48144531 186.84692383 C-201.32047363 186.17226074 -201.15950195 185.49759766 -200.99365234 184.80249023 C-196.95929914 168.19614685 -189.67071712 152.56957215 -179.48144531 138.84692383 C-178.61519531 137.6480957 -178.61519531 137.6480957 -177.73144531 136.42504883 C-168.0001756 123.58983964 -156.12129924 112.39711536 -142.48144531 103.84692383 C-141.86188965 103.45811035 -141.24233398 103.06929688 -140.60400391 102.66870117 C-131.67180853 97.16516266 -122.47344634 92.97955945 -112.63769531 89.35473633 C-111.94981934 89.09764893 -111.26194336 88.84056152 -110.55322266 88.57568359 C-109.16363154 88.08688681 -107.7557854 87.64738799 -106.33544922 87.25683594 C-102.40756416 86.08615601 -100.18698276 85.00962946 -98.00488281 81.46020508 C-97.26519619 80.03861456 -96.55054645 78.60381973 -95.85644531 77.15942383 C-95.00562689 75.51575925 -94.15127085 73.87392248 -93.29394531 72.23364258 C-92.84277344 71.35756348 -92.39160156 70.48148437 -91.92675781 69.57885742 C-89.39160944 64.78691312 -86.61337073 60.13861858 -83.85644531 55.47192383 C-79.95535597 48.83532768 -76.09040716 42.18156387 -72.30957031 35.47583008 C-71.6020731 34.22435262 -70.89455365 32.97288773 -70.18701172 31.72143555 C-68.83827626 29.33501855 -67.49824616 26.94437083 -66.16259766 24.55053711 C-58.4769973 10.9504954 -51.427318 -0.31887804 -36.10644531 -5.59057617 C-23.09808648 -9.13692076 -11.30004207 -7.3277003 0 0 Z M-98.48144531 98.84692383 C-99.14402344 99.01321289 -99.80660156 99.17950195 -100.48925781 99.35083008 C-132.15326013 107.60303145 -159.37730243 128.90179739 -175.96582031 156.95629883 C-181.54099602 166.80750197 -185.40606693 176.97546125 -188.48144531 187.84692383 C-188.82175781 188.97356445 -189.16207031 190.10020508 -189.51269531 191.26098633 C-197.47413322 222.73815286 -189.69018873 256.39852714 -173.67138672 283.89086914 C-156.8251597 311.58310772 -128.77314452 331.19635913 -97.48144531 338.84692383 C-64.42939686 346.55426402 -32.21551321 339.94631065 -3.23925781 322.94458008 C4.47642766 318.04461879 10.96922976 312.16301069 17.51855469 305.84692383 C18.23785156 305.19079102 18.95714844 304.5346582 19.69824219 303.85864258 C40.13830972 284.69094873 52.78686928 254.42759299 53.79980469 226.69848633 C54.58222946 189.70718193 43.17711912 157.69337803 17.37402344 130.71801758 C-4.25267675 108.70893438 -34.41101344 95.989206 -65.21020508 95.60546875 C-76.6289808 95.57506038 -87.39346857 96.03057774 -98.48144531 98.84692383 Z " fill="#5D16EA" transform="translate(382.4814453125,184.153076171875)"/>
<path d="M0 0 C6.76006959 0.5394399 12.71183578 1.8862217 19.125 4.0625 C20.03282227 4.36687988 20.94064453 4.67125977 21.87597656 4.98486328 C40.4431542 11.4431542 40.4431542 11.4431542 46 17 C46.03453526 19.40415758 46.00296141 21.77612513 45.92724609 24.17773438 C45.90742298 24.93412704 45.88759987 25.69051971 45.86717606 26.46983337 C45.79925513 29.0113022 45.72389466 31.55249455 45.6484375 34.09375 C45.59842941 35.89513063 45.54882611 37.69652254 45.49960327 39.4979248 C45.3935325 43.3426222 45.28409826 47.18720496 45.17224121 51.03173828 C45.02952385 55.94503144 44.89358146 60.85848011 44.76016617 65.77203369 C44.49136399 75.66905099 44.20538971 85.56540908 43.89993668 95.46136475 C43.74328069 100.54550886 43.59224922 105.62969876 43.453125 110.71435547 C43.31491391 115.75997253 43.16331619 120.8050232 43.00223923 125.84996033 C42.94411068 127.74114618 42.89065892 129.63248239 42.84221268 131.52394104 C42.7743433 134.14088669 42.68924143 136.75675129 42.60009766 139.37304688 C42.58440231 140.13236008 42.56870697 140.89167328 42.55253601 141.67399597 C42.2660271 149.05063149 40.2657072 155.57941906 35 161 C30.76257621 164.38993903 26.31465638 165.12098405 21 165 C14.84080858 164.04618782 11.06608232 161.74912837 7.19140625 156.9140625 C3.74605372 151.37890597 3.61775551 146.27291243 3.4375 139.9140625 C3.38322342 138.38375145 3.38322342 138.38375145 3.32785034 136.82252502 C3.20963445 133.4235876 3.10462898 130.02438081 3 126.625 C2.92011946 124.22564439 2.83953912 121.82631198 2.75830078 119.42700195 C2.58654709 114.30419286 2.42072913 109.18123388 2.25878906 104.05810547 C2.04382888 97.26893818 1.81110592 90.48047707 1.57369995 83.69206238 C-0.41812386 26.73741243 -0.41812386 26.73741243 0 0 Z " fill="#5D16EA" transform="translate(330,290)"/>
<path d="M0 0 C0.66 0.33 1.32 0.66 2 1 C-5.40556003 14.33477048 -12.89222825 27.61001588 -20.6081543 40.76806641 C-24.7599021 47.85495789 -28.85969209 54.97024111 -32.92822266 62.10516357 C-33.93064228 63.86297451 -34.93393552 65.62028387 -35.9375 67.37744141 C-38.67352847 72.1686395 -41.40928182 76.95997397 -44.13623047 81.75634766 C-45.87884363 84.82095774 -47.62665219 87.88255076 -49.37796021 90.94219971 C-50.3572404 92.65641215 -51.33089569 94.37383401 -52.30444336 96.09130859 C-52.89233643 97.11691895 -53.48022949 98.1425293 -54.0859375 99.19921875 C-54.6020459 100.10502686 -55.1181543 101.01083496 -55.64990234 101.9440918 C-57 104 -57 104 -59 105 C-59.64591798 82.77563706 -55.76215017 69.27554213 -44.12931824 50.22518921 C-41.67657374 46.18761357 -39.37399149 42.08790803 -37.1328125 37.9296875 C-30.50065797 25.72896107 -24.85186333 15.61392432 -13 8 C-11.79020819 7.18512798 -10.58057635 6.37001841 -9.37109375 5.5546875 C-6.31630222 3.5548118 -3.28366848 1.60954401 0 0 Z " fill="#5D16EA" transform="translate(259,302)"/>
<path d="M0 0 C5.10088082 4.05803407 6.90660838 9.10848702 7.7578125 15.3984375 C-4.76157071 22.0282817 -16.98176386 27.9129767 -31.2421875 29.3984375 C-31.18160131 26.56300384 -31.09435359 23.73243605 -30.9921875 20.8984375 C-30.97800781 20.10695313 -30.96382813 19.31546875 -30.94921875 18.5 C-30.68802165 12.12679088 -29.21905231 6.61801428 -24.79589844 1.83422852 C-17.95773389 -4.20987513 -7.83807121 -4.47436454 0 0 Z " fill="#5D16EA" transform="translate(364.2421875,485.6015625)"/>
</svg>
