<?xml version="1.0" encoding="UTF-8"?>
<svg version="1.1" xmlns="http://www.w3.org/2000/svg" width="690" height="639">
<path d="M0 0 C1.35417201 -0.00480972 1.35417201 -0.00480972 2.73570102 -0.0097166 C5.74669324 -0.0179871 8.757485 -0.01210265 11.7684803 -0.00622082 C13.95470406 -0.00924284 16.14092676 -0.01313258 18.3271476 -0.01781338 C24.3242391 -0.02809548 30.32127083 -0.025911 36.31836724 -0.02163279 C42.79019901 -0.01916598 49.26201636 -0.02817916 55.73384285 -0.03567028 C68.40859308 -0.04884316 81.0833244 -0.05021641 93.75808011 -0.04787002 C104.05999201 -0.04603619 114.3618977 -0.04779886 124.66380882 -0.05209446 C126.14474002 -0.05269686 127.62567121 -0.05329806 129.10660241 -0.05389806 C131.33831748 -0.05480533 133.57003255 -0.055714 135.80174762 -0.05663041 C156.5463853 -0.06505788 177.29102064 -0.06939704 198.03565979 -0.06522369 C198.81741295 -0.06506732 199.5991661 -0.06491094 200.40460875 -0.06474983 C204.36669606 -0.06394406 208.32878336 -0.06309829 212.29087065 -0.06223653 C213.47116104 -0.06197989 213.47116104 -0.06197989 214.67529567 -0.06171808 C216.26651723 -0.06137142 217.85773879 -0.06102289 219.44896034 -0.06067249 C244.20913709 -0.05531513 268.96927822 -0.06324698 293.72944832 -0.08170605 C321.55830692 -0.10242865 349.38714346 -0.11314831 377.21601021 -0.10913056 C380.18408338 -0.10873522 383.15215655 -0.10837368 386.12022972 -0.10803318 C387.21642323 -0.10789708 387.21642323 -0.10789708 388.33476207 -0.10775824 C399.35947996 -0.10659301 410.38417555 -0.11323485 421.40888786 -0.1238451 C433.94892243 -0.13590152 446.48890441 -0.13717291 459.02893983 -0.12505493 C465.42632181 -0.11916066 471.82360787 -0.11808213 478.22098351 -0.13005733 C484.07971288 -0.14089678 489.93826601 -0.13783566 495.79698707 -0.12379565 C497.91398044 -0.12114342 500.03098753 -0.12353174 502.14796744 -0.13153151 C520.60268418 -0.19641697 536.21588883 1.47859499 550.19771004 14.73494434 C562.85555099 28.43344671 563.67992833 43.60552289 563.65954781 61.37221241 C563.66141754 62.91736524 563.6637189 64.4625176 563.66641313 66.00766921 C563.67251739 70.24202265 563.67239915 74.47635631 563.67121875 78.71071315 C563.6710144 83.28208167 563.67653682 87.85344389 563.68127632 92.42480946 C563.68957591 101.37667713 563.69233085 110.32853822 563.6928887 119.28040943 C563.69336419 126.55843518 563.69542058 133.83645877 563.69858932 141.11448383 C563.70739402 161.75800494 563.71200899 182.40152086 563.71125885 203.04504386 C563.71119892 204.71371501 563.71119892 204.71371501 563.71113777 206.41609669 C563.71107645 208.08680989 563.71107645 208.08680989 563.71101389 209.79127488 C563.71060747 227.84044359 563.72017638 245.88959143 563.73427614 263.93875411 C563.74864603 282.48031028 563.75554598 301.02185627 563.75468236 319.56341815 C563.7543506 329.96954304 563.75708841 340.37564606 563.76786041 350.78176594 C563.77697347 359.64193245 563.77913404 368.50206717 563.77235099 377.36223635 C563.76908986 381.88014531 563.76901439 386.39799329 563.77770424 390.91589642 C563.78558814 395.05748888 563.78411857 399.19897221 563.77542011 403.34056208 C563.77388928 404.83312464 563.77568545 406.32569543 563.78128018 407.8182483 C563.84479853 425.97652183 561.63252539 440.77833193 548.64692879 454.19588184 C534.51481151 467.4144077 517.29991119 467.69830969 499.04940987 467.63542652 C496.86217164 467.63888621 494.67493516 467.64365285 492.48770231 467.64960825 C486.49703063 467.6621052 480.50650276 467.65595371 474.51583064 467.6466496 C468.04742 467.63985411 461.57903387 467.65034286 455.11062813 467.65858936 C443.17794737 467.67173513 431.24531203 467.67007162 419.31262863 467.66185496 C408.28742929 467.6543007 397.26224669 467.65234172 386.23704529 467.65592289 C385.50499299 467.65615204 384.7729407 467.6563812 384.018705 467.6566173 C381.04686482 467.65755136 378.07502464 467.65850656 375.10318448 467.65949659 C347.23840285 467.66866868 319.3736503 467.66036117 291.50887317 467.6442059 C266.76849918 467.62997113 242.02817151 467.63124228 217.28779793 467.64558887 C189.47466062 467.66166351 161.66154899 467.66801665 133.84840769 467.65875208 C130.88175198 467.65778997 127.91509627 467.65685145 124.94844055 467.65592289 C123.85278767 467.65556704 123.85278767 467.65556704 122.7350004 467.655204 C111.71912045 467.65179587 100.70325911 467.65577445 89.68738174 467.66336155 C77.15730195 467.67194866 64.62727867 467.66948699 52.09720523 467.65351932 C45.70576378 467.64564249 39.31441627 467.64253509 32.92297554 467.65246677 C27.06858711 467.66142624 21.21437944 467.65645996 15.36000734 467.64053412 C13.24574945 467.63719163 11.1314762 467.63886834 9.01722825 467.64616148 C-8.65674578 467.70243654 -25.1206405 466.67919243 -38.85307121 454.00056934 C-47.83544105 444.32558304 -52.59143879 432.84471523 -52.60559273 419.66006851 C-52.60764536 419.00787058 -52.609698 418.35567265 -52.61181283 417.68371114 C-52.61747386 415.49507628 -52.61602669 413.30650454 -52.61460686 411.11786366 C-52.61719102 409.53405182 -52.62020432 407.95024063 -52.62361026 406.36643034 C-52.63167771 402.01128526 -52.63346969 397.65615667 -52.63420773 393.30100501 C-52.63605875 388.60483682 -52.6436064 383.90867717 -52.65034294 379.21251392 C-52.66392556 368.94167185 -52.66995103 358.67083368 -52.6743536 348.39998412 C-52.67711646 341.98574824 -52.68135393 335.57151387 -52.68585777 329.15727901 C-52.69805095 311.39560859 -52.70834978 293.63393938 -52.71173286 275.87226486 C-52.71195243 274.73542888 -52.712172 273.5985929 -52.71239822 272.42730734 C-52.71261649 271.28775838 -52.71283477 270.14820941 -52.71305966 268.97412866 C-52.71350313 266.66498975 -52.71394969 264.35585084 -52.71439934 262.04671192 C-52.71462077 260.90130047 -52.7148422 259.75588901 -52.71507034 258.57576812 C-52.71901712 240.02201043 -52.73646728 221.46829204 -52.75975886 202.91454952 C-52.78348296 183.86232265 -52.79593522 164.81011548 -52.79710078 145.75787359 C-52.79801701 135.06217405 -52.80375611 124.3665257 -52.82192039 113.67084026 C-52.83733574 104.56172686 -52.84243341 95.45268048 -52.83418229 86.34355652 C-52.83028072 81.69804837 -52.83118127 77.05267512 -52.84523964 72.40718365 C-52.85800818 68.1488534 -52.85675522 63.89075901 -52.84464893 59.63242895 C-52.84269702 58.09737953 -52.84574682 56.56231322 -52.85449329 55.02728748 C-52.94083413 38.84077075 -50.13900245 25.18442302 -38.47416496 13.25447559 C-26.73504718 3.85078089 -14.96371462 -0.08017002 0 0 Z M-27.16166496 25.56697559 C-33.51370819 32.94907988 -36.72114599 40.1112702 -36.72864056 50.0224781 C-36.73184703 50.66914105 -36.73505351 51.31580399 -36.73835716 51.98206279 C-36.74663086 54.13987873 -36.74074225 56.2974152 -36.73486137 58.45523548 C-36.73788327 60.02157593 -36.74177294 61.58791491 -36.74645394 63.15425128 C-36.75673792 67.45175322 -36.75455109 71.74917177 -36.75027335 76.04668057 C-36.74780683 80.68415644 -36.7568194 85.32161219 -36.76431084 89.9590807 C-36.77706224 99.0421013 -36.77885095 108.12509234 -36.77651057 117.20812038 C-36.77472764 124.59154816 -36.77647654 131.97496696 -36.78073502 139.35839367 C-36.7813302 140.40919528 -36.78192539 141.45999689 -36.78253862 142.54264098 C-36.78375037 144.67735293 -36.78496451 146.81206488 -36.786181 148.94677683 C-36.79705838 168.96803816 -36.79489319 188.98928264 -36.78879615 209.01054492 C-36.78362765 227.32303493 -36.79488033 245.63547174 -36.81389437 263.94795123 C-36.83327097 282.75389254 -36.84152903 301.55980867 -36.83777112 320.36576003 C-36.8358587 330.92275155 -36.83835056 341.4796978 -36.85248566 352.03668118 C-36.86439819 361.02466978 -36.8658058 370.01258525 -36.85369549 379.00057486 C-36.84780574 383.58508816 -36.84671003 388.16946766 -36.85869789 392.75397205 C-36.86955299 396.95414492 -36.86645778 401.15407222 -36.85243621 405.35423359 C-36.84978824 406.87034286 -36.85215897 408.38647135 -36.86017207 409.90256176 C-36.91925819 421.91979426 -35.88512212 433.00413575 -27.47416496 442.25447559 C-14.81958686 452.83023145 0.00722169 451.54472584 15.59848213 451.50844288 C17.75399567 451.51074895 19.90950843 451.51392645 22.06501955 451.51789737 C27.97250356 451.5262338 33.87992282 451.5221253 39.78740704 451.51592493 C46.16442877 451.51139678 52.54143942 451.51838599 58.91845894 451.52388477 C70.6833139 451.53226274 82.44814586 451.53153876 94.21300194 451.52606184 C105.08170585 451.52102705 115.95040222 451.51971904 126.81910706 451.52210712 C127.54057269 451.52225989 128.26203833 451.52241266 129.00536656 451.52257006 C131.93415619 451.52319276 134.86294581 451.52382956 137.79173543 451.52448959 C165.25449232 451.53060481 192.7172361 451.52506496 220.17999096 451.5142958 C244.57107687 451.50480389 268.96214189 451.50565501 293.35322762 451.51521778 C320.76786206 451.52593008 348.18248493 451.5301721 375.59712118 451.52399325 C378.52020704 451.52335183 381.44329291 451.52272615 384.36637878 451.52210712 C385.44595701 451.52186989 385.44595701 451.52186989 386.5473449 451.52162787 C397.40905998 451.51935428 408.27076669 451.52201093 419.13248062 451.52706623 C431.48369644 451.53278618 443.83488408 451.53115955 456.18609745 451.52050474 C462.4880312 451.51524757 468.78992256 451.51319215 475.091856 451.51980305 C480.86097188 451.5257635 486.63000607 451.52248568 492.39911454 451.51184794 C494.48575927 451.50961436 496.5724109 451.51074927 498.65905119 451.51559952 C501.49740383 451.52169085 504.33547755 451.51543278 507.17381573 451.50615788 C508.38589652 451.51318137 508.38589652 451.51318137 509.62246379 451.52034676 C520.68396543 451.44822087 529.89859416 449.07108829 538.34614754 441.65681934 C546.73435366 432.74171585 547.10740651 422.11303168 547.03376961 410.50313282 C547.03838413 408.91357525 547.04474073 407.32402196 547.05267859 405.73447752 C547.06931946 401.38665398 547.06114953 397.03918332 547.04873371 392.6913588 C547.039664 387.99461569 547.05366247 383.29793223 547.0646534 378.60120106 C547.08242271 369.40826625 547.0786057 360.21546222 547.06700283 351.02252233 C547.05796254 343.55000924 547.05674709 336.07753275 547.0610981 328.60501575 C547.0620175 327.00860783 547.0620175 327.00860783 547.06295547 325.37994924 C547.06423439 323.21777688 547.06553125 321.05560454 547.06684583 318.8934322 C547.07824698 298.62748871 547.06514521 278.36161763 547.04364437 258.09568602 C547.02577382 240.71352102 547.02887806 223.33146288 547.04731941 205.94929981 C547.06873432 185.75496363 547.07714839 165.56069088 547.06487036 145.36634493 C547.06359619 143.21220844 547.0623387 141.05807194 547.0610981 138.90393543 C547.060481 137.84410998 547.05986389 136.78428452 547.05922809 135.69234315 C547.05577706 128.23039786 547.06159823 120.76849288 547.07101631 113.30655384 C547.08224455 104.21064721 547.07917884 95.11487863 547.05789334 86.01898777 C547.04739408 81.37974173 547.04324194 76.74072569 547.05648994 72.10148144 C547.06844295 67.85139178 547.06180359 63.60174451 547.04057974 59.35169476 C547.03612597 57.81751 547.03835233 56.28328757 547.04808289 54.74912721 C547.11727958 42.92897957 545.65000982 33.7528033 537.31880379 24.94197559 C528.77009479 16.89613183 518.74082379 16.09763401 507.54295921 16.12584114 C506.6568468 16.1240881 505.77073439 16.12233507 504.85777009 16.12052891 C501.88547611 16.11587319 498.91323114 16.11833332 495.94093513 16.12076283 C493.78958717 16.11889464 491.63823955 16.1165939 489.48689246 16.1138975 C483.57231927 16.10777405 477.6577602 16.10791374 471.74318457 16.10909188 C465.36539396 16.10929575 458.9876079 16.10377845 452.60981941 16.09903431 C440.11346796 16.0907242 427.61712136 16.08796635 415.12076738 16.08742193 C404.96418109 16.08696234 394.80759632 16.08490374 384.65101051 16.08172131 C381.7271359 16.08082376 378.80326128 16.07993394 375.87938666 16.07904643 C375.15249565 16.07882538 374.42560463 16.07860433 373.67668661 16.07837659 C353.23105912 16.07222255 332.78543216 16.068276 312.3398037 16.06871986 C311.18358338 16.06874323 311.18358338 16.06874323 310.00400509 16.06876707 C306.09722974 16.06885018 302.19045439 16.06894922 298.28367904 16.06905178 C297.50778408 16.06907173 296.73188913 16.06909167 295.9324822 16.06911222 C294.36343343 16.06915266 292.79438465 16.06919445 291.22533588 16.06923761 C266.81475412 16.06985033 242.40418626 16.06234429 217.99360847 16.04866505 C190.56617704 16.03330154 163.13875474 16.02469899 135.71131873 16.02562827 C132.7861867 16.0257029 129.86105466 16.02575161 126.93592262 16.02578259 C126.21568523 16.02579424 125.49544783 16.02580589 124.75338506 16.0258179 C113.16742668 16.02584866 101.58148036 16.01946524 89.99552556 16.01085032 C78.34938605 16.00236981 66.70326813 16.00155846 55.05712679 16.00795964 C48.74901943 16.01122835 42.44095578 16.01126883 36.13285255 16.00260639 C30.35674275 15.99475606 24.58071141 15.99615788 18.80460355 16.00489052 C16.71647441 16.00642874 14.62833947 16.00459727 12.54021719 15.99903045 C-8.85508129 15.6575358 -8.85508129 15.6575358 -27.16166496 25.56697559 Z " fill="#5D16EB" transform="translate(87.47416496276855,87.7455244064331)"/>
<path d="M0 0 C0.75023437 -0.03738281 1.50046875 -0.07476562 2.2734375 -0.11328125 C5.93033689 -0.17163603 7.86714493 -0.09884998 10.590271 2.44194031 C12.75637808 6.00176444 12.9141232 8.7875251 12.82910156 12.82739258 C12.82968567 13.5596405 12.83026978 14.29188843 12.83087158 15.04632568 C12.82809598 17.45455159 12.79703102 19.86152295 12.765625 22.26953125 C12.75816069 23.94389673 12.75246865 25.61827097 12.74847412 27.29264832 C12.73323261 31.69050394 12.69396396 36.08782758 12.6496582 40.48547363 C12.60867327 44.97657068 12.59045625 49.46775405 12.5703125 53.95898438 C12.52746792 62.76456651 12.45923503 71.569717 12.375 80.375 C13.30350266 80.36389694 14.23200531 80.35279388 15.18864441 80.34135437 C23.94311199 80.24112834 32.69738663 80.16502277 41.45229626 80.11593914 C45.95322857 80.08985609 50.45368644 80.05448224 54.9543457 79.99780273 C59.29859892 79.94343594 63.64239609 79.91356973 67.98696327 79.90061378 C69.64360038 79.89138219 71.30021279 79.87335454 72.9566555 79.84634972 C75.27918601 79.80999502 77.5998377 79.80505699 79.92260742 79.80737305 C80.60593643 79.78939667 81.28926544 79.77142029 81.99330139 79.75289917 C85.80429047 79.79396003 87.30189742 80.31574605 90.30366516 82.74885559 C93.90627604 87.31643019 92.95013609 91.81324441 92.375 97.375 C88.79146185 122.76067487 77.00935781 143.8377266 57 159.8125 C36.38086294 174.87835327 12.98562921 178.91373731 -12.12988281 176.09375 C-29.1302805 173.42583204 -43.90430706 164.53291296 -56.625 153.375 C-57.70201172 152.43140625 -57.70201172 152.43140625 -58.80078125 151.46875 C-75.60125048 135.67407383 -82.79693071 112.67293159 -84.625 90.375 C-84.73521484 89.14523438 -84.73521484 89.14523438 -84.84765625 87.890625 C-85.82949938 65.86318775 -75.71501364 44.12921279 -61.3125 28.0625 C-45.46550294 11.17671792 -23.24222011 0.44386184 0 0 Z M-47.79296875 37.421875 C-62.9354635 53.47233366 -68.20417208 72.19656564 -67.89453125 93.71484375 C-67.26116577 112.48180603 -57.75346781 129.70702051 -44.359375 142.546875 C-28.82970828 155.81394127 -10.14050756 162.00541954 10.17871094 160.59375 C29.59031971 158.66035722 47.86309857 148.8208835 60.43359375 133.96484375 C68.31213771 123.4548344 75.67454097 109.83274227 75.375 96.375 C74.45680481 96.36913376 73.53860962 96.36326752 72.59259033 96.35722351 C63.94057105 96.2993262 55.28881074 96.22726652 46.637043 96.13928509 C42.18903667 96.09455241 37.74112254 96.05530277 33.29296875 96.02856445 C29.00044719 96.00256023 24.70827992 95.96217854 20.41597748 95.91181374 C18.77816931 95.89512546 17.14029983 95.88362339 15.50241852 95.87738609 C13.20859108 95.86776607 10.91567399 95.83973362 8.62207031 95.80737305 C6.66349091 95.79071846 6.66349091 95.79071846 4.66534424 95.77372742 C1.11854458 95.34392246 -0.3592712 95.1409978 -2.625 92.375 C-3.03691649 89.79863263 -3.18944125 87.63770643 -3.17089844 85.05786133 C-3.18123611 84.31615189 -3.19157379 83.57444244 -3.20222473 82.81025696 C-3.23171969 80.35896187 -3.23315324 77.90849006 -3.234375 75.45703125 C-3.24935222 73.75736408 -3.2660784 72.05771149 -3.28448486 70.358078 C-3.32822247 65.8848098 -3.34817153 61.41173792 -3.36322021 56.93829346 C-3.38276832 52.37345743 -3.42474083 47.80883416 -3.46484375 43.24414062 C-3.54021516 34.28782594 -3.59046455 25.3315587 -3.625 16.375 C-19.4514879 16.375 -36.70588741 26.95407207 -47.79296875 37.421875 Z " fill="#5D16EA" transform="translate(481.625,156.625)"/>
<path d="M0 0 C1.45159264 -0.01879967 1.45159264 -0.01879967 2.93251038 -0.03797913 C3.96597092 -0.02472092 4.99943146 -0.01146271 6.06420898 0.00219727 C7.67077614 -0.00142067 7.67077614 -0.00142067 9.30979919 -0.00511169 C11.57001454 -0.00413371 13.83025398 0.00924822 16.09033203 0.03417969 C19.55185134 0.06851967 23.0108223 0.0548268 26.47241211 0.03540039 C28.66968861 0.04229794 30.86695852 0.0519695 33.06420898 0.06469727 C34.09969376 0.0597374 35.13517853 0.05477753 36.20204163 0.04966736 C37.16661789 0.06550369 38.13119415 0.08134003 39.125 0.09765625 C40.3947744 0.10695412 40.3947744 0.10695412 41.69020081 0.11643982 C44.91658025 0.83601816 45.97004167 2.03087498 47.99780273 4.63110352 C48.50396061 7.90763092 48.50396061 7.90763092 48.51246643 11.8807373 C48.52288472 12.97806427 48.52288472 12.97806427 48.53351349 14.09755945 C48.55181563 16.54980579 48.54151087 19.0010882 48.53125 21.45336914 C48.53830684 23.21100083 48.54705086 24.96862643 48.55735779 26.72624207 C48.5798868 31.50101421 48.57690407 36.27545544 48.56803632 41.05026054 C48.56293188 45.03408838 48.57021448 49.01785373 48.57750839 53.00167513 C48.59451821 62.39790066 48.59093023 71.79396383 48.57421875 81.19018555 C48.55729037 90.89015949 48.57313936 100.58968366 48.60544163 110.28960848 C48.63211262 118.61328355 48.63942045 126.93681839 48.63092655 135.2605319 C48.62599077 140.23391419 48.62824824 145.2070257 48.64871407 150.18037415 C48.6670325 154.85580667 48.66115979 159.53059054 48.63651466 164.20598793 C48.63149479 165.92329393 48.63502696 167.64064903 48.64766312 169.35791588 C48.66353454 171.69985193 48.64870229 174.03963632 48.62599182 176.38146973 C48.62540551 177.69259483 48.6248192 179.00371994 48.62421513 180.35457611 C47.99780273 183.63110352 47.99780273 183.63110352 45.60832977 186.05288029 C42.7921731 187.7554192 41.34038026 188.13216089 38.08740234 188.1328125 C37.13969467 188.14219345 36.191987 188.1515744 35.21556091 188.16123962 C33.69818077 188.14438866 33.69818077 188.14438866 32.15014648 188.12719727 C30.5768734 188.12938011 30.5768734 188.12938011 28.97181702 188.13160706 C26.75868954 188.12994979 24.54555034 188.11840794 22.33251953 188.09765625 C18.94375745 188.06867582 15.55655759 188.07705675 12.16772461 188.09008789 C10.01602429 188.08385108 7.86432892 188.07546059 5.71264648 188.06469727 C4.19223 188.06910072 4.19223 188.06910072 2.64109802 188.07359314 C1.69654251 188.06090897 0.751987 188.04822479 -0.22119141 188.03515625 C-1.04994278 188.02975327 -1.87869415 188.02435028 -2.7325592 188.01878357 C-5.55843144 187.53609238 -6.92789246 186.58610237 -9.00219727 184.63110352 C-10.1741727 181.11517722 -10.14004462 178.33464245 -10.15609741 174.62234497 C-10.16047967 173.90460431 -10.16486192 173.18686365 -10.16937697 172.44737327 C-10.18275923 170.03612054 -10.18894247 167.62490436 -10.19506836 165.21362305 C-10.20296961 163.48732335 -10.21123858 161.76102531 -10.21984863 160.034729 C-10.24606021 154.36114071 -10.26137273 148.68754505 -10.27563477 143.01391602 C-10.28099429 141.06165436 -10.2863718 139.10939275 -10.29176712 137.1571312 C-10.31339218 129.03846692 -10.33213038 120.91980463 -10.34338951 112.80111885 C-10.35963981 101.15969914 -10.39284804 89.5186126 -10.44979036 77.8773185 C-10.48845366 69.69465727 -10.50801776 61.51208529 -10.51331007 53.32933509 C-10.51696772 48.44025216 -10.52903322 43.55152465 -10.56141281 38.66254044 C-10.59143095 34.06433402 -10.59782777 29.46669926 -10.58602905 24.86841583 C-10.58580781 23.18053179 -10.59415475 21.49262169 -10.61168289 19.80482864 C-10.63431249 17.50047076 -10.6261111 15.19819694 -10.61019897 12.89382935 C-10.61350912 11.60445024 -10.61681927 10.31507114 -10.62022972 8.98661995 C-9.53874283 3.11484576 -5.92213498 0.00672206 0 0 Z M5.99780273 16.63110352 C5.99780273 67.78110352 5.99780273 118.93110352 5.99780273 171.63110352 C14.57780273 171.63110352 23.15780273 171.63110352 31.99780273 171.63110352 C31.99780273 120.48110352 31.99780273 69.33110352 31.99780273 16.63110352 C23.41780273 16.63110352 14.83780273 16.63110352 5.99780273 16.63110352 Z " fill="#5D16EB" transform="translate(332.002197265625,320.368896484375)"/>
<path d="M0 0 C0.94447998 -0.0157608 1.88895996 -0.03152161 2.86206055 -0.04776001 C3.87051025 -0.03763885 4.87895996 -0.0275177 5.91796875 -0.01708984 C6.9644458 -0.02187347 8.01092285 -0.0266571 9.08911133 -0.03158569 C11.29802964 -0.03498283 13.50699836 -0.02579359 15.71582031 -0.00488281 C19.09424085 0.0218837 22.46933889 -0.00463877 25.84765625 -0.03662109 C27.99610107 -0.03331696 30.14454383 -0.02691067 32.29296875 -0.01708984 C33.30141846 -0.027211 34.30986816 -0.03733215 35.34887695 -0.04776001 C36.76559692 -0.0241188 36.76559692 -0.0241188 38.2109375 0 C39.03746826 0.00397797 39.86399902 0.00795593 40.71557617 0.01205444 C44.50621506 1.01910626 45.83474176 2.44607282 48.10546875 5.64697266 C48.84166278 9.32765052 48.78854263 12.94841267 48.75244141 16.69189453 C48.761203 17.80625381 48.7699646 18.9206131 48.7789917 20.06874084 C48.80099417 23.75146444 48.78642844 27.43298689 48.76953125 31.11572266 C48.7728991 33.6749291 48.77775145 36.23413399 48.7840271 38.79333496 C48.79139967 44.15666408 48.7811571 49.5195629 48.75732422 54.8828125 C48.73011379 61.07754428 48.73892856 67.27145322 48.76645625 73.46616507 C48.79190668 79.43296229 48.78917941 85.39950453 48.77454758 91.36634827 C48.77121059 93.90210587 48.77531085 96.43788445 48.78694534 98.97361755 C48.79963496 102.51699563 48.78030012 106.05879071 48.75244141 109.60205078 C48.76256256 110.65155411 48.77268372 111.70105743 48.78311157 112.78236389 C48.71475329 117.47210796 48.63937198 119.89436314 45.87094116 123.79684448 C42.97296812 125.73561688 41.64455784 126.27741982 38.2109375 126.29394531 C37.26645752 126.30970612 36.32197754 126.32546692 35.34887695 126.34170532 C34.34042725 126.33158417 33.33197754 126.32146301 32.29296875 126.31103516 C30.72325317 126.3182106 30.72325317 126.3182106 29.12182617 126.32553101 C26.91290786 126.32892814 24.70393914 126.31973891 22.49511719 126.29882812 C19.11669665 126.27206161 15.74159861 126.29858408 12.36328125 126.33056641 C10.21483643 126.32726228 8.06639367 126.32085598 5.91796875 126.31103516 C4.90951904 126.32115631 3.90106934 126.33127747 2.86206055 126.34170532 C1.91758057 126.32594452 0.97310059 126.31018372 0 126.29394531 C-0.82653076 126.28996735 -1.65306152 126.28598938 -2.50463867 126.28189087 C-6.29527756 125.27483905 -7.62380426 123.84787249 -9.89453125 120.64697266 C-10.63072528 116.96629479 -10.57760513 113.34553265 -10.54150391 109.60205078 C-10.5502655 108.4876915 -10.5590271 107.37333221 -10.5680542 106.22520447 C-10.59005667 102.54248087 -10.57549094 98.86095842 -10.55859375 95.17822266 C-10.5619616 92.61901621 -10.56681395 90.05981132 -10.5730896 87.50061035 C-10.58046217 82.13728123 -10.5702196 76.77438241 -10.54638672 71.41113281 C-10.51917629 65.21640103 -10.52799106 59.0224921 -10.55551875 52.82778025 C-10.58096918 46.86098302 -10.57824191 40.89444079 -10.56361008 34.92759705 C-10.56027309 32.39183945 -10.56437335 29.85606086 -10.57600784 27.32032776 C-10.58869746 23.77694969 -10.56936262 20.2351546 -10.54150391 16.69189453 C-10.55162506 15.6423912 -10.56174622 14.59288788 -10.57217407 13.51158142 C-10.50381579 8.82183735 -10.42843448 6.39958218 -7.66000366 2.49710083 C-4.76203062 0.55832843 -3.43362034 0.01652549 0 0 Z M6.10546875 16.64697266 C6.10546875 47.33697266 6.10546875 78.02697266 6.10546875 109.64697266 C14.68546875 109.64697266 23.26546875 109.64697266 32.10546875 109.64697266 C32.10546875 78.95697266 32.10546875 48.26697266 32.10546875 16.64697266 C23.52546875 16.64697266 14.94546875 16.64697266 6.10546875 16.64697266 Z " fill="#5D16EA" transform="translate(179.89453125,382.35302734375)"/>
<path d="M0 0 C25.19330964 3.55638315 46.6821119 14.92883876 62.12890625 35.2890625 C73.4064395 51.62853656 81.61730529 71.73699129 79 92 C77.19927654 95.12618267 76.48141027 95.83952991 73 97 C70.36448773 97.10131961 67.75534829 97.14684059 65.11962891 97.14526367 C64.31767593 97.14862228 63.51572296 97.1519809 62.68946838 97.15544128 C60.03515072 97.16494957 57.38089614 97.16689437 54.7265625 97.16796875 C52.88194757 97.17118153 51.0373329 97.17454562 49.19271851 97.17805481 C45.32411102 97.18404586 41.45552587 97.18589475 37.58691406 97.18530273 C32.63147991 97.18520114 27.67618913 97.19885059 22.72078896 97.21607494 C18.91007836 97.22719779 15.09940238 97.22922185 11.28867722 97.22869301 C9.46185182 97.2298728 7.63502552 97.23429453 5.80821609 97.24202538 C3.25176223 97.25183048 0.6956191 97.24894512 -1.86083984 97.24291992 C-2.61426163 97.24853943 -3.36768341 97.25415894 -4.14393616 97.25994873 C-8.18544463 97.23576303 -11.43278691 96.97604377 -15 95 C-17.52954924 91.20567614 -17.30271878 88.15055522 -17.30639648 83.75244141 C-17.31472 82.91147415 -17.32304352 82.0705069 -17.33161926 81.20405579 C-17.3557442 78.41984447 -17.36449435 75.6358673 -17.37109375 72.8515625 C-17.38005811 70.91726612 -17.38917992 68.98297046 -17.39845276 67.04867554 C-17.41495203 62.9917431 -17.42264459 58.93489328 -17.42553711 54.87792969 C-17.43092221 49.68008599 -17.46860351 44.48301897 -17.51428127 39.28539467 C-17.54402768 35.28936937 -17.55126014 31.29353165 -17.55226326 27.29740524 C-17.55647029 25.3812339 -17.5689239 23.46506224 -17.58978081 21.54899979 C-17.6166457 18.86753529 -17.61188492 16.18787813 -17.59936523 13.50634766 C-17.61419952 12.71552292 -17.62903381 11.92469818 -17.64431763 11.10990906 C-17.59046663 7.05841989 -17.17437797 5.21978817 -14.62416077 2.00546265 C-10.03153029 -1.5043638 -5.53414131 -0.57228052 0 0 Z M-1 17 C-1 38.12 -1 59.24 -1 81 C20.12 81 41.24 81 63 81 C58.08388906 58.05814894 49.38560554 40.21464242 29.4765625 27.04296875 C20.25182232 21.42893557 9.88231429 17 -1 17 Z " fill="#5D16EA" transform="translate(524,127)"/>
<path d="M0 0 C0.98782471 -0.01253311 1.97564941 -0.02506622 2.9934082 -0.03797913 C4.05390381 -0.02472092 5.11439941 -0.01146271 6.20703125 0.00219727 C7.30168701 -0.00021469 8.39634277 -0.00262665 9.52416992 -0.00511169 C11.83743921 -0.00413265 14.15073176 0.00927444 16.46386719 0.03417969 C20.00666823 0.06847898 23.54697465 0.05484236 27.08984375 0.03540039 C29.33725021 0.04229888 31.58465023 0.05197129 33.83203125 0.06469727 C34.89252686 0.0597374 35.95302246 0.05477753 37.0456543 0.04966736 C38.033479 0.06550369 39.02130371 0.08134003 40.0390625 0.09765625 C41.34000854 0.10695412 41.34000854 0.10695412 42.66723633 0.11643982 C45.99288611 0.84406593 47.08096055 1.82779668 49.01953125 4.63110352 C49.4192324 7.54885434 49.57699281 10.09048644 49.55297852 13.00805664 C49.56590187 14.272136 49.56590187 14.272136 49.5790863 15.56175232 C49.60177748 18.34559903 49.59500221 21.12844174 49.5859375 23.91235352 C49.59117146 25.84761861 49.59744709 27.78288115 49.60472107 29.71813965 C49.61513091 33.77339688 49.61055506 37.82830334 49.59594727 41.88354492 C49.57875289 47.08265664 49.60225969 52.28066393 49.63743687 57.4796524 C49.65938664 61.47568091 49.65797536 65.47144411 49.64967155 69.46751404 C49.64885081 71.38448804 49.65573759 73.30148128 49.67044258 75.21839905 C49.68784539 77.89767572 49.67338309 80.57495449 49.65063477 83.25415039 C49.66232697 84.04699936 49.67401917 84.83984833 49.68606567 85.65672302 C49.62053283 89.4463366 49.35316461 91.2591282 46.78599548 94.12132263 C43.92047913 95.6851606 42.35214166 96.14034879 39.125 96.16455078 C38.18052002 96.18038712 37.23604004 96.19622345 36.26293945 96.21253967 C35.25448975 96.2075798 34.24604004 96.20261993 33.20703125 96.19750977 C32.1605542 96.20370834 31.11407715 96.20990692 30.03588867 96.21629333 C27.82699513 96.22338606 25.61804807 96.22022712 23.40917969 96.20751953 C20.03090046 96.19365019 16.6553893 96.22773944 13.27734375 96.26586914 C11.12890557 96.26682033 8.98046393 96.26496155 6.83203125 96.26000977 C5.82358154 96.27326797 4.81513184 96.28652618 3.77612305 96.30018616 C2.35940308 96.28138649 2.35940308 96.28138649 0.9140625 96.26220703 C0.08753174 96.26124527 -0.73899902 96.26028351 -1.59057617 96.2592926 C-5.26955113 95.29226507 -6.71606167 93.6510194 -8.98046875 90.63110352 C-9.47029922 87.67229854 -9.65646338 85.29251977 -9.61157227 82.34008789 C-9.61872757 81.51833572 -9.62588287 80.69658356 -9.633255 79.84992981 C-9.65012608 77.14100079 -9.63074966 74.43373048 -9.609375 71.72485352 C-9.61020385 69.83825544 -9.61266383 67.95165745 -9.61668396 66.06506348 C-9.61954087 62.1140363 -9.60485129 58.16357634 -9.57739258 54.21264648 C-9.54330996 49.15163277 -9.54932901 44.09163324 -9.56805515 39.03057098 C-9.57863065 35.13571745 -9.56968233 31.24109935 -9.55467033 27.3462677 C-9.5494921 25.48037923 -9.54996598 23.61446613 -9.55621529 21.74858093 C-9.56167417 19.13922376 -9.54127181 16.53131159 -9.51391602 13.92211914 C-9.52044189 13.15313797 -9.52696777 12.3841568 -9.53369141 11.59187317 C-9.46999581 8.01350167 -9.0615134 5.77129093 -7.25840759 2.65235901 C-4.59214111 0.28653352 -3.51519447 0.00389806 0 0 Z M7.01953125 16.63110352 C7.01953125 37.42110352 7.01953125 58.21110352 7.01953125 79.63110352 C15.59953125 79.63110352 24.17953125 79.63110352 33.01953125 79.63110352 C33.01953125 58.84110352 33.01953125 38.05110352 33.01953125 16.63110352 C24.43953125 16.63110352 15.85953125 16.63110352 7.01953125 16.63110352 Z " fill="#5D16EA" transform="translate(254.98046875,412.368896484375)"/>
<path d="M0 0 C1.48173706 -0.0237545 1.48173706 -0.0237545 2.9934082 -0.04798889 C4.58415161 -0.04054909 4.58415161 -0.04054909 6.20703125 -0.03295898 C7.84901489 -0.04225685 7.84901489 -0.04225685 9.52416992 -0.05174255 C11.83739329 -0.05884307 14.15066775 -0.05566275 16.46386719 -0.04296875 C20.00681372 -0.02910251 23.54712031 -0.06317428 27.08984375 -0.10131836 C29.33724023 -0.10226953 31.58464002 -0.10041087 33.83203125 -0.09545898 C34.89252686 -0.10871719 35.95302246 -0.1219754 37.0456543 -0.13563538 C38.033479 -0.12310226 39.02130371 -0.11056915 40.0390625 -0.09765625 C41.34000854 -0.09621361 41.34000854 -0.09621361 42.66723633 -0.09474182 C46.15642462 0.83705886 47.18337983 2.4858202 49.01953125 5.53344727 C49.53419495 8.53076172 49.53419495 8.53076172 49.55297852 11.89672852 C49.56881485 13.16154053 49.58465118 14.42635254 49.60096741 15.72949219 C49.59712596 17.10164765 49.59208693 18.47380021 49.5859375 19.84594727 C49.59117588 21.2617229 49.59745315 22.67749504 49.60472107 24.09326172 C49.61511226 27.05558739 49.61058241 30.01743231 49.59594727 32.97973633 C49.5787522 36.76977217 49.60226742 40.55829295 49.63743687 44.34815979 C49.65943102 47.27024313 49.65796492 50.19196494 49.64967155 53.11410522 C49.64885327 54.51111514 49.65569326 55.90815193 49.67044258 57.30508423 C49.68792222 59.2600445 49.67000643 61.21522358 49.65063477 63.17016602 C49.649673 64.28093506 49.64871124 65.3917041 49.64772034 66.53613281 C48.80561237 70.55413061 47.23147126 72.04567879 44.01953125 74.53344727 C41.62963867 75.16836548 41.62963867 75.16836548 39.125 75.18041992 C38.18052002 75.19618073 37.23604004 75.21194153 36.26293945 75.22817993 C35.25448975 75.21805878 34.24604004 75.20793762 33.20703125 75.19750977 C31.63731567 75.20468521 31.63731567 75.20468521 30.03588867 75.21200562 C27.82697036 75.21540275 25.61800164 75.20621352 23.40917969 75.18530273 C20.03075915 75.15853622 16.65566111 75.18505869 13.27734375 75.21704102 C11.12889893 75.21373689 8.98045617 75.20733059 6.83203125 75.19750977 C5.82358154 75.20763092 4.81513184 75.21775208 3.77612305 75.22817993 C2.83164307 75.21241913 1.88716309 75.19665833 0.9140625 75.18041992 C0.08753174 75.17644196 -0.73899902 75.17246399 -1.59057617 75.16836548 C-5.19752212 74.21011501 -6.71177265 72.44253076 -8.98046875 69.53344727 C-9.60865784 66.49143982 -9.60865784 66.49143982 -9.61157227 63.0625 C-9.62410538 61.77443954 -9.63663849 60.48637909 -9.64955139 59.1592865 C-9.637284 57.76186101 -9.62386412 56.36444523 -9.609375 54.96704102 C-9.61020416 53.52645183 -9.61266532 52.08586275 -9.61668396 50.64527893 C-9.61953776 47.63155516 -9.60488158 44.61857634 -9.57739258 41.60498047 C-9.54327829 37.74548363 -9.54934128 33.88731562 -9.56805515 30.02775478 C-9.57863117 27.05508885 -9.56968269 24.08273134 -9.55467033 21.11009407 C-9.54949444 19.68716409 -9.54996317 18.26420183 -9.55621529 16.84127617 C-9.56167483 14.85247496 -9.53842597 12.86365767 -9.51391602 10.875 C-9.50771744 9.74424545 -9.50151886 8.61349091 -9.49513245 7.44847107 C-8.51235099 1.88205679 -5.41546426 0.03870435 0 0 Z M7.01953125 16.53344727 C7.01953125 30.39344727 7.01953125 44.25344727 7.01953125 58.53344727 C15.59953125 58.53344727 24.17953125 58.53344727 33.01953125 58.53344727 C33.01953125 44.67344727 33.01953125 30.81344727 33.01953125 16.53344727 C24.43953125 16.53344727 15.85953125 16.53344727 7.01953125 16.53344727 Z " fill="#5D16EA" transform="translate(102.98046875,433.466552734375)"/>
<path d="M0 0 C0.65002912 -0.00467997 1.30005824 -0.00935994 1.96978521 -0.01418173 C4.14010076 -0.02611349 6.30978271 -0.01668219 8.48010254 -0.00723267 C10.03921374 -0.0112992 11.59832206 -0.01664154 13.15742493 -0.02316284 C17.38674048 -0.03683262 21.61583635 -0.03153923 25.84515572 -0.02202559 C30.27242752 -0.01442724 34.69968058 -0.02147509 39.12695312 -0.02618408 C46.56159846 -0.03164112 53.99615437 -0.02445138 61.43078613 -0.01016235 C70.02469915 0.00616408 78.61839865 0.00087553 87.2123065 -0.01564157 C94.59248542 -0.02925791 101.97260007 -0.03117538 109.35278749 -0.02332556 C113.75994142 -0.01864986 118.16699499 -0.01802137 122.57414246 -0.02793503 C126.7176023 -0.03660457 130.86078701 -0.03058311 135.00421715 -0.01325226 C136.52437063 -0.00928734 138.0445473 -0.01042158 139.56469154 -0.01704025 C141.64085182 -0.02524601 143.71613203 -0.01494719 145.79223633 0 C147.53436275 0.00169662 147.53436275 0.00169662 149.31168365 0.00342751 C152.76825555 0.42649917 154.63771832 1.28294375 157.39611816 3.38095093 C159.03118373 6.65108206 159.58585955 8.47440876 158.83361816 12.06845093 C157.01989733 14.98617575 155.47836287 15.87427179 152.39611816 17.38095093 C149.31447697 17.76126766 149.31447697 17.76126766 145.79896545 17.76863098 C145.1496419 17.77401652 144.50031834 17.77940206 143.83131832 17.78495079 C141.66335171 17.79921733 139.49599683 17.79213031 137.32800293 17.78500366 C135.770513 17.79070795 134.21302726 17.79767243 132.6555481 17.80580139 C128.43030915 17.8237417 124.20527778 17.82256279 119.98001218 17.81685901 C116.45114552 17.81376837 112.9223188 17.81985822 109.39345783 17.82589775 C101.06773203 17.83994426 92.74210883 17.83838068 84.41638184 17.82699585 C75.8303963 17.81551449 67.24472311 17.82959022 58.65877873 17.85639232 C51.28367589 17.87855169 43.90867109 17.88518618 36.53353733 17.87931591 C32.13022345 17.87594568 27.72710979 17.8783657 23.32382393 17.89556694 C19.18276463 17.91103782 15.0421679 17.90707923 10.90112686 17.8882618 C9.38300222 17.88457627 7.86484331 17.88768341 6.34675026 17.89814758 C4.27071986 17.91136302 2.19621969 17.89980809 0.12025452 17.88215637 C-1.04024131 17.88194709 -2.20073713 17.8817378 -3.3963995 17.88152218 C-7.3304903 17.26755379 -9.51975423 15.85668658 -12.60388184 13.38095093 C-13.82877989 10.39526193 -13.72281091 8.88045303 -12.97888184 5.75595093 C-9.97749838 0.57174314 -5.63038635 0.0054833 0 0 Z " fill="#5E16EA" transform="translate(182.6038818359375,230.61904907226563)"/>
<path d="M0 0 C0.65002912 -0.00467997 1.30005824 -0.00935994 1.96978521 -0.01418173 C4.14010076 -0.02611349 6.30978271 -0.01668219 8.48010254 -0.00723267 C10.03921374 -0.0112992 11.59832206 -0.01664154 13.15742493 -0.02316284 C17.38674048 -0.03683262 21.61583635 -0.03153923 25.84515572 -0.02202559 C30.27242752 -0.01442724 34.69968058 -0.02147509 39.12695312 -0.02618408 C46.56159846 -0.03164112 53.99615437 -0.02445138 61.43078613 -0.01016235 C70.02469915 0.00616408 78.61839865 0.00087553 87.2123065 -0.01564157 C94.59248542 -0.02925791 101.97260007 -0.03117538 109.35278749 -0.02332556 C113.75994142 -0.01864986 118.16699499 -0.01802137 122.57414246 -0.02793503 C126.7176023 -0.03660457 130.86078701 -0.03058311 135.00421715 -0.01325226 C136.52437063 -0.00928734 138.0445473 -0.01042158 139.56469154 -0.01704025 C141.64085182 -0.02524601 143.71613203 -0.01494719 145.79223633 0 C147.53436275 0.00169662 147.53436275 0.00169662 149.31168365 0.00342751 C152.76825555 0.42649917 154.63771832 1.28294375 157.39611816 3.38095093 C159.03118373 6.65108206 159.58585955 8.47440876 158.83361816 12.06845093 C157.01989733 14.98617575 155.47836287 15.87427179 152.39611816 17.38095093 C149.31447697 17.76126766 149.31447697 17.76126766 145.79896545 17.76863098 C145.1496419 17.77401652 144.50031834 17.77940206 143.83131832 17.78495079 C141.66335171 17.79921733 139.49599683 17.79213031 137.32800293 17.78500366 C135.770513 17.79070795 134.21302726 17.79767243 132.6555481 17.80580139 C128.43030915 17.8237417 124.20527778 17.82256279 119.98001218 17.81685901 C116.45114552 17.81376837 112.9223188 17.81985822 109.39345783 17.82589775 C101.06773203 17.83994426 92.74210883 17.83838068 84.41638184 17.82699585 C75.8303963 17.81551449 67.24472311 17.82959022 58.65877873 17.85639232 C51.28367589 17.87855169 43.90867109 17.88518618 36.53353733 17.87931591 C32.13022345 17.87594568 27.72710979 17.8783657 23.32382393 17.89556694 C19.18276463 17.91103782 15.0421679 17.90707923 10.90112686 17.8882618 C9.38300222 17.88457627 7.86484331 17.88768341 6.34675026 17.89814758 C4.27071986 17.91136302 2.19621969 17.89980809 0.12025452 17.88215637 C-1.04024131 17.88194709 -2.20073713 17.8817378 -3.3963995 17.88152218 C-7.3304903 17.26755379 -9.51975423 15.85668658 -12.60388184 13.38095093 C-13.82877989 10.39526193 -13.72281091 8.88045303 -12.97888184 5.75595093 C-9.97749838 0.57174314 -5.63038635 0.0054833 0 0 Z " fill="#5E16EA" transform="translate(182.6038818359375,152.61904907226563)"/>
<path d="M0 0 C0.67044688 -0.00779995 1.34089376 -0.01559991 2.03165722 -0.02363622 C4.27142472 -0.0435322 6.50948841 -0.02780354 8.74926758 -0.01205444 C10.35764557 -0.01883173 11.9660158 -0.02773548 13.57437134 -0.03860474 C17.93810184 -0.06139184 22.30124105 -0.05256439 26.66498184 -0.03670931 C31.2323999 -0.02404719 35.79976745 -0.03579129 40.3671875 -0.04364014 C48.03728319 -0.0527358 55.70713813 -0.04075101 63.37719727 -0.01693726 C72.24389152 0.01027393 81.11001092 0.00145971 89.97669125 -0.02606928 C97.59044533 -0.04876176 105.2040264 -0.05195978 112.81780338 -0.03887594 C117.36474594 -0.03108216 121.91141832 -0.03003773 126.45834351 -0.04655838 C130.73329949 -0.061006 135.00751462 -0.05097667 139.28239059 -0.0220871 C140.85091293 -0.01547776 142.41949766 -0.01737147 143.98799515 -0.02840042 C146.13036976 -0.04207535 148.27037399 -0.02492255 150.41259766 0 C151.61088699 0.00188513 152.80917633 0.00377026 154.04377747 0.00571251 C158.15016233 0.82270645 159.64806261 2.38283647 162.20629883 5.63491821 C162.76879883 9.19741821 162.76879883 9.19741821 162.20629883 12.63491821 C160.00667794 15.61158333 158.82036976 16.53379029 155.13279724 17.14107609 C153.9175386 17.14388301 152.70227997 17.14668993 151.45019531 17.14958191 C150.77173018 17.15652744 150.09326506 17.16347297 149.39424038 17.17062896 C147.12162304 17.1889204 144.8500471 17.17862966 142.57739258 17.16836548 C140.9478375 17.17542288 139.31828899 17.18416714 137.68875122 17.19447327 C133.26313362 17.21699605 128.83787313 17.21402106 124.41222 17.2051518 C120.71917378 17.20004617 117.02619492 17.20733091 113.33315563 17.21462387 C104.622516 17.23163169 95.91205153 17.22804774 87.20141602 17.21133423 C78.21033943 17.19440592 69.21974808 17.21025508 60.22872448 17.24255711 C52.5122604 17.26923134 44.79594758 17.27653507 37.07944202 17.26804203 C32.46934553 17.26310719 27.85954116 17.26535854 23.2494812 17.28582954 C18.91547353 17.30415318 14.58216546 17.2982692 10.24819565 17.27363014 C8.65666938 17.26861189 7.0650901 17.27213832 5.47360611 17.28477859 C3.30239551 17.30066064 1.13350259 17.28580946 -1.03759766 17.2631073 C-2.25285629 17.26252099 -3.46811493 17.26193468 -4.72019958 17.2613306 C-7.79370117 16.63491821 -7.79370117 16.63491821 -10.18080139 14.28315639 C-12.17827004 11.0034903 -12.50155505 9.41013889 -11.79370117 5.63491821 C-8.12822145 1.03634338 -5.82555797 0.00916467 0 0 Z " fill="#5D16EA" transform="translate(432.793701171875,349.3650817871094)"/>
<path d="M0 0 C0.67846513 -0.00779995 1.35693026 -0.01559991 2.05595493 -0.02363622 C4.32879037 -0.04357623 6.59995498 -0.02778612 8.87280273 -0.01205444 C10.5023598 -0.01882976 12.13190921 -0.02773242 13.76144409 -0.03860474 C18.18714515 -0.06141517 22.61226397 -0.05255474 27.03797531 -0.03670931 C31.66726004 -0.02405927 36.29649458 -0.03578792 40.92578125 -0.04364014 C48.70020508 -0.05273933 56.4743915 -0.04074176 64.2487793 -0.01693726 C73.23987001 0.0102746 82.23039386 0.00146062 91.22147083 -0.02606928 C98.93794772 -0.04875172 106.65425384 -0.0519647 114.37075329 -0.03887594 C118.98083477 -0.03107663 123.59064971 -0.0300529 128.20071411 -0.04655838 C132.53474618 -0.06099139 136.86804672 -0.0510034 141.20199966 -0.0220871 C142.79351715 -0.01546994 144.38509609 -0.01738479 145.9765892 -0.02840042 C148.14782423 -0.04204438 150.31670827 -0.02495981 152.48779297 0 C153.70305161 0.00188513 154.91831024 0.00377026 156.1703949 0.00571251 C159.24389648 0.63491821 159.24389648 0.63491821 161.6309967 2.9871006 C163.62862874 6.26651408 163.95172508 7.85983236 163.24389648 11.63491821 C160.67514698 14.85757601 159.17506201 16.44965633 155.08137512 17.26412392 C153.88308578 17.26600904 152.68479645 17.26789417 151.45019531 17.26983643 C150.77974843 17.27763638 150.10930155 17.28543633 149.41853809 17.29347265 C147.17877059 17.31336862 144.9407069 17.29763997 142.70092773 17.28189087 C141.09254974 17.28866815 139.48417952 17.29757191 137.87582397 17.30844116 C133.51209347 17.33122826 129.14895426 17.32240081 124.78521347 17.30654573 C120.21779542 17.29388361 115.65042786 17.30562771 111.08300781 17.31347656 C103.41291212 17.32257223 95.74305718 17.31058744 88.07299805 17.28677368 C79.20630379 17.25956249 70.34018439 17.26837672 61.47350407 17.29590571 C53.85974998 17.31859819 46.24616891 17.3217962 38.63239193 17.30871236 C34.08544937 17.30091859 29.53877699 17.29987415 24.99185181 17.31639481 C20.71689582 17.33084242 16.44268069 17.32081309 12.16780472 17.29192352 C10.59928238 17.28531418 9.03069765 17.28720789 7.46220016 17.29823685 C5.31982555 17.31191177 3.17982133 17.29475897 1.03759766 17.26983643 C-0.16069168 17.2679513 -1.35898102 17.26606617 -2.59358215 17.26412392 C-6.68726904 16.44965633 -8.18735401 14.85757601 -10.75610352 11.63491821 C-11.46393211 7.85983236 -11.14083577 6.26651408 -9.14320374 2.9871006 C-5.99617273 -0.11389652 -4.37073129 0.00677995 0 0 Z " fill="#5D16EA" transform="translate(431.756103515625,392.3650817871094)"/>
<path d="M0 0 C0.67846513 -0.00709439 1.35693026 -0.01418877 2.05595493 -0.02149814 C4.32881428 -0.03909715 6.59996765 -0.02096629 8.87280273 -0.00291443 C10.50235778 -0.00805259 12.13190728 -0.01533309 13.76144409 -0.02459717 C18.18716327 -0.04313283 22.61228106 -0.0301592 27.03797531 -0.01050687 C31.66725124 0.0058632 36.29648858 -0.00293097 40.92578125 -0.00802612 C48.7002118 -0.01254893 56.47440191 0.00333427 64.2487793 0.03126526 C73.23981078 0.06331805 82.23040855 0.06330207 91.22147083 0.04605049 C99.86701209 0.03019223 108.51239418 0.03691443 117.15792847 0.0539875 C120.83890005 0.06086401 124.51974429 0.05981942 128.20071411 0.05244255 C132.53466878 0.04478701 136.86812929 0.05688159 141.20199966 0.08429146 C142.79351459 0.09118411 144.38507559 0.09126382 145.9765892 0.08407593 C148.14754377 0.07540015 150.31696664 0.09130238 152.48779297 0.11352539 C154.31068092 0.11773577 154.31068092 0.11773577 156.1703949 0.12203121 C159.85766371 0.729267 161.05288957 1.64341706 163.24389648 4.62818909 C163.71308331 8.3816837 163.77526029 10.66667362 161.93139648 14.00318909 C158.64622968 17.16668305 155.0910923 16.75777896 150.76663208 16.76863098 C149.77577569 16.77308766 149.77577569 16.77308766 148.764902 16.77763438 C146.54711264 16.78631954 144.32937728 16.78782946 142.11157227 16.7893219 C140.52320236 16.79395016 138.93483356 16.79897483 137.34646606 16.80436707 C133.02826431 16.81749129 128.71007811 16.82393593 124.39185953 16.82837772 C121.69472831 16.83130809 118.99760134 16.83541281 116.30047226 16.8398819 C107.86375006 16.85355618 99.42703758 16.86322348 90.99030507 16.86708379 C81.24743674 16.87156612 71.5047086 16.88912241 61.7618829 16.91808438 C54.23314123 16.93968886 46.70443904 16.94978739 39.17566669 16.95112491 C34.67791983 16.95217372 30.18030475 16.95809776 25.68259048 16.97594452 C21.45218633 16.99240415 17.22201333 16.99459103 12.99158859 16.98580551 C11.43917472 16.98503403 9.88674852 16.98939245 8.33436584 16.99926376 C6.21434389 17.01195377 4.09514433 17.00612336 1.97512817 16.99568176 C0.19592074 16.9978816 0.19592074 16.9978816 -1.61923027 17.00012589 C-5.09020907 16.58857443 -6.97417278 15.70903014 -9.75610352 13.62818909 C-11.1827257 10.77494471 -11.06644219 8.7936436 -10.75610352 5.62818909 C-7.77582985 0.66511092 -5.68175362 0.0027412 0 0 Z " fill="#5E16EA" transform="translate(431.756103515625,478.37181091308594)"/>
<path d="M0 0 C0.67846513 -0.00779995 1.35693026 -0.01559991 2.05595493 -0.02363622 C4.32879037 -0.04357623 6.59995498 -0.02778612 8.87280273 -0.01205444 C10.5023598 -0.01882976 12.13190921 -0.02773242 13.76144409 -0.03860474 C18.18714515 -0.06141517 22.61226397 -0.05255474 27.03797531 -0.03670931 C31.66726004 -0.02405927 36.29649458 -0.03578792 40.92578125 -0.04364014 C48.70020508 -0.05273933 56.4743915 -0.04074176 64.2487793 -0.01693726 C73.23987001 0.0102746 82.23039386 0.00146062 91.22147083 -0.02606928 C98.93794772 -0.04875172 106.65425384 -0.0519647 114.37075329 -0.03887594 C118.98083477 -0.03107663 123.59064971 -0.0300529 128.20071411 -0.04655838 C132.53474618 -0.06099139 136.86804672 -0.0510034 141.20199966 -0.0220871 C142.79351715 -0.01546994 144.38509609 -0.01738479 145.9765892 -0.02840042 C148.14782423 -0.04204438 150.31670827 -0.02495981 152.48779297 0 C153.70305161 0.00188513 154.91831024 0.00377026 156.1703949 0.00571251 C159.24389648 0.63491821 159.24389648 0.63491821 161.6388092 2.98319435 C163.5926916 6.21115375 163.79703988 7.92095538 163.24389648 11.63491821 C161.46405244 14.77083391 160.72081442 15.47594557 157.24389648 16.63491821 C155.08653803 16.73319136 152.92622087 16.76994073 150.76663208 16.77536011 C149.77577569 16.77981679 149.77577569 16.77981679 148.764902 16.78436351 C146.54711264 16.79304866 144.32937728 16.79455859 142.11157227 16.79605103 C140.52320236 16.80067929 138.93483356 16.80570396 137.34646606 16.81109619 C133.02826431 16.82422042 128.71007811 16.83066506 124.39185953 16.83510685 C121.69472831 16.83803722 118.99760134 16.84214193 116.30047226 16.84661102 C107.86375006 16.8602853 99.42703758 16.8699526 90.99030507 16.87381291 C81.24743674 16.87829525 71.5047086 16.89585154 61.7618829 16.92481351 C54.23314123 16.94641798 46.70443904 16.95651651 39.17566669 16.95785403 C34.67791983 16.95890284 30.18030475 16.96482688 25.68259048 16.98267365 C21.45218633 16.99913327 17.22201333 17.00132016 12.99158859 16.99253464 C11.43917472 16.99176316 9.88674852 16.99612158 8.33436584 17.00599289 C6.21434389 17.0186829 4.09514433 17.01285249 1.97512817 17.00241089 C0.19592074 17.00461073 0.19592074 17.00461073 -1.61923027 17.00685501 C-5.09020907 16.59530356 -6.97417278 15.71575926 -9.75610352 13.63491821 C-11.1827257 10.78167384 -11.06644219 8.80037272 -10.75610352 5.63491821 C-7.77618365 0.67321385 -5.68052807 0.00881172 0 0 Z " fill="#5D16EA" transform="translate(431.756103515625,435.3650817871094)"/>
<path d="M0 0 C1.3738144 0.73524511 2.72990478 1.5049473 4.0625 2.3125 C4.68640625 2.65152344 5.3103125 2.99054688 5.953125 3.33984375 C12.45016804 7.30868961 16.39942868 14.21161077 18.4375 21.4375 C19.6950268 29.23416617 19.51710782 36.09910506 16.0625 43.3125 C10.23751007 51.26189802 3.9472274 57.39932695 -5.9375 59.3125 C-15.07418383 60.16542947 -22.62678748 59.10717867 -30.1953125 53.69921875 C-37.02814952 48.01359237 -41.41939119 41.78878965 -42.2734375 32.76171875 C-42.38764447 21.76358722 -40.74958121 14.28259771 -33.09765625 6.17578125 C-23.75876319 -1.87964731 -11.65438259 -4.81635199 0 0 Z M-23.25 19.875 C-26.34306343 24.34275829 -26.59564288 27.95720043 -25.9375 33.3125 C-23.93608387 37.17237396 -21.8430175 40.30696399 -17.9375 42.3125 C-13.51920398 43.40229003 -10.04365973 43.67412914 -5.6875 42.25 C-1.22259583 39.10427206 1.5203225 36.17623516 3.0625 30.875 C3.0625 25.61689178 1.487153 22.01289229 -1.875 18 C-8.94985005 12.21148633 -17.06941118 13.02623942 -23.25 19.875 Z " fill="#5D16EA" transform="translate(131.9375,230.6875)"/>
<path d="M0 0 C1.3738144 0.73524511 2.72990478 1.5049473 4.0625 2.3125 C4.68640625 2.65152344 5.3103125 2.99054688 5.953125 3.33984375 C12.45016804 7.30868961 16.39942868 14.21161077 18.4375 21.4375 C19.6950268 29.23416617 19.51710782 36.09910506 16.0625 43.3125 C10.23751007 51.26189802 3.9472274 57.39932695 -5.9375 59.3125 C-15.07418383 60.16542947 -22.62678748 59.10717867 -30.1953125 53.69921875 C-37.02814952 48.01359237 -41.41939119 41.78878965 -42.2734375 32.76171875 C-42.38764447 21.76358722 -40.74958121 14.28259771 -33.09765625 6.17578125 C-23.75876319 -1.87964731 -11.65438259 -4.81635199 0 0 Z M-23.25 19.875 C-26.34306343 24.34275829 -26.59564288 27.95720043 -25.9375 33.3125 C-23.93608387 37.17237396 -21.8430175 40.30696399 -17.9375 42.3125 C-13.51920398 43.40229003 -10.04365973 43.67412914 -5.6875 42.25 C-1.22259583 39.10427206 1.5203225 36.17623516 3.0625 30.875 C3.0625 25.61689178 1.487153 22.01289229 -1.875 18 C-8.94985005 12.21148633 -17.06941118 13.02623942 -23.25 19.875 Z " fill="#5D16EA" transform="translate(131.9375,152.6875)"/>
<path d="M0 0 C1.67153893 -0.00788544 1.67153893 -0.00788544 3.37684631 -0.01593018 C7.05931628 -0.02913075 10.74135377 -0.0203915 14.42382812 -0.01025391 C16.98303307 -0.01227461 19.54223746 -0.01518603 22.10144043 -0.01895142 C27.46466079 -0.02337487 32.82772624 -0.01722926 38.19091797 -0.00292969 C44.38546997 0.0133961 50.57972571 0.00810726 56.77427053 -0.0084089 C62.74102329 -0.02367905 68.70768424 -0.02204269 74.67445374 -0.0132637 C77.21021059 -0.01126151 79.74597499 -0.01372163 82.28172302 -0.02070236 C85.82473825 -0.02831535 89.3671835 -0.01671387 92.91015625 0 C93.95965958 -0.00607269 95.0091629 -0.01214539 96.09046936 -0.0184021 C104.98396054 0.05937746 104.98396054 0.05937746 108.95507812 3.38818359 C110.916462 5.97364415 110.96806076 7.17613385 110.76757812 10.45068359 C109.90914513 13.55424903 109.45569723 14.47836838 106.95507812 16.38818359 C104.72302341 16.76570702 104.72302341 16.76570702 102.06556702 16.76913452 C101.05752518 16.77759399 100.04948334 16.78605347 99.01089478 16.79476929 C97.90587616 16.78869659 96.80085754 16.7826239 95.66235352 16.77636719 C94.49791214 16.78162415 93.33347076 16.7868811 92.13374329 16.79229736 C88.2732717 16.80553272 84.41321037 16.79674584 80.55273438 16.78662109 C77.87616968 16.78864094 75.19961758 16.79154682 72.52305603 16.7953186 C66.90831028 16.80077817 61.29368287 16.79358015 55.67895508 16.77929688 C49.18905012 16.7629778 42.69942801 16.76825246 36.20952994 16.78477609 C30.63745392 16.79839481 25.06546301 16.80030853 19.49337572 16.79246008 C16.1654664 16.78778461 12.83771904 16.78833392 9.50981331 16.79706955 C5.7987457 16.8046718 2.08822412 16.79309572 -1.62280273 16.77636719 C-2.72579712 16.78243988 -3.8287915 16.78851257 -4.96520996 16.79476929 C-5.97607162 16.78630981 -6.98693329 16.77785034 -8.02842712 16.76913452 C-8.90576476 16.76800344 -9.7831024 16.76687237 -10.68702602 16.76570702 C-13.56170886 16.30544067 -14.93123514 15.36040989 -17.04492188 13.38818359 C-18.12673656 10.45182944 -18.14474867 8.80745612 -17.41992188 5.76318359 C-13.55129715 -0.91898639 -6.83786501 -0.03956562 0 0 Z " fill="#5E16EA" transform="translate(187.044921875,270.61181640625)"/>
<path d="M0 0 C1.67153893 -0.00788544 1.67153893 -0.00788544 3.37684631 -0.01593018 C7.05931628 -0.02913075 10.74135377 -0.0203915 14.42382812 -0.01025391 C16.98303307 -0.01227461 19.54223746 -0.01518603 22.10144043 -0.01895142 C27.46466079 -0.02337487 32.82772624 -0.01722926 38.19091797 -0.00292969 C44.38546997 0.0133961 50.57972571 0.00810726 56.77427053 -0.0084089 C62.74102329 -0.02367905 68.70768424 -0.02204269 74.67445374 -0.0132637 C77.21021059 -0.01126151 79.74597499 -0.01372163 82.28172302 -0.02070236 C85.82473825 -0.02831535 89.3671835 -0.01671387 92.91015625 0 C93.95965958 -0.00607269 95.0091629 -0.01214539 96.09046936 -0.0184021 C104.99380112 0.05946353 104.99380112 0.05946353 108.95507812 3.38818359 C110.70201805 5.7703744 110.97784086 6.93292892 110.83007812 9.88818359 C109.74718028 12.98217742 108.46830611 14.29889099 105.95507812 16.38818359 C103.61559296 16.89154816 103.61559296 16.89154816 100.98327637 16.89611816 C99.98227402 16.90739746 98.98127167 16.91867676 97.94993591 16.93029785 C96.85786331 16.92220093 95.76579071 16.914104 94.640625 16.90576172 C92.90837425 16.91627563 92.90837425 16.91627563 91.14112854 16.92700195 C87.31845148 16.94462725 83.4965129 16.93294225 79.67382812 16.91943359 C77.02110876 16.92212719 74.36841196 16.92600217 71.71569824 16.93103027 C66.15397113 16.93830544 60.59245655 16.92872263 55.03076172 16.90966797 C48.60267527 16.88789918 42.1750963 16.89495066 35.74702215 16.91697359 C30.22586142 16.93513154 24.70485337 16.93768408 19.18367243 16.92721891 C15.88703332 16.92098601 12.59068478 16.92171518 9.29405212 16.93336487 C5.61886073 16.9435015 1.94464947 16.92806789 -1.73046875 16.90576172 C-3.36857765 16.9179071 -3.36857765 16.9179071 -5.03977966 16.93029785 C-6.54128319 16.91337891 -6.54128319 16.91337891 -8.07312012 16.89611816 C-8.94178459 16.89461006 -9.81044907 16.89310196 -10.70543671 16.89154816 C-13.82485378 16.22037313 -15.03026292 14.80185577 -17.04492188 12.38818359 C-18.2250105 9.77513021 -18.10355444 8.6285771 -17.41992188 5.82568359 C-13.60796394 -0.9318782 -6.85619928 -0.03967171 0 0 Z " fill="#5E17EA" transform="translate(187.044921875,192.61181640625)"/>
</svg>
