<?xml version="1.0" encoding="UTF-8"?>
<svg version="1.1" xmlns="http://www.w3.org/2000/svg" width="643" height="643">
<path d="M0 0 C10.53647279 8.29631362 17.64042187 18.83393269 20.0625 32.1875 C21.63033366 46.65631497 18.90231894 60.37482436 10.0625 72.1875 C0.85519393 83.07368146 -10.67046075 89.70135008 -24.9375 91.1875 C-37.66462208 92.14495322 -50.47523524 89.00850419 -60.6015625 81.109375 C-65.45900455 76.89672614 -69.57590713 72.67810168 -72.9375 67.1875 C-72.9375 66.5275 -72.9375 65.8675 -72.9375 65.1875 C-97.80124816 73.07592103 -122.6401337 81.02763946 -147.375 89.3125 C-162.30620979 94.31077539 -177.2413674 99.29509592 -192.20681763 104.19012451 C-194.09086061 104.80691075 -195.97439753 105.42524522 -197.85739136 106.04522705 C-200.44781533 106.89773025 -203.04001816 107.74458167 -205.6328125 108.58984375 C-206.38986984 108.8400679 -207.14692719 109.09029205 -207.92692566 109.34809875 C-211.91592456 110.64055359 -215.76581831 111.61975391 -219.9375 112.1875 C-219.93226318 112.81205078 -219.92702637 113.43660156 -219.92163086 114.08007812 C-219.90065924 116.94920824 -219.88777624 119.81832215 -219.875 122.6875 C-219.86662109 123.66976562 -219.85824219 124.65203125 -219.84960938 125.6640625 C-219.83090876 131.27424757 -220.098621 136.63900899 -220.9375 142.1875 C-220.24229248 142.49751953 -219.54708496 142.80753906 -218.83081055 143.12695312 C-204.0012551 149.74516155 -189.20036959 156.42178742 -174.4375 163.1875 C-150.02097055 174.37441599 -125.4877451 185.29772756 -100.9375 196.1875 C-100.38320313 195.48238281 -99.82890625 194.77726563 -99.2578125 194.05078125 C-84.04696223 175.28048958 -65.74802857 161.66348887 -41.1875 158.4375 C-39.77212268 158.33456347 -38.3552056 158.25074337 -36.9375 158.1875 C-36.24398438 158.1359375 -35.55046875 158.084375 -34.8359375 158.03125 C-13.48382318 157.15075044 6.07266475 164.5950929 22.125 178.4375 C37.7252941 192.95276591 47.34291743 211.96777632 48.30078125 233.4296875 C48.85633297 256.43300074 41.97736453 277.19346907 26.0625 294.1875 C8.98317697 311.16132275 -11.00923416 317.5 -34.55664062 317.5 C-54.42516575 317.23715721 -72.52634486 310.01662142 -86.9375 296.1875 C-89.71599941 293.27162662 -92.3543861 290.27592438 -94.9375 287.1875 C-103.25608304 291.64817418 -111.4282598 296.33913328 -119.5625 301.125 C-120.84439871 301.87760814 -122.1262998 302.63021223 -123.40820312 303.3828125 C-132.45281796 308.69876007 -141.45485661 314.08352139 -150.44140625 319.49707031 C-158.78183857 324.51361075 -167.16439045 329.45588019 -175.5625 334.375 C-176.18455322 334.73948242 -176.80660645 335.10396484 -177.44750977 335.47949219 C-183.59349839 339.0792972 -189.74264431 342.67223731 -195.9375 346.1875 C-195.76734375 346.73535156 -195.5971875 347.28320312 -195.421875 347.84765625 C-188.26826726 371.24908584 -188.26826726 371.24908584 -187.9375 379.1875 C-187.8859375 380.321875 -187.834375 381.45625 -187.78125 382.625 C-186.98426635 409.06104701 -195.72291361 434.40744623 -213.71484375 453.93359375 C-231.87123253 472.71166261 -256.58386227 482.72336193 -282.5625 483.375 C-306.4948438 483.00105713 -327.28955709 475.25145388 -345.9375 460.1875 C-346.56914062 459.72085937 -347.20078125 459.25421875 -347.8515625 458.7734375 C-363.31102668 446.83081825 -372.12687425 427.57304941 -376.9375 409.1875 C-377.18371094 408.28 -377.42992187 407.3725 -377.68359375 406.4375 C-383.16321174 382.2515999 -376.68489308 355.88972157 -364.12353516 335.01464844 C-350.43765318 313.93084015 -328.55113935 300.15416579 -304.54296875 293.94921875 C-279.33593245 288.62378855 -252.81454452 293.51852342 -230.86376953 306.90673828 C-221.53694256 313.10807343 -213.27405037 320.96075712 -206.9375 330.1875 C-199.57349638 326.66370725 -192.59133025 322.68669109 -185.625 318.4375 C-183.41095825 317.09763219 -181.19608015 315.75914563 -178.98046875 314.421875 C-178.12248184 313.90379272 -178.12248184 313.90379272 -177.24716187 313.37524414 C-170.68031602 309.41723921 -164.05881864 305.55340489 -157.4375 301.6875 C-139.81685335 291.39076388 -122.26595671 280.9704164 -104.9375 270.1875 C-105.20304687 269.49785156 -105.46859375 268.80820312 -105.7421875 268.09765625 C-106.09539062 267.15792969 -106.44859375 266.21820313 -106.8125 265.25 C-107.16054688 264.33347656 -107.50859375 263.41695313 -107.8671875 262.47265625 C-110.49848575 254.39629921 -111.29303645 246.92643972 -111.25 238.4375 C-111.24806641 236.85775391 -111.24806641 236.85775391 -111.24609375 235.24609375 C-111.1509499 227.5299272 -110.35576038 220.55743641 -107.9375 213.1875 C-108.7836084 212.92211426 -109.6297168 212.65672852 -110.50146484 212.38330078 C-114.07864578 211.13837878 -117.48542271 209.65128621 -120.9140625 208.0546875 C-121.58382111 207.74621887 -122.25357971 207.43775024 -122.94363403 207.11993408 C-124.3916607 206.45295243 -125.8391008 205.78469616 -127.28601074 205.11529541 C-131.22619097 203.29310203 -135.17136657 201.48181535 -139.1171875 199.671875 C-139.93320435 199.29753326 -140.74922119 198.92319153 -141.58996582 198.5375061 C-149.92355239 194.72258586 -158.3031635 191.01416404 -166.6875 187.3125 C-181.68798233 180.68684159 -196.59029173 173.8594285 -211.46191406 166.94970703 C-212.25974808 166.57942383 -213.05758209 166.20914063 -213.8795929 165.82763672 C-215.36830048 165.13638028 -216.85644935 164.44391873 -218.34391785 163.75 C-221.83936345 162.12629959 -225.34083847 160.57388122 -228.9375 159.1875 C-229.65035156 159.98414063 -230.36320313 160.78078125 -231.09765625 161.6015625 C-234.00629365 164.83281554 -236.96026717 168.01944671 -239.9375 171.1875 C-240.79214844 172.10402344 -240.79214844 172.10402344 -241.6640625 173.0390625 C-252.13820609 183.06511438 -268.1861649 188.01513083 -282.3125 188.5625 C-300.63858904 187.86487436 -317.98934597 181.58638091 -330.9375 168.1875 C-334.31644727 164.09377543 -337.17332524 159.71174428 -339.9375 155.1875 C-340.37964844 154.465625 -340.82179688 153.74375 -341.27734375 153 C-349.44416836 138.20726109 -349.30520351 119.55837861 -344.96875 103.62890625 C-338.82117925 86.32847911 -327.29775723 73.72071764 -310.91796875 65.7109375 C-295.11108934 58.7713319 -278.52903091 58.26435303 -261.9375 63.1875 C-247.42964788 68.88866872 -236.14860752 77.99244117 -227.9375 91.1875 C-227.5682062 92.51132438 -227.22729243 93.84403089 -226.9375 95.1875 C-206.33266922 88.83365975 -185.83186639 82.20281742 -165.38665771 75.35284424 C-148.74144272 69.776135 -132.06910253 64.29015057 -115.36914062 58.87963867 C-114.54230774 58.6115892 -113.71547485 58.34353973 -112.86358643 58.06736755 C-111.25175451 57.54494694 -109.63973944 57.023091 -108.02752686 56.50184631 C-103.9501993 55.18016776 -99.88196171 53.83585506 -95.82324219 52.45800781 C-94.99633881 52.17817047 -94.16943542 51.89833313 -93.31747437 51.61001587 C-91.74418673 51.07608611 -90.17218566 50.53834499 -88.60171509 49.9961853 C-85.59169345 48.97525469 -83.13959383 48.1875 -79.9375 48.1875 C-79.98390625 47.25550781 -80.0303125 46.32351562 -80.078125 45.36328125 C-80.50046971 30.44546282 -76.82384564 17.07159821 -66.68359375 5.6484375 C-48.35316922 -11.94641623 -20.88724328 -14.36883629 0 0 Z M-55.9375 22.1875 C-61.46167009 30.32259625 -62.78295663 37.40435898 -61.9375 47.1875 C-59.81445336 56.11452743 -54.55947394 62.96839477 -47 68.0625 C-39.43801567 72.35052176 -32.44609931 72.85037889 -23.9375 71.1875 C-15.75061592 68.67546721 -9.45385108 64.17088756 -5.125 56.75 C-1.07070868 48.78811869 0.19106999 41.80743034 -2.1875 33.125 C-5.06851439 24.36301586 -10.94098897 17.44553216 -19.1015625 13.01171875 C-32.48233979 7.87836601 -46.56820486 11.5273242 -55.9375 22.1875 Z M-318.15625 92.984375 C-326.40701905 103.18927356 -331.04963913 114.98337537 -329.9375 128.1875 C-327.55523999 142.08714303 -321.67980495 153.84247104 -310.07421875 162.265625 C-299.11585407 169.03110047 -287.83130139 172.01282699 -275.015625 169.6484375 C-260.47803899 165.99396146 -249.68422525 158.12207746 -241.9375 145.1875 C-236.00009191 133.3470041 -235.94856456 121.15583443 -239.68359375 108.69921875 C-243.68695275 97.25850837 -252.14131619 88.31615305 -262.77734375 82.68359375 C-281.65070819 73.79157909 -303.75033511 77.51572868 -318.15625 92.984375 Z M-78.1171875 196.49609375 C-88.9593048 209.28160943 -94.16486562 224.48487186 -93.9375 241.1875 C-92.52530055 257.71854065 -85.87179846 271.61212781 -73.9375 283.1875 C-73.23109375 283.93515625 -72.5246875 284.6828125 -71.796875 285.453125 C-70.11753043 287.41486643 -70.11753043 287.41486643 -67.9375 287.1875 C-67.92291748 286.2903125 -67.90833496 285.393125 -67.89331055 284.46875 C-67.8318692 281.106193 -67.7576487 277.74440297 -67.67504883 274.38232422 C-67.64201197 272.93353719 -67.61391545 271.48462801 -67.59106445 270.03564453 C-67.29055522 251.4807978 -67.29055522 251.4807978 -62.3347168 246.61328125 C-60.70419463 245.28213552 -60.70419463 245.28213552 -60.9375 243.1875 C-60.195 242.89875 -59.4525 242.61 -58.6875 242.3125 C-56.37010203 241.36447356 -54.15832885 240.33904089 -51.9375 239.1875 C-53.02966886 236.41507136 -54.1400555 233.81355138 -55.5625 231.1875 C-58.33440014 224.72444711 -57.96862517 216.34248623 -55.75 209.75 C-52.30509841 202.97898653 -48.77280888 199.29539035 -41.890625 196.1015625 C-35.28179874 194.05597342 -27.33425315 193.82648447 -20.875 196.5625 C-19.905625 197.09875 -18.93625 197.635 -17.9375 198.1875 C-17.009375 198.496875 -16.08125 198.80625 -15.125 199.125 C-12.39409702 200.45143859 -12.17098011 201.4728725 -10.9375 204.1875 C-10.59589844 204.8475 -10.25429688 205.5075 -9.90234375 206.1875 C-9.56332031 206.8475 -9.22429687 207.5075 -8.875 208.1875 C-8.53339844 208.8475 -8.19179688 209.5075 -7.83984375 210.1875 C-4.23441152 218.17876105 -5.98729074 225.37304326 -8.9375 233.1875 C-9.5253125 234.9509375 -9.5253125 234.9509375 -10.125 236.75 C-10.393125 237.554375 -10.66125 238.35875 -10.9375 239.1875 C-10.33421875 239.55101562 -9.7309375 239.91453125 -9.109375 240.2890625 C-2.21614389 244.62512723 1.67420407 248.44704897 3.63208008 256.60595703 C4.57225833 262.24489341 4.54837672 267.98344556 4.6875 273.6875 C4.72617187 274.986875 4.76484375 276.28625 4.8046875 277.625 C4.89843347 280.81236286 4.98414349 283.9997279 5.0625 287.1875 C18.12157945 278.02221045 26.03112095 265.07556782 29.55859375 249.5546875 C32.22821571 231.71581825 28.54505563 215.11321448 17.81054688 200.48095703 C7.33585877 187.26910496 -7.04959787 178.3447933 -23.9375 176.1875 C-44.77318516 174.94642826 -63.55916056 181.07710822 -78.1171875 196.49609375 Z M-37.9375 214.1875 C-40.35776227 216.17577671 -40.35776227 216.17577671 -40.25 220.0625 C-40.16110943 222.64032666 -39.92811199 224.21038327 -38.9375 226.625 C-35.86747187 229.02345948 -32.79503875 229.52588059 -28.9375 229.1875 C-26.07756522 227.42285939 -24.43967151 226.19184303 -22.9375 223.1875 C-22.43654977 220.31443772 -22.43654977 220.31443772 -22.9375 217.1875 C-25.22047264 214.25224946 -26.97711648 212.57165341 -30.4375 211.1875 C-33.72898573 211.1875 -35.30855544 212.269081 -37.9375 214.1875 Z M-49.9375 258.1875 C-50.11289436 261.12846737 -50.16882375 263.97403349 -50.1328125 266.9140625 C-50.1299826 267.77687836 -50.12715271 268.63969421 -50.12423706 269.52865601 C-50.11302333 272.2900772 -50.08791684 275.0511765 -50.0625 277.8125 C-50.05247173 279.68228699 -50.04334562 281.55207905 -50.03515625 283.421875 C-50.01308012 288.01054109 -49.97854234 292.59896593 -49.9375 297.1875 C-39.58507416 300.74433905 -30.23174082 301.0419349 -19.59765625 298.671875 C-18.34734619 298.39569336 -17.09703613 298.11951172 -15.80883789 297.83496094 C-14.86129639 297.62129883 -13.91375488 297.40763672 -12.9375 297.1875 C-12.83855457 291.84901328 -12.76599586 286.51106131 -12.71777344 281.171875 C-12.69766939 279.3560252 -12.67038165 277.54024005 -12.63574219 275.72460938 C-12.58716961 273.11311895 -12.56451973 270.50248502 -12.546875 267.890625 C-12.52622986 267.08006653 -12.50558472 266.26950806 -12.48431396 265.43438721 C-12.48287583 261.81439771 -12.58777961 259.6599293 -14.77441406 256.70605469 C-19.78900337 253.18565452 -25.43566644 254.00360985 -31.3125 254 C-32.3540625 253.98775391 -33.395625 253.97550781 -34.46875 253.96289062 C-35.47679687 253.96095703 -36.48484375 253.95902344 -37.5234375 253.95703125 C-38.4417334 253.95292236 -39.3600293 253.94881348 -40.30615234 253.94458008 C-44.32495049 254.31558622 -47.07725035 255.32725035 -49.9375 258.1875 Z M-335.9375 330.1875 C-336.64261719 330.82429688 -337.34773438 331.46109375 -338.07421875 332.1171875 C-352.66436717 345.95698543 -360.7453591 365.0487852 -361.40966797 385.03613281 C-361.54551682 398.28258757 -359.1672214 410.36965641 -352.9375 422.1875 C-352.45667969 423.11949219 -351.97585938 424.05148437 -351.48046875 425.01171875 C-346.871359 433.44196398 -340.90765429 443.00890805 -331.9375 447.1875 C-331.92291748 446.2402002 -331.90833496 445.29290039 -331.89331055 444.31689453 C-331.8317642 440.75677562 -331.75752537 437.19736791 -331.67504883 433.63769531 C-331.64207045 432.10556791 -331.61395689 430.57332691 -331.59106445 429.04101562 C-331.3756234 414.99609264 -330.13840443 404.16060153 -319.6875 394 C-315.63598586 391.32968386 -311.31762659 389.26274444 -306.9375 387.1875 C-307.43121094 386.22328125 -307.92492187 385.2590625 -308.43359375 384.265625 C-309.08094237 382.98969148 -309.72806599 381.71364379 -310.375 380.4375 C-310.70048828 379.80328125 -311.02597656 379.1690625 -311.36132812 378.515625 C-315.56866489 370.18770068 -316.20254272 362.09622139 -313.8125 353 C-311.18600928 345.26780769 -306.21031865 338.99707168 -298.9375 335.1875 C-289.58696209 331.21672363 -279.89899526 330.85397073 -270.28515625 334.16015625 C-260.93328908 338.25257067 -256.27247063 345.35007343 -252.5625 354.625 C-250.39895308 366.95721742 -253.40828664 376.69412138 -259.9375 387.1875 C-259.06867188 387.61160156 -258.19984375 388.03570312 -257.3046875 388.47265625 C-246.97370972 393.73059237 -240.66249542 398.89789849 -236.9375 410.1875 C-236.05733002 414.66285085 -235.75287554 418.99880271 -235.62109375 423.5546875 C-235.60031265 424.23427521 -235.57953156 424.91386292 -235.55812073 425.61404419 C-235.4932637 427.76343666 -235.43404059 429.9129407 -235.375 432.0625 C-235.33175388 433.5286569 -235.28813775 434.99480294 -235.24414062 436.4609375 C-235.13764896 440.03634275 -235.03620591 443.61187037 -234.9375 447.1875 C-219.15227561 433.91311549 -208.6670895 418.02931889 -205.9375 397.1875 C-204.46654635 373.28090504 -210.48705808 353.32309117 -226.25 335.0625 C-239.90995236 320.39409478 -257.89756766 311.01321278 -278.05078125 309.8125 C-299.8005553 309.05060315 -319.73436504 315.29813274 -335.9375 330.1875 Z M-296.9375 356.4375 C-298.39044445 360.43309725 -298.59757376 363.98972754 -297.9375 368.1875 C-295.5744136 373.00456073 -292.75456073 375.8244136 -287.9375 378.1875 C-283.25105821 379.01204452 -279.90883409 378.66400352 -275.625 376.5625 C-271.33264682 372.76925766 -269.17037792 370.02141359 -268.4375 364.25 C-268.69799452 359.85520537 -270.06521837 356.52441542 -272.9375 353.1875 C-276.21896206 350.43399594 -279.1558204 349.31541121 -283.375 348.625 C-289.06386622 349.52324204 -293.13045506 352.15457444 -296.9375 356.4375 Z M-312.35058594 411.29321289 C-314.63377698 415.87792927 -314.44005089 420.47414286 -314.328125 425.49609375 C-314.32246521 426.46281509 -314.31680542 427.42953644 -314.31097412 428.42555237 C-314.28870531 431.49255319 -314.23852649 434.55835636 -314.1875 437.625 C-314.16742273 439.71287367 -314.14917412 441.80076578 -314.1328125 443.88867188 C-314.08887159 448.98873792 -314.01990983 454.08791638 -313.9375 459.1875 C-311.41873707 460.00692948 -308.8977933 460.81815069 -306.375 461.625 C-305.67052734 461.85509766 -304.96605469 462.08519531 -304.24023438 462.32226562 C-288.839789 467.21918144 -271.794276 466.37619663 -256.71655273 460.62817383 C-255.65065163 460.2233654 -255.65065163 460.2233654 -254.56321716 459.81037903 C-254.0267305 459.60482895 -253.49024384 459.39927887 -252.9375 459.1875 C-252.83818346 453.21017229 -252.76582005 447.2333312 -252.71777344 441.25537109 C-252.69773164 439.22436143 -252.67049053 437.19340894 -252.63574219 435.16259766 C-252.58689586 432.23325444 -252.56445657 429.304678 -252.546875 426.375 C-252.52622986 425.47571777 -252.50558472 424.57643555 -252.48431396 423.64990234 C-252.48223896 417.74139959 -253.24439241 412.95443611 -256.9375 408.1875 C-261.66119557 403.91500085 -266.78144699 403.59386918 -272.90625 403.65625 C-273.7453894 403.6524231 -274.58452881 403.64859619 -275.44909668 403.64465332 C-277.21396086 403.64194509 -278.97886592 403.64922966 -280.74365234 403.66601562 C-283.43028059 403.68744242 -286.11423522 403.66617839 -288.80078125 403.640625 C-290.52344335 403.64326847 -292.24610379 403.64839385 -293.96875 403.65625 C-295.16123352 403.64410461 -295.16123352 403.64410461 -296.37780762 403.63171387 C-303.47098924 403.74975129 -307.84755056 405.49767333 -312.35058594 411.29321289 Z " fill="#5715DB" transform="translate(493.9375,103.8125)"/>
<path d="M0 0 C-1.61010527 4.07376031 -4.53822271 6.76507069 -7.625 9.75 C-8.140625 10.25660156 -8.65625 10.76320313 -9.1875 11.28515625 C-10.45383339 12.52803902 -11.7263144 13.76465276 -13 15 C-13.66 14.67 -14.32 14.34 -15 14 C-13.58474822 12.41540185 -12.1677358 10.83237609 -10.75 9.25 C-9.96109375 8.36828125 -9.1721875 7.4865625 -8.359375 6.578125 C-2.33939394 0 -2.33939394 0 0 0 Z " fill="#3A0E93" transform="translate(413,280)"/>
<path d="M0 0 C-1.5255906 3.65141356 -3.72480909 5.90118112 -6.5625 8.625 C-9.69042054 11.51070681 -9.69042054 11.51070681 -12 15 C-12.66 14.67 -13.32 14.34 -14 14 C-3.97969543 0 -3.97969543 0 0 0 Z " fill="#390E90" transform="translate(171,178)"/>
<path d="M0 0 C0 3 0 3 -1.96875 5.26171875 C-2.8040625 6.06222656 -3.639375 6.86273438 -4.5 7.6875 C-5.3353125 8.49574219 -6.170625 9.30398438 -7.03125 10.13671875 C-7.6809375 10.75160156 -8.330625 11.36648438 -9 12 C-9.66 11.67 -10.32 11.34 -11 11 C-9.92173635 9.72486237 -8.83714481 8.45507431 -7.75 7.1875 C-7.14671875 6.47980469 -6.5434375 5.77210938 -5.921875 5.04296875 C-4.07629602 3.08110329 -2.20054668 1.54330375 0 0 Z " fill="#390E91" transform="translate(148,419)"/>
<path d="M0 0 C-1.55603771 3.81936528 -3.95604931 6.26044438 -7 9 C-7.66 9 -8.32 9 -9 9 C-7.45665977 5.21180126 -4.44676575 0 0 0 Z " fill="#3C0E96" transform="translate(177,496)"/>
<path d="M0 0 C-1.44077046 3.36179774 -3.24750021 5.59156268 -6 8 C-6.66 8 -7.32 8 -8 8 C-6.48291727 4.46014029 -4.24676932 0 0 0 Z " fill="#3B0E94" transform="translate(433,106)"/>
<path d="M0 0 C0 3 0 3 -1.875 5.1875 C-4 7 -4 7 -6 7 C-4.60667426 3.63279613 -3.0210714 2.0140476 0 0 Z " fill="#390D8F" transform="translate(447,302)"/>
</svg>
