<?xml version="1.0" encoding="UTF-8"?>
<svg version="1.1" xmlns="http://www.w3.org/2000/svg" width="553" height="579">
<path d="M0 0 C0.99355499 -0.00428513 1.98710999 -0.00857025 3.01077271 -0.01298523 C5.10694621 -0.01871315 7.20313958 -0.01924016 9.29931641 -0.01489258 C12.49025739 -0.01173612 15.68026745 -0.03519942 18.87109375 -0.06054688 C20.91406134 -0.06282051 22.9570314 -0.06352307 25 -0.0625 C25.94608124 -0.07170975 26.89216248 -0.08091949 27.86691284 -0.09040833 C34.91888719 -0.04165578 40.2044168 1.2277978 46.3203125 4.92578125 C52.34275454 11.11099199 54.78035721 18.07063576 54.73046875 26.6015625 C54.72724609 27.57802734 54.72402344 28.55449219 54.72070312 29.56054688 C54.71232422 30.56794922 54.70394531 31.57535156 54.6953125 32.61328125 C54.69080078 33.64001953 54.68628906 34.66675781 54.68164062 35.72460938 C54.66989434 38.25006007 54.65346815 40.7753903 54.6328125 43.30078125 C55.90125 43.40132812 57.1696875 43.501875 58.4765625 43.60546875 C63.93171954 44.217043 68.93225598 45.71487754 74.1328125 47.42578125 C75.57575684 47.89600708 75.57575684 47.89600708 77.04785156 48.37573242 C91.08019663 53.02641926 103.97300633 58.71461805 116.8046875 66.06640625 C117.47048828 66.44732422 118.13628906 66.82824219 118.82226562 67.22070312 C120.38898235 68.15532486 121.90033186 69.18159979 123.3984375 70.22265625 C125.52478519 71.53047559 125.52478519 71.53047559 127.5625 70.88671875 C129.99587452 69.02266204 132.01140275 66.94326499 134.09887695 64.70385742 C140.69719978 57.63165946 146.59914763 52.54179043 156.6328125 51.80078125 C165.73484674 52.50931509 172.34346515 57.11218577 178.50390625 63.48046875 C179.19291519 64.17085236 179.88192413 64.86123596 180.59181213 65.57254028 C182.03314602 67.02287233 183.46724888 68.48042389 184.89428711 69.94482422 C187.07322435 72.17876661 189.27546025 74.38752362 191.48242188 76.59375 C192.88684333 78.01291249 194.28988745 79.43343962 195.69140625 80.85546875 C196.34451279 81.51191376 196.99761932 82.16835876 197.67051697 82.84469604 C203.19547039 88.54352651 206.13562623 93.71658029 206.6875 101.71875 C206.50803809 110.19191573 202.40159497 115.50006825 196.6328125 121.30078125 C195.74851562 122.19925781 194.86421875 123.09773438 193.953125 124.0234375 C191.52836056 126.4653745 189.0882829 128.88977611 186.6328125 131.30078125 C187.08269531 132.04457031 187.53257812 132.78835937 187.99609375 133.5546875 C215.6328125 180.46510991 215.6328125 180.46510991 215.6328125 204.30078125 C216.31794922 204.2850708 217.00308594 204.26936035 217.70898438 204.25317383 C220.85017453 204.19033942 223.99123189 204.15163776 227.1328125 204.11328125 C228.21046875 204.08814453 229.288125 204.06300781 230.3984375 204.03710938 C237.80966572 203.96932375 243.67397238 204.40697423 249.83984375 208.9140625 C257.57658163 217.10258069 258.78051677 224.61599179 258.8359375 235.5390625 C258.84163757 236.41926559 258.84733765 237.29946869 258.85321045 238.2063446 C258.86262423 240.06292533 258.86917996 241.91952249 258.87304688 243.77612305 C258.88274575 246.5938883 258.91380074 249.41092138 258.9453125 252.22851562 C258.95184452 254.04036029 258.95709421 255.85221013 258.9609375 257.6640625 C258.9794577 258.91138908 258.9794577 258.91138908 258.99835205 260.18391418 C258.96474968 269.15027749 256.64884382 276.10172399 250.4609375 282.640625 C243.41025329 289.04348994 234.6922833 288.44197239 225.7578125 288.36328125 C224.78328125 288.35876953 223.80875 288.35425781 222.8046875 288.34960938 C220.41399816 288.33789031 218.0234381 288.32148344 215.6328125 288.30078125 C215.5296875 289.3990625 215.4265625 290.49734375 215.3203125 291.62890625 C212.64638512 312.77892907 202.38267742 333.33999408 191.8190918 351.56762695 C191.41730713 352.26331787 191.01552246 352.95900879 190.6015625 353.67578125 C190.24513672 354.28164063 189.88871094 354.8875 189.52148438 355.51171875 C188.52928151 357.50920847 187.85938142 359.07207161 187.6328125 361.30078125 C188.71857159 363.01228832 188.71857159 363.01228832 190.45703125 364.47265625 C191.38225586 365.34664063 191.38225586 365.34664063 192.32617188 366.23828125 C192.98423828 366.83640625 193.64230469 367.43453125 194.3203125 368.05078125 C201.15207522 374.28278276 206.10948161 380.41458107 206.71484375 389.953125 C206.47328912 396.86618851 204.4230106 401.80256331 199.72265625 406.875 C198.91828125 407.74358643 198.11390625 408.61217285 197.28515625 409.50708008 C193.08443545 413.9316795 188.86357163 418.33068885 184.56665039 422.66210938 C183.56282648 423.67756185 182.56351416 424.6974927 181.56860352 425.72167969 C174.36496924 433.13569911 167.81610718 439.69513047 156.98046875 440.3828125 C146.05925033 440.00120587 139.74866169 433.75899128 132.58984375 426.12109375 C131.98527344 425.47914063 131.38070313 424.8371875 130.7578125 424.17578125 C129.98824219 423.30566406 129.98824219 423.30566406 129.203125 422.41796875 C127.69383834 421.06706888 127.69383834 421.06706888 125.7722168 421.60351562 C123.59387824 422.31347054 121.81286373 423.1931382 119.83203125 424.33984375 C119.11063965 424.75186035 118.38924805 425.16387695 117.64599609 425.58837891 C116.87852051 426.02972168 116.11104492 426.47106445 115.3203125 426.92578125 C103.35669698 433.64769275 91.45385495 439.19305817 78.4453125 443.61328125 C77.45966309 443.95117676 76.47401367 444.28907227 75.45849609 444.63720703 C68.58965488 446.89707066 61.79141753 448.30343279 54.6328125 449.30078125 C54.64852295 449.92009521 54.6642334 450.53940918 54.68041992 451.17749023 C54.7434528 454.0309913 54.78201687 456.88434516 54.8203125 459.73828125 C54.85801758 461.19911133 54.85801758 461.19911133 54.89648438 462.68945312 C54.97836475 470.85019718 54.04431024 478.4385975 48.3203125 484.67578125 C47.76730469 485.30226563 47.21429688 485.92875 46.64453125 486.57421875 C40.52208233 491.8288254 34.65515312 491.75528396 26.953125 491.734375 C25.82639374 491.73961685 24.69966248 491.7448587 23.53878784 491.7502594 C21.16014427 491.75667037 18.78146895 491.75535464 16.40283203 491.74682617 C12.77709018 491.73832644 9.15292973 491.76707656 5.52734375 491.79882812 C3.21093797 491.80044062 0.89452942 491.79986168 -1.421875 491.796875 C-2.49919891 491.80810898 -3.57652283 491.81934296 -4.68649292 491.83091736 C-12.14669872 491.76238026 -17.78934102 490.71285878 -23.390625 485.37109375 C-23.83664063 484.72914063 -24.28265625 484.0871875 -24.7421875 483.42578125 C-25.20367187 482.78898437 -25.66515625 482.1521875 -26.140625 481.49609375 C-29.89464996 474.7771064 -29.60711106 468.43117375 -29.4921875 460.92578125 C-29.48316406 459.80816406 -29.47414062 458.69054687 -29.46484375 457.5390625 C-29.44137096 454.79274663 -29.40853478 452.04687653 -29.3671875 449.30078125 C-30.43453125 449.20796875 -31.501875 449.11515625 -32.6015625 449.01953125 C-57.24866137 445.90348012 -80.80642557 433.58581463 -101.3671875 420.30078125 C-106.52061549 424.60444681 -111.21877345 429.15553401 -115.83984375 434.03125 C-121.08761857 438.74370312 -126.46330611 440.30078125 -133.3671875 440.30078125 C-142.38016655 439.25008788 -148.16546768 433.8192452 -154.375 427.6640625 C-155.02290497 427.025186 -155.67080994 426.38630951 -156.33834839 425.72807312 C-157.70075568 424.3801106 -159.0604228 423.02937349 -160.41748047 421.67602539 C-162.48082 419.62458321 -164.56208548 417.59256726 -166.64453125 415.56054688 C-167.97250277 414.24204126 -169.29936301 412.92241525 -170.625 411.6015625 C-171.24174591 411.00434891 -171.85849182 410.40713531 -172.493927 409.79182434 C-177.38488343 404.84970054 -180.56881885 399.43351307 -181.8984375 392.55078125 C-181.888125 391.80828125 -181.8778125 391.06578125 -181.8671875 390.30078125 C-181.8775 389.55828125 -181.8878125 388.81578125 -181.8984375 388.05078125 C-180.24969173 379.51609727 -175.82545558 374.06513399 -169.6171875 368.23828125 C-168.91980469 367.56345703 -168.22242188 366.88863281 -167.50390625 366.19335938 C-165.80263011 364.55034612 -164.09080943 362.92028104 -162.3671875 361.30078125 C-163.74443096 357.44750994 -165.59785794 354.05432157 -167.64135742 350.53076172 C-178.81499848 331.19022023 -186.02453439 310.94913677 -191.3671875 289.30078125 C-191.95097168 289.28619873 -192.53475586 289.27161621 -193.13623047 289.2565918 C-195.83880709 289.1810904 -198.54028214 289.08477787 -201.2421875 288.98828125 C-202.16 288.96572266 -203.0778125 288.94316406 -204.0234375 288.91992188 C-213.28182111 288.56132251 -221.78330383 287.19818319 -228.3671875 280.30078125 C-231.87790107 275.27741296 -233.46183857 270.76956049 -233.56005859 264.69091797 C-233.57612152 263.78252167 -233.59218445 262.87412537 -233.60873413 261.9382019 C-233.65355357 257.78140278 -233.69426683 253.62475828 -233.71728516 249.46777344 C-233.73380628 247.28374548 -233.76104508 245.09977073 -233.79931641 242.91601562 C-233.85445333 239.74971771 -233.87601772 236.58468395 -233.890625 233.41796875 C-233.91329437 232.45406219 -233.93596375 231.49015564 -233.95932007 230.49703979 C-233.93784999 223.51137539 -232.33108694 218.10721404 -228.3671875 212.30078125 C-220.64814117 204.85189512 -212.86220184 203.98228414 -202.4921875 203.67578125 C-201.42226562 203.63710937 -200.35234375 203.5984375 -199.25 203.55859375 C-196.62256342 203.46475673 -193.99512579 203.37906568 -191.3671875 203.30078125 C-191.0990625 202.18445313 -190.8309375 201.068125 -190.5546875 199.91796875 C-184.74641022 176.42003682 -176.34884738 153.27458108 -162.3671875 133.30078125 C-164.22068988 128.50684609 -168.18464905 125.41315603 -171.84765625 121.98632812 C-177.70851194 116.33634689 -181.43780481 110.36217933 -181.6171875 102.05078125 C-181.34311964 90.81399897 -174.82945704 84.86634803 -167.3671875 77.30078125 C-166.61614746 76.53072754 -165.86510742 75.76067383 -165.09130859 74.96728516 C-162.58772921 72.40313931 -160.07356987 69.84989215 -157.5546875 67.30078125 C-156.74257812 66.47537842 -155.93046875 65.64997559 -155.09375 64.79956055 C-148.25662382 57.95469051 -142.1219818 52.38791293 -131.9921875 51.98828125 C-121.88185772 52.32585487 -116.39850967 57.40621089 -109.3671875 64.30078125 C-108.64402344 65.00847656 -107.92085938 65.71617188 -107.17578125 66.4453125 C-105.55795662 68.0500638 -103.95461929 69.66604189 -102.3671875 71.30078125 C-98.47052964 69.90747726 -95.01778639 68.0284882 -91.44458008 65.97583008 C-72.05771192 54.84776357 -52.08371813 47.56384632 -30.3671875 42.30078125 C-30.36307861 41.62611816 -30.35896973 40.95145508 -30.35473633 40.25634766 C-30.32147042 37.14531964 -30.25079242 34.0361656 -30.1796875 30.92578125 C-30.17098633 29.33443359 -30.17098633 29.33443359 -30.16210938 27.7109375 C-29.9369868 19.55649763 -28.4286702 12.21045578 -22.34887695 6.35791016 C-15.40015941 0.72008793 -8.68086066 -0.00832707 0 0 Z M-16.2578125 14.5078125 C-20.08713142 19.66736536 -19.11121907 26.87959082 -19.1171875 32.98828125 C-19.14570579 35.61735026 -19.18658879 38.2460621 -19.2265625 40.875 C-19.23139648 42.03604248 -19.23623047 43.19708496 -19.24121094 44.39331055 C-19.3671875 47.30078125 -19.3671875 47.30078125 -20.3671875 50.30078125 C-23.04296875 51.2578125 -23.04296875 51.2578125 -26.6796875 52.11328125 C-28.0592333 52.4570792 -29.43810898 52.80357406 -30.81640625 53.15234375 C-31.55552246 53.33700195 -32.29463867 53.52166016 -33.05615234 53.71191406 C-55.01199378 59.30640905 -79.92647635 67.24203099 -97.51953125 82.12109375 C-100.50137443 84.02493443 -101.87856354 84.05160282 -105.3671875 83.30078125 C-108.53425755 80.82594999 -111.20387852 77.9331072 -113.9296875 74.98828125 C-115.40550065 73.42527845 -116.88583658 71.86653132 -118.37109375 70.3125 C-119.01892822 69.61600342 -119.6667627 68.91950684 -120.33422852 68.2019043 C-123.82691581 64.93571528 -127.52282705 62.53146508 -132.3671875 62.30078125 C-138.90933159 64.38200588 -142.64805108 68.12920602 -147.3046875 73.05078125 C-151.89411609 77.82271864 -156.49946951 82.41678703 -161.56494141 86.68725586 C-166.19108583 90.82897741 -170.43703263 95.03081465 -170.8046875 101.42578125 C-170.62732747 108.88672645 -165.97671712 112.77602446 -160.8515625 117.703125 C-159.90434326 118.62121948 -159.90434326 118.62121948 -158.93798828 119.55786133 C-157.65528977 120.78921971 -156.35692157 122.00448895 -155.04248047 123.2019043 C-150.54962384 127.46801301 -150.54962384 127.46801301 -149.703125 131.33203125 C-150.52939078 135.02592534 -152.19981111 137.65084144 -154.3671875 140.67578125 C-159.4758642 148.20968703 -163.51558595 156.06560056 -167.3671875 164.30078125 C-168.16962891 165.99460938 -168.16962891 165.99460938 -168.98828125 167.72265625 C-175.56055607 182.26701508 -179.37252433 197.89298221 -183.3671875 213.30078125 C-184.14843994 213.32060059 -184.92969238 213.34041992 -185.73461914 213.36083984 C-189.29996068 213.45653597 -192.86475192 213.56603464 -196.4296875 213.67578125 C-197.65880859 213.70671875 -198.88792969 213.73765625 -200.15429688 213.76953125 C-210.92907397 213.74768417 -210.92907397 213.74768417 -220.01391602 218.71606445 C-223.46457117 223.04670069 -223.04983805 227.67063219 -222.9609375 232.9921875 C-222.96097778 234.01505356 -222.96101807 235.03791962 -222.96105957 236.09178162 C-222.95571259 238.24769253 -222.93816528 240.40360349 -222.90917969 242.55932617 C-222.86728115 245.85591261 -222.86811782 249.15045744 -222.875 252.44726562 C-222.86450834 254.54558709 -222.85157037 256.64389804 -222.8359375 258.7421875 C-222.83573608 259.72562637 -222.83553467 260.70906525 -222.83532715 261.7223053 C-222.78570357 268.56322024 -222.78570357 268.56322024 -219.3671875 274.30078125 C-215.04209206 277.09907972 -211.60669158 277.68359179 -206.5078125 277.7421875 C-205.22777344 277.76861328 -203.94773437 277.79503906 -202.62890625 277.82226562 C-201.29167973 277.83716007 -199.9544389 277.85081836 -198.6171875 277.86328125 C-195.97605448 277.89459528 -193.33623027 277.94011683 -190.6953125 277.9921875 C-188.94589355 278.01067749 -188.94589355 278.01067749 -187.16113281 278.02954102 C-184.3671875 278.30078125 -184.3671875 278.30078125 -182.3671875 280.30078125 C-181.79223633 282.13818359 -181.79223633 282.13818359 -181.32421875 284.38671875 C-181.14157471 285.22460938 -180.95893066 286.0625 -180.77075195 286.92578125 C-180.57570068 287.83328125 -180.38064941 288.74078125 -180.1796875 289.67578125 C-175.04172349 312.16038959 -166.61370691 334.11115264 -153.41479492 353.15332031 C-150.75377549 357.10597702 -149.79484438 359.5617802 -150.3671875 364.30078125 C-152.09545898 366.69433594 -152.09545898 366.69433594 -154.48828125 368.97265625 C-155.34099609 369.80152344 -156.19371094 370.63039063 -157.07226562 371.484375 C-158.42481445 372.75474609 -158.42481445 372.75474609 -159.8046875 374.05078125 C-161.57594845 375.75210728 -163.3455668 377.45514563 -165.11328125 379.16015625 C-165.90404053 379.90749023 -166.6947998 380.65482422 -167.50952148 381.42480469 C-170.24191692 384.18413265 -170.63196442 386.12692856 -170.8671875 389.92578125 C-170.939375 390.74304688 -171.0115625 391.5603125 -171.0859375 392.40234375 C-169.91614247 397.11966936 -166.69981664 399.87493171 -163.3671875 403.30078125 C-162.45598145 404.24356934 -161.54477539 405.18635742 -160.60595703 406.15771484 C-158.02606589 408.80857292 -155.42072496 411.43294292 -152.80493164 414.04833984 C-151.16718131 415.68830435 -149.53763613 417.33615117 -147.90820312 418.984375 C-146.85986396 420.03564408 -145.8110528 421.08644272 -144.76171875 422.13671875 C-144.27935257 422.62627045 -143.79698639 423.11582214 -143.30000305 423.62020874 C-139.59264946 427.30263641 -137.15172169 429.13855087 -131.9296875 429.61328125 C-126.30266625 429.11968289 -123.12862968 426.32522875 -119.3359375 422.32421875 C-118.60761719 421.57140625 -117.87929687 420.81859375 -117.12890625 420.04296875 C-115.61718696 418.46075477 -114.10938552 416.87478848 -112.60546875 415.28515625 C-111.51298828 414.15980469 -111.51298828 414.15980469 -110.3984375 413.01171875 C-109.74423828 412.32384277 -109.09003906 411.6359668 -108.41601562 410.92724609 C-106.03085346 409.03378204 -104.37528718 408.59059507 -101.3671875 408.30078125 C-99.5078125 408.9453125 -99.5078125 408.9453125 -97.6171875 410.11328125 C-96.82957031 410.57992188 -96.04195313 411.0465625 -95.23046875 411.52734375 C-93.71145184 412.46818096 -92.1932072 413.4103188 -90.68115234 414.36230469 C-73.04723663 425.41696183 -54.4006761 433.02219183 -34.21484375 438.046875 C-30.88865511 438.88993666 -27.58386518 439.77446323 -24.30078125 440.7734375 C-23.56786865 440.99394775 -22.83495605 441.21445801 -22.07983398 441.44165039 C-20.3671875 442.30078125 -20.3671875 442.30078125 -19.3671875 445.30078125 C-19.25140574 447.3794761 -19.18873408 449.46130535 -19.15625 451.54296875 C-19.12789062 452.77402344 -19.09953125 454.00507813 -19.0703125 455.2734375 C-19.01838841 457.86704558 -18.97407017 460.4608175 -18.9375 463.0546875 C-18.89109375 464.90513672 -18.89109375 464.90513672 -18.84375 466.79296875 C-18.82393066 467.9207373 -18.80411133 469.04850586 -18.78369141 470.21044922 C-18.30760385 473.74287379 -17.60722305 475.53200484 -15.3671875 478.30078125 C-10.25836032 481.86031375 -5.36431969 481.7536653 0.6328125 481.734375 C1.58671875 481.73961685 2.540625 481.7448587 3.5234375 481.7502594 C5.53384429 481.75666321 7.54428864 481.75536392 9.5546875 481.74682617 C12.62307625 481.73830828 15.68960702 481.7671135 18.7578125 481.79882812 C20.71614528 481.80044018 22.67448134 481.79986253 24.6328125 481.796875 C26.00179687 481.81372597 26.00179687 481.81372597 27.3984375 481.83091736 C32.94985869 481.77043891 36.32081482 481.13992172 40.6328125 477.30078125 C43.69131262 473.44305676 44.02751153 470.39662766 44.109375 465.5390625 C44.1403125 464.25580078 44.17125 462.97253906 44.203125 461.65039062 C44.222113 460.30469799 44.2403336 458.95899433 44.2578125 457.61328125 C44.30587253 454.96333978 44.36314002 452.31381083 44.421875 449.6640625 C44.44822021 447.90509644 44.44822021 447.90509644 44.47509766 446.1105957 C44.6328125 443.30078125 44.6328125 443.30078125 45.6328125 441.30078125 C47.6796875 440.61816406 47.6796875 440.61816406 50.3828125 440.00390625 C51.37482666 439.77098877 52.36684082 439.53807129 53.38891602 439.2980957 C54.45940186 439.05148193 55.5298877 438.80486816 56.6328125 438.55078125 C79.46950276 433.02087309 101.49183883 424.65920143 120.79296875 410.98046875 C123.96330648 409.10530338 125.95949157 408.47304933 129.6328125 408.30078125 C131.97875977 409.8996582 131.97875977 409.8996582 134.19921875 412.2890625 C135.01455078 413.14048828 135.82988281 413.99191406 136.66992188 414.86914062 C137.50330078 415.77470703 138.33667969 416.68027344 139.1953125 417.61328125 C140.85629063 419.38678138 142.52402608 421.15398279 144.19921875 422.9140625 C144.93084229 423.70594971 145.66246582 424.49783691 146.41625977 425.3137207 C149.29613898 427.89542981 151.96367155 429.12997149 155.80859375 429.5234375 C160.1729331 429.19631152 162.96418409 428.4109976 166.21875 425.42578125 C167.25237671 424.47940796 167.25237671 424.47940796 168.30688477 423.51391602 C172.40228897 419.61711334 176.4656532 415.6921136 180.47094727 411.70288086 C181.95345198 410.23019568 183.44631019 408.76852889 184.93945312 407.30664062 C185.89648839 406.35612785 186.85289155 405.40497811 187.80859375 404.453125 C189.09117065 403.18456665 189.09117065 403.18456665 190.3996582 401.89038086 C193.606181 398.17204837 195.38817404 394.768612 196.1953125 389.92578125 C195.16358811 383.27689075 190.82294308 379.43799038 186.15234375 374.85546875 C185.52537598 374.24002197 184.8984082 373.6245752 184.25244141 372.99047852 C182.97833086 371.75259173 181.69298712 370.52614863 180.39599609 369.31225586 C177.85535552 366.87248864 175.92087241 364.96855649 174.515625 361.7109375 C174.67908976 358.34901227 175.91693259 356.69916914 177.8203125 353.92578125 C191.73692254 332.48216614 201.4666527 309.1675615 206.49414062 284.05908203 C206.81929789 282.46094232 207.21808116 280.87804968 207.6328125 279.30078125 C210.44172562 277.89632469 212.82216502 278.15513881 215.9609375 278.125 C217.23582031 278.10115234 218.51070313 278.07730469 219.82421875 278.05273438 C221.84955407 278.01773039 223.87430242 277.9883379 225.89990234 277.97485352 C227.85796833 277.95927527 229.81576835 277.91738659 231.7734375 277.875 C233.52962402 277.85312622 233.52962402 277.85312622 235.32128906 277.83081055 C240.25869054 277.04054967 243.23632435 274.91295108 246.48071289 271.16748047 C248.18267669 266.9325877 248.08092882 262.9585087 248.06640625 258.43359375 C248.0716481 257.48064423 248.07688995 256.5276947 248.08229065 255.54586792 C248.0887023 253.53368095 248.08738497 251.52145646 248.07885742 249.50927734 C248.07036021 246.44299949 248.09910042 243.37859337 248.13085938 240.3125 C248.13247195 238.35286514 248.13189277 236.393227 248.12890625 234.43359375 C248.14575722 233.06764572 248.14575722 233.06764572 248.16294861 231.67410278 C248.09830292 225.71844044 247.17146026 222.14645783 243.6328125 217.30078125 C236.74782273 213.43594324 229.37643157 213.75637875 221.6328125 213.61328125 C220.38113281 213.57912109 219.12945312 213.54496094 217.83984375 213.50976562 C214.77092293 213.42777156 211.70227044 213.35846106 208.6328125 213.30078125 C206.7162683 207.82101407 205.07769054 202.32820614 203.64331055 196.70385742 C198.62534414 177.18135292 191.15753831 158.54575705 180.25 141.53125 C179.87294922 140.94142334 179.49589844 140.35159668 179.10742188 139.74389648 C178.08000621 138.16194097 177.02534051 136.5977767 175.96875 135.03515625 C174.35724306 131.73675023 174.53139407 130.74154127 175.6328125 127.30078125 C177.36694336 125.14428711 177.36694336 125.14428711 179.59765625 123.015625 C180.39751953 122.23767578 181.19738281 121.45972656 182.02148438 120.65820312 C182.86259766 119.85962891 183.70371094 119.06105469 184.5703125 118.23828125 C186.22971343 116.64786234 187.88485017 115.05297924 189.53515625 113.453125 C190.27241943 112.75179443 191.00968262 112.05046387 191.76928711 111.32788086 C194.61138938 108.23630806 195.54370309 106.10276593 196.0078125 101.92578125 C195.28078629 94.89786124 189.99766083 90.3761331 185.1875 85.625 C184.27087082 84.70905815 184.27087082 84.70905815 183.33572388 83.77461243 C182.05219607 82.49408912 180.7662554 81.21598022 179.47802734 79.94018555 C177.50164772 77.98217376 175.53349877 76.01616562 173.56640625 74.04882812 C172.31557695 72.80291059 171.06429092 71.55745138 169.8125 70.3125 C168.92810745 69.42977669 168.92810745 69.42977669 168.02584839 68.52922058 C164.263242 64.81045717 162.27685517 63.12703776 157.0078125 62.80078125 C151.80464226 62.89727371 149.54233766 64.29080635 145.90234375 67.87890625 C145.15339844 68.678125 144.40445312 69.47734375 143.6328125 70.30078125 C142.00959855 72.02397387 140.38015036 73.73976302 138.7355957 75.44262695 C137.59929432 76.62356474 136.47866884 77.81982478 135.37573242 79.03198242 C132.76522123 81.7680028 131.37258092 83.15870025 127.58203125 83.88671875 C124.08217378 83.19138283 122.02313046 81.99298351 119.0703125 79.98828125 C99.0147136 66.99910329 77.61477403 57.86082298 54.24414062 52.84619141 C53.41978516 52.66878418 52.59542969 52.49137695 51.74609375 52.30859375 C51.02204346 52.1605127 50.29799316 52.01243164 49.55200195 51.85986328 C47.6328125 51.30078125 47.6328125 51.30078125 44.6328125 49.30078125 C44.26391602 46.41503906 44.26391602 46.41503906 44.26171875 42.75390625 C44.24432408 41.42057051 44.22673985 40.08723723 44.20898438 38.75390625 C44.19894634 36.65620126 44.19530605 34.55866541 44.19702148 32.4609375 C44.1934277 30.43308698 44.16598823 28.40652537 44.13671875 26.37890625 C44.13486572 25.1662207 44.1330127 23.95353516 44.13110352 22.70410156 C43.5126344 18.47996656 42.48975761 16.4778647 39.6328125 13.30078125 C34.33105904 10.16354108 28.80498994 9.86530668 22.78515625 9.9375 C21.96962784 9.9370015 21.15409943 9.93650299 20.31385803 9.93598938 C18.60203597 9.93831443 16.89020946 9.94794936 15.1784668 9.96459961 C12.57374197 9.98825011 9.97003988 9.98514113 7.36523438 9.97851562 C5.6927023 9.98409197 4.02017448 9.99120157 2.34765625 10 C1.57767807 9.99908859 0.80769989 9.99817719 0.01438904 9.99723816 C-6.04718045 10.07590911 -11.30512695 10.72637015 -16.2578125 14.5078125 Z " fill="#5D16EA" transform="translate(266.3671875,40.69921875)"/>
<path d="M0 0 C32.48838703 -0.81674716 68.64875446 8.29869107 94.359375 28.8671875 C96.82030821 30.84842449 96.82030821 30.84842449 99.234375 32.1171875 C103.01386251 31.35461834 103.01386251 31.35461834 106.234375 29.1171875 C112.85361356 27.59801799 118.03990135 28.25064819 124.234375 31.1171875 C129.73920539 34.73118782 133.53156939 38.62524111 135.234375 45.1171875 C135.79508537 50.9165348 136.07945495 55.9815339 133.234375 61.1796875 C132.3075255 63.06426873 132.3075255 63.06426873 132.234375 65.1171875 C133.76892257 67.94270367 135.68992997 70.26132547 137.7109375 72.76171875 C156.48030626 96.66804474 163.71242318 131.18794028 163.546875 160.8046875 C163.54471985 161.50373199 163.5425647 162.20277649 163.54034424 162.92300415 C163.48465786 174.22299361 162.82998253 185.09127809 160.234375 196.1171875 C160.05696777 196.91495605 159.87956055 197.71272461 159.69677734 198.53466797 C155.36086932 217.48541779 147.20179012 236.21482026 135.7578125 251.98046875 C134.32158321 253.99487239 133.11010662 255.80136389 132.234375 258.1171875 C132.688125 258.9215625 133.141875 259.7259375 133.609375 260.5546875 C136.31937627 266.49584414 136.29359465 273.22707723 134.578125 279.52734375 C131.99762201 285.3001069 127.54889826 289.48499369 121.91015625 292.26171875 C118.78097699 293.26214248 116.14242745 293.41799016 112.859375 293.4296875 C111.77914063 293.44644531 110.69890625 293.46320313 109.5859375 293.48046875 C106.234375 293.1171875 106.234375 293.1171875 102.75390625 291.328125 C99.20146018 289.64723057 99.20146018 289.64723057 95.83203125 291.73046875 C94.63711374 292.60813364 93.45943452 293.50959029 92.296875 294.4296875 C90.98055311 295.38623234 89.65875532 296.33527975 88.33203125 297.27734375 C87.65672363 297.7583252 86.98141602 298.23930664 86.28564453 298.73486328 C80.65454571 302.52958853 74.40504645 305.32074089 68.234375 308.1171875 C67.62126465 308.39546387 67.0081543 308.67374023 66.37646484 308.96044922 C28.13753878 325.97949313 -16.82994724 325.49629421 -55.765625 311.1171875 C-69.37258432 305.68917733 -81.61377278 298.21842231 -93.765625 290.1171875 C-95.36040833 290.86368182 -96.95477482 291.61108138 -98.546875 292.36328125 C-104.44729491 294.36817745 -111.45092591 294.08829631 -117.140625 291.5546875 C-123.42815845 287.8161541 -127.33132424 282.51722657 -129.3671875 275.5234375 C-130.1646738 270.70724573 -130.0204736 265.41994476 -127.65234375 261.07421875 C-126.51890755 258.57267013 -126.92008365 257.69049642 -127.765625 255.1171875 C-128.7354814 253.27506059 -128.7354814 253.27506059 -129.953125 251.45703125 C-130.40018799 250.75594238 -130.84725098 250.05485352 -131.30786133 249.33251953 C-131.78892334 248.58083496 -132.26998535 247.82915039 -132.765625 247.0546875 C-155.55848218 210.4178591 -163.68555595 166.86063542 -154.015625 124.5546875 C-149.30138986 105.25132315 -141.30713086 83.91226617 -128.5546875 68.43359375 C-126.49769531 66.29061384 -126.49769531 66.29061384 -126.890625 63.7421875 C-127.53857181 61.79834707 -128.20868066 59.86186312 -128.890625 57.9296875 C-130.27274588 51.90758937 -129.69195564 46.5719637 -127.515625 40.8046875 C-123.6576726 34.87997489 -118.53239131 30.40054766 -111.6328125 28.54296875 C-106.44807119 27.70293227 -102.71030735 28.45947212 -97.90625 30.5234375 C-95.0706432 31.30995617 -93.57146376 31.02189331 -90.765625 30.1171875 C-88.58989051 28.817435 -86.53285258 27.49105039 -84.453125 26.0546875 C-59.0335617 9.20719017 -30.32556047 1.28498138 0 0 Z M-30.765625 14.1171875 C-31.55517578 14.30522949 -32.34472656 14.49327148 -33.15820312 14.68701172 C-52.74618403 19.56074331 -70.44252422 28.33246036 -86.765625 40.1171875 C-86.43175781 41.33148438 -86.09789062 42.54578125 -85.75390625 43.796875 C-84.21327419 49.9839226 -84.76723134 55.4714443 -87.015625 61.4296875 C-90.72719102 67.12959245 -95.084484 71.04645392 -101.83203125 72.58984375 C-107.49449324 73.44659887 -112.29249619 72.682787 -117.765625 71.1171875 C-141.38717491 106.60419188 -153.37575217 146.86786425 -144.8046875 189.67578125 C-140.26515316 209.85098804 -132.81785794 235.06495456 -117.765625 250.1171875 C-115.76047 249.81641425 -113.76163806 249.4736184 -111.765625 249.1171875 C-103.94442305 248.25415832 -98.33815123 249.76364261 -91.765625 254.1171875 C-87.68134356 257.88729345 -85.77861582 262.71173227 -84.765625 268.1171875 C-84.77219848 272.65946161 -85.32962727 276.80919432 -86.765625 281.1171875 C-72.87862904 292.28919774 -56.79578968 300.0516384 -39.765625 305.1171875 C-38.76668213 305.41447754 -38.76668213 305.41447754 -37.74755859 305.71777344 C0.01252543 316.64323322 41.30631129 311.50935134 75.74511719 292.74951172 C78.28336227 291.32156838 80.79482692 289.85756277 83.296875 288.3671875 C84.07764404 287.90739502 84.85841309 287.44760254 85.6628418 286.97387695 C86.37867432 286.53132568 87.09450684 286.08877441 87.83203125 285.6328125 C88.46633057 285.24383789 89.10062988 284.85486328 89.75415039 284.45410156 C91.63955526 282.75123548 91.95710279 281.6207659 92.234375 279.1171875 C91.904375 278.1271875 91.574375 277.1371875 91.234375 276.1171875 C90.59056457 269.58409482 90.88972572 264.47802785 94.26171875 258.7734375 C95.40003846 256.96641044 95.40003846 256.96641044 96.234375 254.1171875 C97.796875 253.1171875 97.796875 253.1171875 100.234375 252.1171875 C102.02875 251.3128125 102.02875 251.3128125 103.859375 250.4921875 C110.58810293 248.00657532 117.31243267 248.87324424 124.234375 250.1171875 C138.18693533 228.61652076 148.64020739 206.76516756 152.234375 181.1171875 C152.42966797 179.73273438 152.42966797 179.73273438 152.62890625 178.3203125 C156.64700324 142.96105901 148.26639665 103.18389257 126.234375 74.6796875 C125.24637815 73.48218239 124.25149655 72.29005578 123.234375 71.1171875 C122.07421875 71.36855469 122.07421875 71.36855469 120.890625 71.625 C113.35000037 73.09952808 107.79451993 73.86316989 101.07421875 69.81640625 C95.82407756 66.12892051 92.54529577 62.52097744 91.234375 56.1171875 C91.14331662 54.49420584 91.10431106 52.86771371 91.109375 51.2421875 C91.10679687 50.41976562 91.10421875 49.59734375 91.1015625 48.75 C91.24962365 45.81490544 91.70385552 43.00557133 92.234375 40.1171875 C77.12646621 28.30726296 60.17480745 20.35747376 41.671875 15.3671875 C40.94129883 15.16843018 40.21072266 14.96967285 39.45800781 14.76489258 C27.60954502 11.73524947 15.74684982 10.74916818 3.546875 10.8046875 C2.23541504 10.81032715 0.92395508 10.8159668 -0.42724609 10.82177734 C-10.79456402 10.95065108 -20.67762063 11.70531746 -30.765625 14.1171875 Z M-117.578125 44.3046875 C-119.15210544 48.03253591 -119.35639126 51.12749207 -118.765625 55.1171875 C-117.00649379 59.28355089 -114.93198839 61.35805629 -110.765625 63.1171875 C-105.87557824 63.66052603 -103.77058629 63.63827854 -99.390625 61.3671875 C-95.42841629 57.9710086 -94.89551708 56.45940569 -94.390625 51.2421875 C-94.50327432 46.92932784 -95.93944561 44.41439679 -98.765625 41.1171875 C-101.7938208 38.7378908 -105.01331879 38.75443304 -108.8046875 38.8671875 C-112.85501804 39.3835643 -115.04135574 41.24306942 -117.578125 44.3046875 Z M102.484375 43.9296875 C100.84494255 46.79869429 100.36438483 48.80193691 100.234375 52.1171875 C101.47021894 56.33359623 102.65988121 58.59613499 105.921875 61.5546875 C109.91452253 63.4380118 112.90297612 64.1266968 117.234375 63.1171875 C120.90860275 61.0696553 123.99531469 58.20608652 125.234375 54.1171875 C125.74754389 50.18289268 125.41271515 48.44202135 123.484375 44.9296875 C120.79552319 41.46420748 120.79552319 41.46420748 117.234375 39.1171875 C110.81715492 38.50602368 107.1057568 39.14325635 102.484375 43.9296875 Z M-117.765625 264.1171875 C-119.27213276 268.63671077 -119.51126419 272.47678128 -117.515625 276.8671875 C-114.71877695 280.463135 -112.85215563 281.83549437 -108.390625 282.9921875 C-103.5086068 283.16053296 -100.66907036 281.69245262 -96.953125 278.6171875 C-94.50916647 275.53008199 -94.37800578 272.01459174 -94.40625 268.1875 C-95.04741529 264.4938304 -97.12494112 262.69499795 -99.765625 260.1171875 C-106.52690492 256.73654754 -112.99602881 258.85840196 -117.765625 264.1171875 Z M105.234375 261.1171875 C101.75239894 264.50753261 100.33199975 267.23595018 100.234375 272.1171875 C101.41280936 276.38901206 102.73237826 279.16878005 106.421875 281.6171875 C110.48270121 283.60896695 113.97716286 283.51240829 118.234375 282.1171875 C121.21317995 280.30400188 122.79940897 278.82895009 124.609375 275.8671875 C125.47600336 272.0540227 125.39451193 268.86298909 124.234375 265.1171875 C121.7141967 261.7075345 119.72713605 260.33619241 115.859375 258.6171875 C111.28389689 257.98608707 109.19663964 258.79963648 105.234375 261.1171875 Z " fill="#5D16EA" transform="translate(275.765625,125.8828125)"/>
<path d="M0 0 C4.0788417 3.49615003 8.71262531 8.45125668 9.16796875 14.07421875 C9.44253906 14.70972656 9.71710938 15.34523437 10 16 C12.39473966 16.94926617 14.58164969 17.62610642 17.0625 18.25 C44.35034779 25.93232702 66.64789623 44.42969916 80.8125 68.75 C85.49825038 77.12789836 91 88.27240882 91 98 C91.64066406 98.13535156 92.28132812 98.27070313 92.94140625 98.41015625 C99.67876391 100.08696509 103.81189238 102.41585651 108 108 C111.45691609 113.79869795 111.81487623 119.41617049 111 126 C109.22650547 132.74561313 105.77468489 137.16321612 100 141 C96.51977527 142.7805801 95.00849055 143 91 143 C90.87753906 144.0209375 90.75507813 145.041875 90.62890625 146.09375 C86.66555098 170.71086347 69.01511956 193.75479884 49.375 208.1875 C38.56860038 215.81634105 22.53981189 225 9 225 C8.9175 226.03125 8.835 227.0625 8.75 228.125 C7.41367517 235.02934494 3.60827887 238.96203922 -2 243 C-7.83439118 245.84935383 -15.00248307 246.1003618 -21.2421875 244.3828125 C-26.71148903 241.97802233 -30.76559665 237.98151873 -34 233 C-35.04161628 230.27790946 -35.53404259 227.89929056 -36 225 C-37.299375 224.814375 -38.59875 224.62875 -39.9375 224.4375 C-65.05132245 219.32237916 -87.90242632 202.02874398 -102 181 C-108.78563469 170.48948499 -114.11955791 159.50592495 -116.8359375 147.21875 C-117.65146444 143.9025399 -117.65146444 143.9025399 -120.13671875 142.72265625 C-120.97847656 142.50480469 -121.82023437 142.28695312 -122.6875 142.0625 C-129.14699379 139.90310338 -132.76042652 135.85576052 -136.13671875 130.04296875 C-138.77981077 123.78804963 -138.44780101 117.26701879 -136.0078125 111.03515625 C-133.06489144 105.09228079 -128.91399056 101.80136395 -123 99 C-119.5625 98.25 -119.5625 98.25 -117 98 C-116.8865625 96.83597656 -116.773125 95.67195313 -116.65625 94.47265625 C-116.12354415 90.26372511 -115.0096959 86.39551359 -113.5 82.4375 C-113.23936768 81.75276611 -112.97873535 81.06803223 -112.71020508 80.36254883 C-102.23562135 54.04172254 -80.7108757 32.98224612 -54.875 21.75 C-48.54014747 19.11965906 -42.92539507 17 -36 17 C-35.9071875 15.7625 -35.9071875 15.7625 -35.8125 14.5 C-34.52069173 8.93528746 -31.71245541 4.76002362 -27.75 0.6875 C-18.89671595 -4.74519703 -9.02012673 -5.8735709 0 0 Z M-23 11 C-25.59492233 15.1208401 -25.82710432 19.26667035 -25 24 C-23.28631391 27.07061968 -21.19098548 29.40450726 -18 31 C-13.17089 31.52137294 -9.25833154 31.73402673 -5 29.25 C-1.9896239 25.86332689 -1.10289924 24.13189161 -0.6875 19.5625 C-1.02924777 15.66657541 -1.5548457 14.01569031 -4 11 C-6.99976495 8.53352659 -9.09623095 7.15383303 -12.9375 6.5 C-17.13452614 7.18522876 -19.48790602 8.56855032 -23 11 Z M-83.75390625 54.69140625 C-94.16373266 65.60980433 -107 84.15656718 -107 100 C-105.40938817 101.29521916 -105.40938817 101.29521916 -103.3125 102.25 C-97.73303186 105.43544103 -95.00262425 109.99212724 -93 116 C-92.02581399 123.58473395 -93.36464126 129.8406877 -98 136 C-100.82356445 138.3702832 -103.75428716 140.26046763 -107 142 C-105.94615786 151.14046756 -102.15151417 158.92799255 -98 167 C-97.54753906 167.88816406 -97.09507812 168.77632812 -96.62890625 169.69140625 C-84.37239044 191.7676825 -63.41679716 205.9339042 -40 214 C-38.34179409 214.37315153 -36.67714323 214.72417493 -35 215 C-34.5875 214.32453125 -34.175 213.6490625 -33.75 212.953125 C-30.01109129 207.17784636 -26.925828 202.62288379 -20 201 C-12.36273486 200.10037228 -5.2739278 200.15331644 1 205 C4.06425548 207.93854243 6.17333866 211.18211324 8 215 C26.5351491 210.68774082 41.30674827 202.06974114 55 189 C55.60199219 188.47277344 56.20398438 187.94554687 56.82421875 187.40234375 C69.11579213 176.19953445 78.37905751 158.30808659 81 142 C80.46890625 141.69707031 79.9378125 141.39414062 79.390625 141.08203125 C73.22971089 137.42820445 69.36023291 133.93194456 67 127 C65.90986644 119.00219319 66.61780521 112.75966539 71.19921875 106.03515625 C73.83832857 103.05256142 76.36867725 101.59778201 80 100 C78.2887626 82.12051961 68.28253623 66.64316337 56 54 C55.32582031 53.25234375 54.65164063 52.5046875 53.95703125 51.734375 C42.31796273 39.24366732 27.32152825 31.6279658 11 27 C10.01 27 9.02 27 8 27 C6.55195241 28.87236356 6.55195241 28.87236356 5.25 31.25 C2.02599436 36.35066563 -1.06082622 38.83956203 -6.94921875 40.57421875 C-14.26480385 42.09307356 -20.6954166 41.06899942 -27 37 C-30.26501394 33.9882471 -32.58917426 31.23247721 -34 27 C-52.64425458 27 -71.15888061 42.38222516 -83.75390625 54.69140625 Z M-121 110 C-124.74167613 113.32593434 -126.8289794 115.22138574 -127.3125 120.25 C-126.86564155 125.61230138 -124.7821449 128.4215288 -120.8125 131.9375 C-116.69699949 133.49224464 -113.19566555 133.26934085 -109 132 C-105.82218971 129.41802914 -103.31012948 127.21521055 -102.7265625 123.046875 C-102.54609615 118.96555917 -102.54036771 115.91156091 -105.0625 112.5625 C-110.20729822 108.07448453 -114.79915146 106.89957573 -121 110 Z M78.625 112.6875 C76.33336739 115.94866949 75.81918965 119.09751 76 123 C77.28514514 126.9310322 78.62051712 128.67226478 81.75 131.375 C85.61081305 133.30540652 87.73431986 133.60938288 92 133 C95.68007515 131.15996243 97.60447652 129.57414699 99.9375 126.1875 C101.26673213 122.19980361 101.15428527 120.03999845 100 116 C97.53996062 112.16523273 95.76673057 110.35496785 91.625 108.4375 C86.20787501 107.78370905 82.97338752 109.59785624 78.625 112.6875 Z M-23.875 215.6875 C-25.68841481 219.41507488 -25.758111 222.94972177 -25 227 C-23.32700113 230.14019232 -20.96962062 232.23099054 -18.1875 234.4375 C-14.68142659 235.33906173 -11.43717173 234.94983473 -8 234 C-4.59345816 231.85239754 -2.22171476 229.88727423 -1 226 C-0.5349166 221.81424941 -0.73052369 219.53895262 -2.625 215.75 C-5.80278 212.07046526 -8.71220066 210.40036489 -13.5 209.5625 C-17.8053877 210.31594285 -20.69136063 212.82222457 -23.875 215.6875 Z " fill="#5D16EA" transform="translate(292,166)"/>
</svg>
