<?xml version="1.0" encoding="UTF-8"?>
<svg version="1.1" xmlns="http://www.w3.org/2000/svg" width="627" height="627">
<path d="M0 0 C1.4728971 -0.0034586 2.94579161 -0.00822452 4.41868073 -0.01418173 C8.45785292 -0.02669385 12.4968122 -0.0205204 16.53598511 -0.01122308 C20.89530696 -0.00443373 25.25459227 -0.01491329 29.61390686 -0.02316284 C38.15083568 -0.03650391 46.68768537 -0.03362067 55.22461729 -0.02492492 C62.16327139 -0.01814982 69.10190331 -0.01723091 76.04055977 -0.02049637 C77.52187839 -0.02118592 77.52187839 -0.02118592 79.03312265 -0.0218894 C81.03931507 -0.02284857 83.04550748 -0.02382121 85.05169988 -0.02480717 C103.86494235 -0.03336228 122.67814096 -0.02352527 141.49137623 -0.00740607 C157.63197319 0.00599514 173.77250541 0.00367087 189.9131012 -0.01016235 C208.65746837 -0.02621961 227.4017971 -0.0325361 246.1461702 -0.02332556 C248.14528882 -0.02236992 250.14440745 -0.02142681 252.14352608 -0.02049637 C253.61892121 -0.01980213 253.61892121 -0.01980213 255.1241223 -0.01909386 C262.05346517 -0.01650426 268.98278364 -0.02087438 275.91212273 -0.02793503 C284.3581621 -0.03635193 292.80411783 -0.03406595 301.25014763 -0.0180928 C305.55897614 -0.01021234 309.86766524 -0.00711462 314.17649269 -0.01704025 C318.12244801 -0.02599244 322.06813495 -0.02104573 326.01406599 -0.0051076 C327.43996274 -0.00176198 328.86588225 -0.00344895 330.29176431 -0.01073496 C340.36852785 -0.05826754 348.35296641 0.51992402 356.05348206 7.56845093 C361.60838358 13.83967795 363.78609506 20.3164251 363.77920532 28.55654907 C363.78126732 30.45798172 363.78126732 30.45798172 363.78337097 32.39782715 C363.77983205 33.80007958 363.77619725 35.20233178 363.7724762 36.60458374 C363.77219409 38.08298745 363.77235252 39.5613913 363.7729187 41.03979492 C363.77320575 45.05183906 363.76732398 49.06385334 363.76034474 53.07589054 C363.75409578 57.26927095 363.75350618 61.46265203 363.75231934 65.65603638 C363.74921058 73.59616964 363.74100331 81.53628915 363.73096985 89.47641635 C363.71979459 98.51623849 363.71429469 107.55606129 363.70927441 116.59588861 C363.69882033 135.19091719 363.68122968 153.78593295 363.65895081 172.38095093 C364.30855774 172.36000366 364.95816467 172.3390564 365.62745667 172.31747437 C368.61695914 172.2334951 371.60621239 172.18203493 374.59645081 172.13095093 C375.61803284 172.0974353 376.63961487 172.06391968 377.69215393 172.02938843 C385.88486508 171.92468924 392.00371203 173.39030102 398.40895081 178.63095093 C402.79275459 183.98893333 406.7697966 189.3135409 406.7993927 196.44630432 C406.80510284 197.27186829 406.81081299 198.09743225 406.81669617 198.94801331 C406.81781403 199.85038223 406.81893188 200.75275116 406.82008362 201.6824646 C406.82504852 202.63565582 406.83001343 203.58884705 406.83512878 204.57092285 C406.84975528 207.73026244 406.85655411 210.88955177 406.86207581 214.04891968 C406.86782793 216.24507143 406.87358566 218.44122316 406.87934875 220.63737488 C406.88986087 225.24664545 406.89570181 229.85589857 406.89918518 234.46517944 C406.90466286 240.36200271 406.92867462 246.25859426 406.95715714 252.15534496 C406.97581416 256.69448003 406.98099081 261.23355971 406.98252106 265.77272987 C406.98554242 267.9459694 406.99355346 270.11920807 407.00670624 272.2924099 C407.02382652 275.33927194 407.02187147 278.38557351 407.01539612 281.4324646 C407.0246109 282.32471237 407.03382568 283.21696014 407.0433197 284.13624573 C406.99029462 292.13085577 405.02494699 298.77656885 399.53395081 304.77548218 C391.54531999 311.61574731 382.9064612 312.54097526 372.84645081 312.44345093 C371.96279846 312.43893921 371.07914612 312.43442749 370.16871643 312.42977905 C367.99876522 312.41804959 365.82884909 312.40011588 363.65895081 312.38095093 C363.66263798 313.14479284 363.66632515 313.90863476 363.67012405 314.6956234 C363.75858386 333.30888893 363.82471326 351.92211232 363.86619949 370.53554344 C363.88679683 379.53698669 363.91486315 388.53828934 363.96070862 397.53964233 C364.00066321 405.38813678 364.02640417 413.23652937 364.03530478 421.0851227 C364.04050499 425.23829744 364.05266784 429.39118086 364.08187103 433.54426193 C364.10917674 437.45950149 364.11736551 441.37433185 364.11138153 445.28965759 C364.11247504 446.72065587 364.12033851 448.15166892 364.13577271 449.58258438 C364.23602961 459.36359176 363.02289323 466.68812529 358.03395081 475.13095093 C351.06852734 481.72977315 344.04552417 484.49923993 334.55871296 484.515172 C333.32528607 484.51962985 332.09185917 484.52408769 330.82105571 484.52868062 C329.45527859 484.52859133 328.08950146 484.5284015 326.72372437 484.52812195 C325.27048049 484.53142254 323.81723753 484.53514852 322.36399573 484.53926343 C318.36984166 484.54926906 314.37570262 484.5529979 310.3815378 484.55565274 C306.07395756 484.55955998 301.76638918 484.56913793 297.45881653 484.5778656 C287.05661282 484.59761665 276.65440815 484.60769384 266.25219038 484.61659339 C261.35269341 484.62097793 256.45319752 484.62634426 251.5537014 484.63158226 C235.26579036 484.64859208 218.97787999 484.66308661 202.68996143 484.670331 C198.4643739 484.67224086 194.23878637 484.6741612 190.01319885 484.67611694 C188.43784425 484.67684255 188.43784425 484.67684255 186.8306643 484.67758282 C169.81457328 484.68588454 152.79855253 484.71122496 135.7824922 484.74369762 C118.31003247 484.77676932 100.83760845 484.7947798 83.36511725 484.79797524 C73.55589577 484.80014008 63.7467768 484.80888504 53.93758583 484.83443642 C45.58451051 484.85614478 37.23156262 484.8641931 28.87846229 484.85446963 C24.61795344 484.84992553 20.3577075 484.85181756 16.09723473 484.87123108 C12.19298549 484.88886753 8.28919087 484.88786138 4.38493677 484.87233379 C2.97643295 484.86995845 1.56789761 484.87427749 0.15944193 484.88616244 C-9.79225648 484.96490153 -17.28920143 483.71707681 -25.65354919 478.19345093 C-31.40527624 472.1742017 -34.46820404 465.60253846 -34.46130371 457.28764343 C-34.46267838 456.01298218 -34.46405304 454.73832092 -34.46546936 453.42503357 C-34.46193021 452.00970436 -34.4582954 450.59437538 -34.45457458 449.17904663 C-34.45429256 447.69093833 -34.45445075 446.2028299 -34.45501709 444.71472168 C-34.45530446 440.67162769 -34.44941743 436.62856327 -34.44244313 432.58547616 C-34.4361996 428.36139338 -34.435605 424.13730995 -34.43441772 419.91322327 C-34.43130737 411.91284961 -34.42309794 403.9124896 -34.41306823 395.91212195 C-34.40189795 386.80460964 -34.39639433 377.69709668 -34.3913728 368.58957922 C-34.3809151 349.85336206 -34.36332135 331.11715759 -34.34104919 312.38095093 C-35.61979919 312.40415405 -36.89854919 312.42735718 -38.21604919 312.45126343 C-39.92437664 312.47003626 -41.63271046 312.48823482 -43.34104919 312.50595093 C-44.18022888 312.52270874 -45.01940857 312.53946655 -45.88401794 312.55673218 C-54.8116976 312.625939 -63.27487934 311.16170276 -70.00511169 304.81063843 C-76.30057487 297.89493258 -77.79056058 291.59635423 -77.76097107 282.47348022 C-77.76944061 281.50341034 -77.77791016 280.53334045 -77.78663635 279.53387451 C-77.80995183 276.34083791 -77.81102967 273.14828483 -77.80979919 269.95516968 C-77.81690476 267.72468373 -77.82460434 265.4941996 -77.83287048 263.26371765 C-77.84630334 258.59253864 -77.84788969 253.92152859 -77.84202576 249.25033569 C-77.83613528 243.28185757 -77.86670072 237.31419446 -77.90714264 231.34587383 C-77.93306963 226.73971738 -77.9358924 222.13375575 -77.93225098 217.52753639 C-77.93393797 215.32803108 -77.94353973 213.12851636 -77.96139526 210.92908287 C-77.98368016 207.84437893 -77.97383363 204.76130647 -77.95628357 201.67660522 C-77.97617844 200.33039345 -77.97617844 200.33039345 -77.99647522 198.95698547 C-77.89498472 191.2292998 -75.36796354 184.66581102 -70.09495544 178.94345093 C-69.01020935 178.17001343 -69.01020935 178.17001343 -67.90354919 177.38095093 C-66.82267029 176.57657593 -66.82267029 176.57657593 -65.71995544 175.75595093 C-59.10923052 171.93497363 -52.89364709 172.13703618 -45.46604919 172.25595093 C-44.39612732 172.26497437 -43.32620544 172.2739978 -42.22386169 172.28329468 C-39.59602481 172.30675751 -36.96865513 172.33958634 -34.34104919 172.38095093 C-34.34565816 171.60680155 -34.35026712 170.83265217 -34.35501575 170.03504372 C-34.46558587 151.17144444 -34.54824989 132.3079101 -34.60011005 113.44405556 C-34.62585787 104.32150232 -34.66094267 95.19916581 -34.71824646 86.07675171 C-34.76818655 78.1227813 -34.80036508 70.1689679 -34.81149167 62.21484506 C-34.81799256 58.00570949 -34.83319928 53.79702298 -34.86969948 49.58803177 C-34.90382709 45.62020423 -34.91406876 41.65300753 -34.9065876 37.68504715 C-34.90795472 36.2346859 -34.91778748 34.78430192 -34.93707657 33.3340683 C-35.06048518 23.57061474 -34.22007043 15.6237134 -27.35107899 8.24262428 C-18.96649681 0.23993016 -11.15660339 -0.05691137 0 0 Z M-15.34104919 24.38095093 C-15.34104919 73.22095093 -15.34104919 122.06095093 -15.34104919 172.38095093 C103.45895081 172.38095093 222.25895081 172.38095093 344.65895081 172.38095093 C358.49003751 90.82770556 358.49003751 90.82770556 340.65895081 20.38095093 C337.48041602 19.32143933 335.22708772 19.25135168 331.88733959 19.24393654 C330.07082277 19.23632472 330.07082277 19.23632472 328.21760863 19.22855914 C326.86677249 19.22795745 325.51593631 19.22745837 324.1651001 19.22705078 C322.73548014 19.22303639 321.30586133 19.21859821 319.87624389 19.21377122 C315.93826032 19.20179756 312.000289 19.19615546 308.06229079 19.19159007 C303.81882715 19.18563712 299.57537818 19.17402665 295.33192444 19.16329956 C285.08019062 19.13877071 274.82845193 19.12414884 264.5766978 19.11123949 C261.68225294 19.10752828 258.78780857 19.103555 255.89336419 19.09948683 C237.92687567 19.07425392 219.96038641 19.05219655 201.99388409 19.03975868 C197.83186528 19.0368289 193.6698465 19.03386724 189.50782776 19.03085327 C188.4733548 19.03010722 187.43888184 19.02936117 186.37306122 19.02859251 C169.60631716 19.01593242 152.839679 18.98270059 136.07298448 18.94105144 C118.867291 18.8986613 101.66165179 18.87506714 84.45590621 18.86983812 C74.79207204 18.86642097 65.12840344 18.85462983 55.46462059 18.82173538 C47.23652915 18.79377399 39.0086372 18.78271836 30.78050192 18.79393084 C26.58120076 18.79912731 22.38231764 18.79616704 18.18307686 18.7714653 C14.33931822 18.74904298 10.49627961 18.74965717 6.65250895 18.76866917 C5.26150874 18.7714791 3.87046042 18.76581554 2.47953781 18.75085624 C0.58914579 18.7317671 -1.30149727 18.74652135 -3.19191456 18.76291847 C-4.24211366 18.76156194 -5.29231275 18.76020541 -6.37433606 18.75880778 C-10.22693415 19.32469197 -10.22693415 19.32469197 -15.34104919 24.38095093 Z M-58.34104919 196.38095093 C-59.06576335 198.36892294 -59.06576335 198.36892294 -58.96923828 200.40328979 C-58.98189224 201.16862534 -58.9945462 201.93396088 -59.00758362 202.7224884 C-58.99589142 203.54757401 -58.98419922 204.37265961 -58.97215271 205.2227478 C-58.97930801 206.10302139 -58.98646332 206.98329498 -58.99383545 207.89024353 C-59.01071522 210.7939273 -58.99132423 213.69606556 -58.96995544 216.59970093 C-58.97078421 218.62082039 -58.97324388 220.64193979 -58.9772644 222.66305542 C-58.98012192 226.89653845 -58.96542552 231.12949228 -58.93797302 235.36288452 C-58.90389057 240.78708163 -58.90990903 246.21033249 -58.9286356 251.63457489 C-58.93920851 255.80736159 -58.93026506 259.97992844 -58.91525078 264.1526947 C-58.91007066 266.15255582 -58.91054869 268.15243991 -58.91679573 270.15229797 C-58.92225139 272.94841817 -58.90186164 275.74318778 -58.87449646 278.53915405 C-58.88102234 279.36423965 -58.88754822 280.18932526 -58.89427185 281.03941345 C-58.82963047 284.92738679 -58.59181397 286.96049568 -56.55770874 290.37106323 C-52.53979482 294.01418279 -48.41956842 293.50673296 -43.14735508 293.50958538 C-42.418237 293.51133842 -41.68911892 293.51309146 -40.93790635 293.51489761 C-38.48165673 293.51956933 -36.025466 293.51708911 -33.56921387 293.5146637 C-31.79566046 293.51653107 -30.02210746 293.51883148 -28.24855512 293.52152902 C-23.36456417 293.52766239 -18.48059029 293.52751162 -13.59659636 293.52633464 C-8.33339715 293.52613103 -3.07020348 293.53164562 2.19299316 293.53639221 C12.50799336 293.54470752 22.82298785 293.54744744 33.13799112 293.54800459 C41.51933828 293.54847929 49.90068355 293.55053173 58.28203011 293.55370522 C82.02820737 293.56251384 105.7743801 293.56712421 129.52055901 293.56637474 C130.80139187 293.56633479 132.08222474 293.56629483 133.40187073 293.56625366 C134.68426152 293.56621278 135.96665231 293.5661719 137.28790344 293.56612978 C158.08062817 293.56572315 178.8733348 293.57529646 199.6660543 293.58939203 C220.99971048 293.60374058 242.33335782 293.61066307 263.66701895 293.60979825 C275.65079198 293.60946578 287.63454604 293.61223496 299.61831474 293.6229763 C309.81972057 293.63206127 320.02109882 293.63427307 330.22250693 293.62746688 C335.4301337 293.62419164 340.63770749 293.62418104 345.84532928 293.63282013 C350.60906927 293.64064179 355.3727139 293.63929839 360.13645143 293.630536 C361.86319313 293.62899141 363.5899418 293.63085293 365.3166753 293.63639607 C367.6577054 293.64341568 369.99839724 293.63819459 372.33941555 293.6298399 C374.29267212 293.63016595 374.29267212 293.63016595 376.28538841 293.63049859 C380.4066933 293.32563925 383.33232604 292.5519723 386.44718933 289.80245972 C388.26209533 286.17566442 388.0761455 282.6031768 388.0471344 278.6368103 C388.05239136 277.75507645 388.05764832 276.87334259 388.06306458 275.96488953 C388.07626458 273.05131294 388.06752645 270.13828304 388.05738831 267.22470093 C388.05940904 265.19975683 388.06232047 263.17481343 388.06608582 261.14987183 C388.07050917 256.90635244 388.06407766 252.66302251 388.05006409 248.41952515 C388.03297228 242.9785326 388.04281339 237.537984 388.06078148 232.09700775 C388.07161894 227.91572725 388.06817313 223.7345521 388.0603981 219.55326843 C388.058396 217.54699145 388.06085573 215.54070492 388.06783676 213.53443909 C388.07545054 210.73106527 388.06384799 207.92841169 388.0471344 205.12509155 C388.05624344 203.87971367 388.05624344 203.87971367 388.0655365 202.60917664 C388.0289961 199.3030316 387.9050209 196.83820549 386.32218933 193.89694214 C382.84862841 190.73089725 378.97207363 191.25182905 374.51021767 191.24393654 C373.77381156 191.24128471 373.03740546 191.23863289 372.27868402 191.2359007 C369.79162687 191.22819318 367.30461897 191.22764798 364.81755066 191.22705078 C363.02423583 191.22303714 361.2309219 191.21859908 359.43760908 191.21377122 C354.49435624 191.20178935 349.55111317 191.19615356 344.60784864 191.19159007 C339.28259609 191.18564027 333.95735526 191.17402906 328.6321106 191.16329956 C315.7656004 191.1387641 302.89908632 191.12414818 290.03255993 191.11123949 C286.40062136 191.10752886 282.76868317 191.10355554 279.13674498 191.09948683 C256.59808259 191.0742553 234.05941962 191.05219541 211.52074623 191.03975868 C206.29891075 191.03682884 201.0770753 191.0338672 195.85523987 191.03085327 C194.5573305 191.03010722 193.25942113 191.02936117 191.92218117 191.02859251 C170.88039812 191.01592939 149.83869938 190.98269381 128.79695578 190.94105144 C107.2102092 190.89867938 85.62350585 190.87506926 64.03671777 190.86983812 C51.9097982 190.86641899 39.78301048 190.85460454 27.65613174 190.82173538 C17.33206614 190.79379888 7.0081594 190.78270742 -3.31594108 190.79393084 C-8.58645183 190.79913359 -13.85662953 190.79612605 -19.12709236 190.7714653 C-23.94839121 190.74909373 -28.76911544 190.74961792 -33.59042354 190.76866917 C-35.33806377 190.77148622 -37.08574198 190.76577688 -38.83332078 190.75085624 C-41.20313197 190.73185406 -43.57087207 190.74346575 -45.94063377 190.76291847 C-47.2585357 190.76156194 -48.57643763 190.76020541 -49.93427598 190.75880778 C-54.19426732 191.53676518 -55.6680126 193.04995887 -58.34104919 196.38095093 Z M-15.34104919 312.38095093 C-15.34104919 360.89095093 -15.34104919 409.40095093 -15.34104919 459.38095093 C-9.78511618 465.12829126 -9.78511618 465.12829126 -2.72372055 465.51237869 C-1.52166717 465.51621984 -0.3196138 465.52006098 0.91886544 465.52401853 C2.26478344 465.52323819 3.61070139 465.52235939 4.95661926 465.52139282 C6.37712617 465.52397503 7.79763234 465.52698778 9.2181375 465.53039622 C13.13558172 465.5384866 17.05300764 465.54025693 20.97045922 465.54099369 C25.19007884 465.54284073 29.40968888 465.55038633 33.62930298 465.55712891 C42.8627627 465.57072756 52.09621809 465.57673943 61.32968616 465.58113956 C67.09241389 465.58389959 72.85513993 465.58813652 78.61786652 465.59264374 C94.56510437 465.60483877 110.51234087 465.61513738 126.45958328 465.61851883 C127.99145268 465.61884818 127.99145268 465.61884818 129.55426894 465.61918418 C130.57799704 465.61940246 131.60172514 465.61962074 132.65647531 465.61984563 C134.73103094 465.6202891 136.80558658 465.62073566 138.88014221 465.6211853 C140.42372806 465.62151745 140.42372806 465.62151745 141.99849746 465.6218563 C158.6747421 465.62580471 175.35094305 465.64325899 192.02717081 465.66654482 C209.13791261 465.69024502 226.24863248 465.70272009 243.35939097 465.70388675 C252.97065404 465.7048043 262.58186019 465.71057664 272.1931076 465.72870636 C280.37727496 465.74408943 288.56136784 465.74923846 296.74554691 465.74096826 C300.92245986 465.73705528 305.09922274 465.7380228 309.27611732 465.7520256 C313.09941321 465.76472593 316.92244566 465.76360127 320.74574098 465.75143489 C322.12936138 465.74947114 323.51300018 465.75258753 324.89659467 465.76127926 C326.7771185 465.77234532 328.65772898 465.76310839 330.5382576 465.75288773 C332.10525607 465.75378336 332.10525607 465.75378336 333.70391107 465.75469708 C337.2412603 465.30730186 339.6197135 464.22530556 342.65895081 462.38095093 C370.39642584 420.77473837 344.65895081 362.38539517 344.65895081 312.38095093 C225.85895081 312.38095093 107.05895081 312.38095093 -15.34104919 312.38095093 Z " fill="#5815DE" transform="translate(171.34104919433594,92.61904907226563)"/>
<path d="M0 0 C0.90688507 -0.00538554 1.81377014 -0.01077108 2.74813658 -0.01631981 C5.77579848 -0.0305853 8.8030223 -0.02349908 11.83070374 -0.01637268 C14.00592398 -0.02207696 16.18114123 -0.02904145 18.35635376 -0.03717041 C24.25715784 -0.0551101 30.15781327 -0.0539319 36.05863643 -0.04822803 C40.98665041 -0.04513746 45.91463579 -0.05122714 50.8426457 -0.05726677 C62.46889759 -0.07131297 74.09507599 -0.0697498 85.72132874 -0.05836487 C97.71212612 -0.04688238 109.70260839 -0.06096134 121.69338316 -0.08776134 C131.99251853 -0.10991786 142.2915837 -0.11655584 152.59074122 -0.11068493 C158.74011341 -0.1073142 164.88934224 -0.10973837 171.03869438 -0.12693596 C176.82129262 -0.14240216 182.60355951 -0.13845281 188.38614464 -0.11963081 C190.50652757 -0.11594413 192.62693504 -0.11905567 194.74729538 -0.1295166 C197.64563245 -0.14272242 200.54287193 -0.13118225 203.44116211 -0.11352539 C204.27687506 -0.1231304 205.11258801 -0.1327354 205.9736256 -0.14263147 C213.67869912 -0.04629131 220.30392686 2.90753404 225.78407288 8.38768005 C229.62592964 14.37357587 231.89681338 19.26309365 231.96107483 26.44456482 C231.97391006 27.69338943 231.9867453 28.94221405 231.99996948 30.22888184 C232.00814098 31.5956126 232.01558393 32.96234788 232.02235413 34.3290863 C232.02642965 35.01993757 232.03050518 35.71078884 232.03470421 36.422575 C232.0555582 40.08452427 232.0698586 43.74643623 232.07923889 47.40843201 C232.09025746 51.16859507 232.12460528 54.92815885 232.16441059 58.68811131 C232.19072394 61.59744264 232.19894399 64.50663493 232.20252037 67.41607475 C232.20735433 68.80060273 232.21887596 70.18512585 232.23755836 71.56953621 C232.35792584 81.08626471 231.75389016 89.29447279 225.74110413 97.0087738 C225.03340881 97.60818787 224.3257135 98.20760193 223.59657288 98.82518005 C222.90176819 99.44264099 222.2069635 100.06010193 221.49110413 100.6962738 C214.92400336 104.79952724 208.19505465 105.8321244 200.5756073 105.77536011 C199.25264344 105.78343841 199.25264344 105.78343841 197.90295303 105.79167992 C194.97141668 105.80589506 192.04033601 105.79887174 189.10877991 105.79173279 C186.99724466 105.79743974 184.8857125 105.80440526 182.77418518 105.81253052 C177.05510902 105.83044158 171.33618647 105.82929728 165.6170907 105.82358813 C160.83589321 105.82049313 156.0547251 105.82659226 151.27353179 105.83262688 C139.99039944 105.84666395 128.70734282 105.84511777 117.42420959 105.83372498 C105.79927167 105.82224615 94.17456451 105.83631748 82.54965699 105.86312145 C72.55446538 105.88530151 62.55934608 105.89191057 52.56413162 105.88604504 C46.60081001 105.88267961 40.6376363 105.88506307 34.67433548 105.90229607 C29.06488181 105.91779962 23.4557691 105.91377158 17.84632874 105.89499092 C15.79331908 105.89131442 13.74028397 105.89438596 11.68729782 105.90487671 C-12.24847907 106.01780501 -12.24847907 106.01780501 -21.15342712 98.20018005 C-28.4839991 89.86463283 -28.83014165 81.15119162 -28.78233337 70.4228363 C-28.78758045 68.97991539 -28.79386086 67.5369979 -28.80111694 66.09408569 C-28.81147433 63.08249167 -28.80702799 60.07137152 -28.79234314 57.05979919 C-28.77516463 53.22553658 -28.79866122 49.39277404 -28.83383274 45.55867863 C-28.85593288 42.58236003 -28.85433513 39.60639344 -28.84606743 36.63001823 C-28.84525472 35.21760348 -28.85198617 33.80516107 -28.86683846 32.39282417 C-28.95197501 22.83364348 -28.17123653 14.76236804 -21.46057129 7.48376465 C-15.07225351 1.43488926 -8.51805314 -0.06109466 0 0 Z M-9.21592712 24.38768005 C-9.95476977 27.0967354 -9.95476977 27.0967354 -9.84703064 30.0165863 C-9.85956375 31.1212323 -9.87209686 32.2258783 -9.88500977 33.36399841 C-9.87175156 34.54743835 -9.85849335 35.7308783 -9.84483337 36.95018005 C-9.84724533 38.17422546 -9.84965729 39.39827087 -9.85214233 40.65940857 C-9.8511637 43.24497215 -9.83776663 45.83055665 -9.81285095 48.41600037 C-9.77855063 52.37343026 -9.79219219 56.32862667 -9.81163025 60.28611755 C-9.80473171 62.79914789 -9.79505927 65.31217247 -9.78233337 67.82518005 C-9.78729324 69.00862 -9.79225311 70.19205994 -9.79736328 71.41136169 C-9.75964965 77.81983171 -9.75964965 77.81983171 -7.30552673 83.6103363 C-3.40248315 86.93013503 0.04981816 86.53597239 4.96334839 86.53485107 C6.24693891 86.54036611 6.24693891 86.54036611 7.55646056 86.54599255 C10.44068691 86.55705724 13.32487727 86.56087793 16.2091217 86.56468201 C18.2702445 86.5709445 20.33136616 86.57759111 22.39248657 86.58459473 C28.00409121 86.60202314 33.61568732 86.61256127 39.22731233 86.62080026 C42.7306618 86.62594597 46.2340086 86.63202186 49.73735619 86.63831139 C60.69105398 86.65736765 71.64474501 86.67159848 82.5984562 86.67992336 C95.25674853 86.68970171 107.91486627 86.71603511 120.57309705 86.75642425 C130.34808307 86.7865471 140.12301894 86.80138855 149.89805049 86.80470437 C155.74058212 86.80705902 161.58292733 86.81607354 167.42540932 86.84116554 C172.92063682 86.86438456 178.41555433 86.86870434 183.9108181 86.85840416 C185.92926436 86.8579072 187.94772556 86.8642745 189.96612549 86.87796021 C192.71907391 86.89558412 195.47089835 86.88862 198.22384644 86.87542725 C199.02501713 86.88639649 199.82618783 86.89736574 200.65163642 86.90866739 C204.4085532 86.86511675 206.56173338 86.53020735 209.75658703 84.48219585 C212.85223487 81.28420396 212.91958615 79.44926894 212.97694397 75.09934998 C212.9930069 73.99447739 213.00906982 72.8896048 213.02561951 71.75125122 C213.06999322 66.69606582 213.11113088 61.64101261 213.13417053 56.5856781 C213.14750575 53.91676444 213.17803089 51.24965818 213.21620178 48.58079529 C213.27088639 44.73884492 213.29283274 40.89793562 213.30751038 37.0556488 C213.34151443 35.26637215 213.34151443 35.26637215 213.37620544 33.44094849 C213.37335541 32.32661942 213.37050537 31.21229034 213.36756897 30.06419373 C213.37969925 28.59764595 213.37969925 28.59764595 213.39207458 27.10147095 C212.51723509 23.19666046 210.90934623 21.85630976 207.78407288 19.38768005 C204.72431557 18.8955685 202.22370831 18.71052522 199.16810608 18.75276184 C198.30164868 18.74496189 197.43519129 18.73716193 196.54247761 18.72912562 C193.63950375 18.70918396 190.73783768 18.72497861 187.83485413 18.7407074 C185.75357803 18.73393225 183.67230792 18.7250297 181.59104919 18.7141571 C175.93814803 18.69134518 170.28570266 18.70020814 164.63279343 18.71605253 C158.72007254 18.72870159 152.80739098 18.71697418 146.89466858 18.7091217 C136.96482834 18.70002227 127.03517397 18.71202088 117.10536194 18.73582458 C105.62119686 18.76303627 94.13747559 18.75422232 82.65332127 18.72669256 C72.79755889 18.70401098 62.94193021 18.7007968 53.08615017 18.7138859 C47.19783693 18.72168559 41.30973237 18.72270762 35.4214325 18.70620346 C29.88582687 18.69177197 24.35079406 18.70175679 18.8152504 18.73067474 C16.78230872 18.73729255 14.74931894 18.73537609 12.71639633 18.72436142 C9.9436242 18.71072195 7.17269402 18.72780207 4.40003967 18.75276184 C3.59313344 18.74160823 2.78622721 18.73045462 1.95486927 18.71896303 C-3.50179025 18.81441857 -5.91729579 20.05383231 -9.21592712 24.38768005 Z " fill="#5815DE" transform="translate(234.21592712402344,135.61231994628906)"/>
<path d="M0 0 C0.74294754 -0.00453111 1.48589508 -0.00906223 2.25135618 -0.01373065 C4.74792017 -0.02641971 7.24426726 -0.0247514 9.74085999 -0.02310181 C11.52789593 -0.0290842 13.31492929 -0.03588908 15.10195923 -0.04345703 C19.96141308 -0.06115251 24.82079654 -0.06581387 29.68027949 -0.0670886 C33.73363097 -0.06898562 37.78696597 -0.07634078 41.84031111 -0.08343279 C51.4009192 -0.09972743 60.96148961 -0.10460072 70.52210999 -0.10317993 C80.39296721 -0.10197785 90.26360601 -0.12309057 100.13440794 -0.15466726 C108.60241189 -0.18079366 117.07034434 -0.19154878 125.53838831 -0.19026911 C130.59895249 -0.18975846 135.65932259 -0.19549883 140.71984673 -0.21662521 C145.47805885 -0.23594673 150.23589052 -0.23617397 154.99411583 -0.22159195 C156.74206852 -0.21949524 158.49004464 -0.2242558 160.237957 -0.23631287 C162.62124751 -0.25169013 165.00321377 -0.24250847 167.38647461 -0.22705078 C168.08092947 -0.23733791 168.77538434 -0.24762503 169.49088329 -0.25822389 C172.85439808 -0.20989298 174.49779678 0.06250166 177.17049503 2.17772484 C179.6171552 5.40094862 180.09459071 8.26683728 179.75672913 12.26742554 C176.89541526 17.88786349 176.89541526 17.88786349 172.75672913 19.26742554 C170.3967759 19.36635905 168.03406275 19.40247664 165.67204285 19.40786743 C164.5831812 19.41232412 164.5831812 19.41232412 163.47232234 19.41687083 C161.0334216 19.42556098 158.59456992 19.42706634 156.15565491 19.42855835 C154.40965164 19.43318626 152.66364939 19.43821088 150.91764832 19.44360352 C146.16970817 19.45673112 141.42178216 19.46317304 136.67382669 19.46761417 C133.70868012 19.47054398 130.74353742 19.47464858 127.77839279 19.47911835 C118.50445896 19.49279348 109.23053398 19.50246038 99.95659077 19.50632024 C89.24475926 19.51080287 78.53305522 19.52836021 67.82126248 19.55732083 C59.54518118 19.57892103 51.2691358 19.58902361 42.99302661 19.59036136 C38.04815389 19.59141047 33.10340099 19.59734091 28.15855789 19.61518097 C23.50792284 19.6316332 18.85749807 19.63383105 14.20684433 19.62504196 C12.49962553 19.62427009 10.79239555 19.62863404 9.08520508 19.63850021 C6.7550126 19.65117751 4.42556969 19.64536639 2.09538269 19.63491821 C0.13919101 19.63711805 0.13919101 19.63711805 -1.8565197 19.63936234 C-5.47848361 19.24159421 -7.35053097 18.43396821 -10.24327087 16.26742554 C-12.57207269 13.05146113 -12.56753877 10.1586403 -12.24327087 6.26742554 C-10.03820375 0.1610858 -5.82057073 -0.02587608 0 0 Z " fill="#5815DD" transform="translate(252.24327087402344,428.7325744628906)"/>
<path d="M0 0 C1.98926233 1.62281927 3.36736878 3.05957765 5 5 C5.65742188 5.71542969 6.31484375 6.43085938 6.9921875 7.16796875 C11.81010584 12.41099753 16.38356293 17.8226297 20.859375 23.359375 C23.21296634 26.2627103 25.60240169 29.13294188 28 32 C28.0093457 31.17274414 28.01869141 30.34548828 28.02832031 29.49316406 C28.08200319 25.74483585 28.1656571 21.99775838 28.25 18.25 C28.26417969 16.94804687 28.27835938 15.64609375 28.29296875 14.3046875 C28.32519531 13.05429687 28.35742188 11.80390625 28.390625 10.515625 C28.41157227 9.36352539 28.43251953 8.21142578 28.45410156 7.02441406 C29.11055123 3.38751847 30.08854072 2.21270906 33 0 C37.09437913 -1.13732753 39.29637569 -1.25224268 43.3125 0.1875 C46.17550498 2.11836383 46.80964302 2.86406505 48 6 C48.26069641 8.61131287 48.26069641 8.61131287 48.2746582 11.60717773 C48.28895622 13.29429115 48.28895622 13.29429115 48.30354309 15.01548767 C48.30263168 16.22596268 48.30172028 17.43643768 48.30078125 18.68359375 C48.30506638 19.93125015 48.3093515 21.17890656 48.31376648 22.46437073 C48.31950995 25.1030994 48.32094518 27.74143692 48.31567383 30.38012695 C48.30988072 33.75395143 48.32681052 37.12722665 48.3500185 40.50096035 C48.36833208 43.72850058 48.36456985 46.95601093 48.36328125 50.18359375 C48.372491 51.39204453 48.38170074 52.6004953 48.39118958 53.8455658 C48.38496078 54.97346024 48.37873199 56.10135468 48.37231445 57.26342773 C48.37294388 58.25285873 48.3735733 59.24228973 48.3742218 60.26170349 C47.92956642 63.51538429 46.9351582 65.36456744 45 68 C41.80781862 70.12812092 39.89580568 70.2986123 36.1328125 70.4609375 C31.09490825 69.37215966 27.92904831 64.9236067 24.875 61.0625 C20.90488926 56.10652283 16.84346383 51.2437915 12.71826172 46.41625977 C10.38274754 43.67299128 8.14547572 40.89332947 6 38 C5.98541748 38.73114014 5.97083496 39.46228027 5.95581055 40.21557617 C5.8811709 43.54007371 5.78456199 46.86358467 5.6875 50.1875 C5.66494141 51.33798828 5.64238281 52.48847656 5.61914062 53.67382812 C5.58369141 54.78564453 5.54824219 55.89746094 5.51171875 57.04296875 C5.48553467 58.06414795 5.45935059 59.08532715 5.43237305 60.13745117 C4.93455098 63.43330874 3.96573459 65.32519789 2 68 C-1.16818756 70.11212504 -3.13219252 70.33156464 -6.8671875 70.55859375 C-9.42183894 69.88951837 -11.09257054 68.84423092 -12.91967773 66.93693542 C-15.4880632 62.33201618 -14.68126624 56.4266089 -14.62890625 51.30859375 C-14.62973551 49.95768544 -14.63219707 48.60677723 -14.63621521 47.25587463 C-14.63906821 44.43044513 -14.62442113 41.60581057 -14.59692383 38.78051758 C-14.56280713 35.16312919 -14.5688737 31.5471585 -14.5875864 27.92970181 C-14.59816504 25.14232102 -14.5892117 22.355269 -14.57420158 19.56791878 C-14.56651675 17.58707627 -14.57386686 15.6061939 -14.58143616 13.62535095 C-14.56559982 12.42052567 -14.54976349 11.21570038 -14.53344727 9.97436523 C-14.52724869 8.91467026 -14.52105011 7.85497528 -14.5146637 6.76316833 C-13.87095739 3.30718552 -12.73492294 2.14448567 -10 0 C-6.1544104 -1.2818632 -3.93271581 -0.94927623 0 0 Z " fill="#5815DC" transform="translate(177,300)"/>
<path d="M0 0 C1.84217102 -0.01908669 1.84217102 -0.01908669 3.72155762 -0.03855896 C5.07446483 -0.03237714 6.42737015 -0.02577116 7.78027344 -0.01878357 C9.21131275 -0.02584423 10.6423446 -0.03458987 12.07336426 -0.04489136 C15.953568 -0.06737764 19.83336372 -0.0644478 23.71360779 -0.05556989 C26.95428355 -0.05045738 30.19488281 -0.05775457 33.43555069 -0.06504196 C41.08047431 -0.08203812 48.7251983 -0.07847757 56.37011719 -0.06175232 C64.25525143 -0.04482458 72.13983234 -0.06067477 80.02490616 -0.0929752 C86.79789449 -0.11966824 93.57071054 -0.12694811 100.34374619 -0.11846012 C104.38769565 -0.1135308 108.43131206 -0.11574661 112.47521973 -0.13624763 C116.27741496 -0.15460103 120.07881378 -0.14865141 123.88096619 -0.12404823 C125.2753408 -0.11903941 126.66977607 -0.12253219 128.06410217 -0.13519669 C139.91838227 -0.23434149 139.91838227 -0.23434149 143.1953125 2.90567017 C145.0254233 5.72373424 145.88964844 7.15290229 145.88964844 10.5146637 C143.84565316 16.86180692 143.84565316 16.86180692 141.14600277 18.70540142 C138.31561685 19.72054542 135.98441395 19.76948694 132.97547913 19.77536011 C131.76556808 19.78244492 130.55565704 19.78952972 129.30908203 19.79682922 C127.97143517 19.79453549 126.63378867 19.7920258 125.29614258 19.7893219 C123.88496124 19.79366993 122.47378227 19.79885339 121.06260681 19.80480957 C117.23202501 19.81820094 113.40154186 19.8187781 109.57094121 19.81624627 C106.37258625 19.81517667 103.17425127 19.82005965 99.97590059 19.82485169 C92.43028898 19.83594732 84.88472715 19.83638395 77.33911133 19.83033752 C69.55581068 19.82429652 61.77269076 19.83661176 53.98942095 19.85790759 C47.30565395 19.87552239 40.62194448 19.88152516 33.93815511 19.87826985 C29.94680362 19.87645667 25.95558104 19.87909656 21.96425056 19.89298439 C18.21067873 19.90555623 14.45738867 19.90362493 10.70382118 19.8905735 C9.32718053 19.88820676 7.95052009 19.89094597 6.57390213 19.89919662 C4.69289449 19.90965637 2.81180665 19.89976504 0.93080139 19.8888855 C-0.64735053 19.88913711 -0.64735053 19.88913711 -2.2573843 19.88939381 C-5.56168384 19.45538233 -7.4359452 18.47319218 -10.11035156 16.5146637 C-11.99079791 13.43756968 -12.11149358 11.57975893 -12.04785156 7.9521637 C-10.31837457 1.61074805 -6.22704907 0.01640356 0 0 Z " fill="#5815DC" transform="translate(269.1103515625,471.48533630371094)"/>
<path d="M0 0 C4.58263373 4.04205496 7.67315924 9.91689709 8.875 15.875 C9.15528685 20.41294072 9.15253345 24.95434817 9.1875 29.5 C9.21650391 30.73363281 9.24550781 31.96726562 9.27539062 33.23828125 C9.34088501 42.71985259 8.11495979 50.44451004 1.75 57.75 C-4.89922876 63.72160035 -12.42669693 65.59656935 -21.234375 65.2578125 C-28.69517162 64.26976106 -35.1558769 60.50237058 -40.125 54.875 C-45.39106931 46.87185515 -45.351349 38.4975518 -45.4375 29.1875 C-45.46650391 28.16205078 -45.49550781 27.13660156 -45.52539062 26.08007812 C-45.59541682 17.55304279 -43.83151367 10.32141532 -39.375 3 C-27.90576258 -7.83205756 -13.05320228 -8.87617755 0 0 Z M-23.28491211 15.56665039 C-26.54122155 19.65161864 -25.74045809 24.28148172 -25.6875 29.3125 C-25.71134766 30.34955078 -25.73519531 31.38660156 -25.75976562 32.45507812 C-25.75026993 37.38334361 -25.74448265 40.0252763 -22.78125 44.08984375 C-20.23396546 46.13819157 -20.23396546 46.13819157 -17.0625 46 C-13.27293371 44.54867674 -12.22765443 43.3586351 -10.125 39.875 C-9.56750204 36.52852852 -9.61146761 33.25966778 -9.6875 29.875 C-9.68041016 28.98554688 -9.67332031 28.09609375 -9.66601562 27.1796875 C-9.71331321 22.30439791 -9.89527933 18.79172727 -13.125 14.875 C-16.79908333 13.03795833 -20.02727319 13.01525669 -23.28491211 15.56665039 Z " fill="#5815DC" transform="translate(371.125,305.125)"/>
<path d="M0 0 C2.0807324 -0.00968346 4.16046699 -0.04070928 6.2409668 -0.07226562 C7.57494534 -0.07879869 8.90893091 -0.08404797 10.24291992 -0.08789062 C11.44924072 -0.09723633 12.65556152 -0.10658203 13.8984375 -0.11621094 C17.66921033 0.28056948 20.06465582 1.27063139 23.28588867 3.24023438 C25.25775824 6.32663892 25.28992269 8.12526483 25.16088867 11.80273438 C24.1404422 15.81163122 23.67867102 16.90579756 20.28588867 19.24023438 C16.69145042 19.73608488 13.15544458 19.61554523 9.53588867 19.49023438 C8.06055664 19.46316406 8.06055664 19.46316406 6.55541992 19.43554688 C4.13125084 19.38847563 1.70906808 19.32274179 -0.71411133 19.24023438 C-0.71411133 21.55023438 -0.71411133 23.86023438 -0.71411133 26.24023438 C0.5156543 26.20542969 1.74541992 26.170625 3.01245117 26.13476562 C4.64524994 26.10661392 6.27806357 26.07931525 7.91088867 26.05273438 C8.71913086 26.02759766 9.52737305 26.00246094 10.36010742 25.9765625 C15.4334785 25.91469212 18.90111161 26.3877351 23.28588867 29.24023438 C25.25775824 32.32663892 25.28992269 34.12526483 25.16088867 37.80273438 C24.1404422 41.81163122 23.67867102 42.90579756 20.28588867 45.24023438 C16.69145042 45.73608488 13.15544458 45.61554523 9.53588867 45.49023438 C8.55233398 45.4721875 7.5687793 45.45414062 6.55541992 45.43554688 C4.13125084 45.38847563 1.70906808 45.32274179 -0.71411133 45.24023438 C-0.71411133 47.55023438 -0.71411133 49.86023438 -0.71411133 52.24023438 C0.59944336 52.20542969 1.91299805 52.170625 3.26635742 52.13476562 C5.00202168 52.10661972 6.73769982 52.07932042 8.47338867 52.05273438 C9.33770508 52.02759766 10.20202148 52.00246094 11.0925293 51.9765625 C16.00015317 51.92015303 19.304018 52.02319827 23.28588867 55.24023438 C25.83033785 58.36296745 25.36828222 61.430832 25.06323242 65.24023438 C23.85706761 68.34353279 22.05606705 69.43760271 19.28588867 71.24023438 C16.56311708 71.64264617 14.2531133 71.82583282 11.53588867 71.80664062 C10.43229004 71.81593849 10.43229004 71.81593849 9.30639648 71.82542419 C7.7566052 71.83250288 6.20673757 71.82938236 4.65698242 71.81665039 C2.29227274 71.80277184 -0.06848482 71.83688869 -2.43286133 71.875 C-3.94327896 71.87595122 -5.45370152 71.87409221 -6.96411133 71.86914062 C-7.66632813 71.88239883 -8.36854492 71.89565704 -9.09204102 71.90931702 C-12.51626973 71.84470256 -14.68931756 71.25454171 -17.65917969 69.54077148 C-20.95915199 64.24050707 -20.40684161 58.92092094 -20.34301758 52.80273438 C-20.34542953 51.48990479 -20.34784149 50.1770752 -20.35032654 48.82446289 C-20.35317964 46.05030229 -20.33853365 43.27695125 -20.31103516 40.50292969 C-20.27695107 36.95513267 -20.28297402 33.40878245 -20.30169773 29.86091614 C-20.31483521 26.46637955 -20.29654497 23.0722609 -20.28051758 19.67773438 C-20.28547745 18.40679932 -20.29043732 17.13586426 -20.29554749 15.82641602 C-20.27971115 14.64168701 -20.26387482 13.45695801 -20.24755859 12.23632812 C-20.24136002 11.19661865 -20.23516144 10.15690918 -20.22877502 9.08569336 C-19.57988019 5.49810084 -18.25130104 3.81698035 -15.71411133 1.24023438 C-10.6397295 -0.45122623 -5.31357447 0.01497309 0 0 Z " fill="#5815DC" transform="translate(518.714111328125,298.759765625)"/>
<path d="M0 0 C3.90064314 4.08741073 6.39220407 8.27815902 8.76953125 13.3671875 C9.25833015 14.38656906 9.25833015 14.38656906 9.75700378 15.42654419 C10.78363184 17.572264 11.7982186 19.72342091 12.8125 21.875 C13.51157755 23.34152375 14.21144019 24.80767353 14.91210938 26.2734375 C16.61717299 29.84470232 18.31147075 33.42088982 20 37 C22.72773111 33.67075332 24.53922433 30.05551232 26.36328125 26.1875 C27.00903907 24.85121115 27.65554682 23.51528449 28.30273438 22.1796875 C29.31064934 20.08974256 30.3134823 17.99791778 31.3034668 15.89941406 C32.26693837 13.86294747 33.25081418 11.83741779 34.23828125 9.8125 C34.52600906 9.18947998 34.81373688 8.56645996 35.11018372 7.92456055 C37.28642758 3.51912725 39.67255381 1.2859044 44 -1 C48.37855493 -1.07681675 50.38741097 -0.44314951 53.9375 2.125 C56.62745415 5.87463306 56.48033793 7.4186637 56 12 C54.75523628 15.49463508 53.11141107 18.75575899 51.4375 22.0625 C50.95587402 23.03751465 50.47424805 24.0125293 49.97802734 25.01708984 C48.91387922 27.16647489 47.84357183 29.31281831 46.76806641 31.45654297 C45.19306692 34.61306638 43.64205425 37.77949027 42.10188293 40.95304871 C40.77823786 43.6774253 39.44492101 46.396998 38.10964966 49.11569214 C37.45738369 50.44672711 36.80799005 51.77917381 36.16159058 53.11306763 C35.24526337 54.9997246 34.31573086 56.87931545 33.3828125 58.7578125 C32.85059082 59.8420752 32.31836914 60.92633789 31.77001953 62.04345703 C29.5171122 65.80658914 27.0677178 69.39809584 22.71875 70.6640625 C21.9865625 70.65117187 21.254375 70.63828125 20.5 70.625 C19.40171875 70.64433594 19.40171875 70.64433594 18.28125 70.6640625 C13.7736186 69.35190952 11.37206901 65.64985087 9.12231445 61.72045898 C8.52530278 60.48409839 7.93944829 59.24230481 7.36328125 57.99609375 C7.0418364 57.32415985 6.72039154 56.65222595 6.38920593 55.95993042 C5.35368355 53.79035813 4.33285253 51.61424209 3.3125 49.4375 C2.24845558 47.19347878 1.18121065 44.95100133 0.11349487 42.70872498 C-0.59333352 41.22407682 -1.29896704 39.73885919 -2.00338745 38.25306702 C-4.02698858 33.99532824 -6.10677311 29.77538846 -8.26953125 25.5859375 C-8.7385083 24.67658447 -9.20748535 23.76723145 -9.69067383 22.83032227 C-10.53664548 21.20352652 -11.3913695 19.58123897 -12.2565918 17.96459961 C-14.4060773 13.80592464 -15.58730011 10.80453947 -15 6 C-13.65346479 2.88170793 -12.65294817 1.39902388 -9.75 -0.375 C-6.04433906 -1.21719567 -3.66503963 -1.04715418 0 0 Z " fill="#5715D9" transform="translate(255,300)"/>
<path d="M0 0 C0.98033203 -0.020625 1.96066406 -0.04125 2.97070312 -0.0625 C11.88320486 -0.11090463 11.88320486 -0.11090463 15.9375 3.25 C18.31974928 5.63224928 18.25767149 6.3002037 18.3125 9.5625 C18.34085937 10.32175781 18.36921875 11.08101563 18.3984375 11.86328125 C17.70034181 15.47799709 16.77408 16.85077815 13.9375 19.25 C10.29712853 19.9681502 6.70142361 19.94950981 3 19.9375 C1.03246711 19.95416315 -0.93501831 19.97864334 -2.90234375 20.01171875 C-4.20739868 20.0111145 -4.20739868 20.0111145 -5.53881836 20.01049805 C-8.41307796 20.28327048 -10.49145201 20.94062204 -13.0625 22.25 C-15.20385553 25.46203329 -15.31105886 26.30393857 -15.29296875 29.99609375 C-15.29006836 31.37571289 -15.29006836 31.37571289 -15.28710938 32.78320312 C-15.27486328 33.74162109 -15.26261719 34.70003906 -15.25 35.6875 C-15.24935547 36.64205078 -15.24871094 37.59660156 -15.24804688 38.58007812 C-15.22243756 42.64626837 -15.19700765 46.32137824 -14.0625 50.25 C-10.99702222 51.13239173 -8.18465938 51.40903154 -5 51.49609375 C-4.03835938 51.52896484 -3.07671875 51.56183594 -2.0859375 51.59570312 C-0.07042721 51.65689756 1.94520533 51.71418987 3.9609375 51.76757812 C4.92257812 51.80173828 5.88421875 51.83589844 6.875 51.87109375 C8.18791016 51.90867798 8.18791016 51.90867798 9.52734375 51.94702148 C12.12782342 52.27392538 13.73869644 52.83508415 15.9375 54.25 C17.95221597 57.27207395 18.27469034 58.16726699 18.375 61.625 C18.43494141 62.75035156 18.43494141 62.75035156 18.49609375 63.8984375 C17.56790144 67.80593239 16.27734823 68.97462946 12.9375 71.25 C8.53160447 71.97716035 4.20516172 71.90098147 -0.25 71.8125 C-2.02213867 71.82893555 -2.02213867 71.82893555 -3.83007812 71.84570312 C-14.04396903 71.76082315 -22.11898442 69.83715742 -29.4921875 62.51953125 C-34.92965773 54.66089891 -35.72731099 47.28028632 -35.63891602 37.87573242 C-35.62504049 35.81850326 -35.65921676 33.76583213 -35.69726562 31.70898438 C-35.75389072 22.20442623 -34.21424911 15.15661259 -28 7.8125 C-19.13293413 0.66164043 -11.15270498 0.05889217 0 0 Z " fill="#5715DB" transform="translate(465.0625,298.75)"/>
<path d="M0 0 C1.08509857 -0.0087616 2.17019714 -0.01752319 3.28817749 -0.02655029 C6.87351516 -0.04854934 10.45761863 -0.03398839 14.04296875 -0.01708984 C16.53491452 -0.02045779 19.02685869 -0.02531024 21.51879883 -0.03158569 C27.40960538 -0.03990182 33.29996434 -0.02240877 39.1907053 0.00416815 C43.88610705 0.02294164 48.58098488 0.01630108 53.27636719 -0.00488281 C59.75319617 -0.03385236 66.22951871 -0.03841689 72.70639038 -0.02210617 C75.17516193 -0.01876954 77.64395503 -0.02286819 80.11270142 -0.03450394 C83.56269554 -0.0471958 87.0110645 -0.0278559 90.4609375 0 C91.48238861 -0.01012115 92.50383972 -0.02024231 93.5562439 -0.03067017 C98.29716788 0.04028582 100.50211403 0.08888037 104.35986328 3.04483032 C106.26921713 5.70087436 106.93500797 6.92088061 106.91796875 10.14697266 C106.94246094 10.87916016 106.96695313 11.61134766 106.9921875 12.36572266 C105.79857276 15.94044576 103.44929693 17.89089377 100.23046875 19.64697266 C96.65450021 20.36018054 93.15160006 20.30024314 89.51513672 20.24633789 C88.44779297 20.25028061 87.38044922 20.25422333 86.28076172 20.25828552 C82.7609123 20.26498584 79.24236638 20.23585479 75.72265625 20.20556641 C73.27458955 20.20131554 70.82651883 20.19898765 68.37844849 20.19850159 C63.25227548 20.19233894 58.12653989 20.16964896 53.00048828 20.1340332 C46.42516702 20.08871355 39.85024138 20.07400454 33.27477837 20.07029629 C28.2219349 20.06587099 23.1691747 20.05057366 18.11636734 20.03141975 C15.69143484 20.02253294 13.26649344 20.01580518 10.84154892 20.01125908 C7.45655071 20.00223069 4.07191263 19.97985273 0.68701172 19.95336914 C-0.82014908 19.95237213 -0.82014908 19.95237213 -2.35775757 19.95135498 C-3.28014221 19.94137985 -4.20252686 19.93140472 -5.15286255 19.92112732 C-6.35240916 19.91415156 -6.35240916 19.91415156 -7.57618904 19.90703487 C-10.08072829 19.61007436 -11.64571012 19.0004729 -13.76953125 17.64697266 C-15.78424722 14.62489871 -16.10672159 13.72970567 -16.20703125 10.27197266 C-16.24699219 9.52173828 -16.28695313 8.77150391 -16.328125 7.99853516 C-14.32455379 -0.43607929 -7.07335582 -0.07008708 0 0 Z " fill="#5815DC" transform="translate(290.76953125,514.35302734375)"/>
<path d="M0 0 C3.16024839 2.41176851 4.28413157 4.16436026 5 8 C5.09956442 9.73405865 5.14812265 11.47138604 5.16113281 13.20825195 C5.17074036 14.24645584 5.1803479 15.28465973 5.19024658 16.35432434 C5.19449646 17.47103012 5.19874634 18.5877359 5.203125 19.73828125 C5.20882507 20.89241013 5.21452515 22.046539 5.22039795 23.23564148 C5.2298419 25.67751144 5.23637953 28.11939411 5.24023438 30.5612793 C5.24993576 34.28782501 5.28096405 38.01381817 5.3125 41.74023438 C5.31903077 44.11458006 5.32428095 46.48892969 5.328125 48.86328125 C5.3404718 49.97391434 5.3528186 51.08454742 5.36553955 52.22883606 C5.34830435 58.24551269 5.05452132 62.74763696 2 68 C-1.66908557 70.44605705 -4.73618769 70.83946402 -9 70 C-11.69105198 67.82425584 -13.45532928 66.08934144 -15 63 C-15.1009106 61.239448 -15.13837169 59.47509806 -15.14526367 57.71166992 C-15.15164352 56.60679733 -15.15802338 55.50192474 -15.16459656 54.36357117 C-15.16570938 53.16464737 -15.1668222 51.96572357 -15.16796875 50.73046875 C-15.17129715 49.5021785 -15.17462555 48.27388824 -15.17805481 47.00837708 C-15.18312603 44.40492122 -15.18546308 41.80145884 -15.18530273 39.19799805 C-15.18518137 35.2146043 -15.20562814 31.23139514 -15.22460938 27.24804688 C-15.22754405 24.72135512 -15.22952835 22.19466204 -15.23046875 19.66796875 C-15.23765427 18.47511765 -15.24483978 17.28226654 -15.25224304 16.05326843 C-15.24916641 14.93893936 -15.24608978 13.82461029 -15.24291992 12.67651367 C-15.24434494 11.69881516 -15.24576996 10.72111664 -15.24723816 9.71379089 C-14.97784219 6.75678649 -14.34623637 4.64206171 -13 2 C-8.46272393 -1.16554144 -5.30041597 -1.47233777 0 0 Z " fill="#5614DC" transform="translate(410,300)"/>
<path d="M0 0 C3 2 3 2 4 5 C4.11347707 6.92073952 4.16917461 8.84510019 4.19287109 10.76904297 C4.21696548 12.54636307 4.21696548 12.54636307 4.24154663 14.35958862 C4.28597464 19.76853909 4.32748267 25.17734521 4.35009766 30.58642578 C4.36344401 33.44221986 4.39131228 36.29730056 4.43212891 39.15283203 C4.49091584 43.26607317 4.5087539 47.37854826 4.5234375 51.4921875 C4.54610687 52.76939667 4.56877625 54.04660583 4.59213257 55.36251831 C4.56856727 65.21172999 4.56856727 65.21172999 1.59619141 68.30493164 C-1.66419386 70.43365601 -3.29718022 70.66872505 -7.06640625 70.43359375 C-10.10618646 69.75194607 -11.86696044 68.19767713 -14 66 C-15.30515178 63.38969643 -15.14138712 61.45129711 -15.16113281 58.52807617 C-15.17074036 57.38316208 -15.1803479 56.23824799 -15.19024658 55.05863953 C-15.19449646 53.81596817 -15.19874634 52.57329681 -15.203125 51.29296875 C-15.20882507 50.02028641 -15.21452515 48.74760406 -15.22039795 47.43635559 C-15.2298593 44.73870262 -15.23675014 42.0411612 -15.24023438 39.34350586 C-15.2457118 35.89343566 -15.2697232 32.44376159 -15.29820633 28.99381542 C-15.32135968 25.69772994 -15.32328454 22.40162417 -15.328125 19.10546875 C-15.3404718 17.86887009 -15.3528186 16.63227142 -15.36553955 15.35820007 C-15.36253845 14.2038295 -15.35953735 13.04945892 -15.35644531 11.86010742 C-15.36009094 10.84687912 -15.36373657 9.83365082 -15.36749268 8.78971863 C-14.93673954 5.51977576 -13.93264872 3.65076821 -12 1 C-7.87562753 -1.52044984 -4.61445177 -1.02543373 0 0 Z " fill="#5715DA" transform="translate(143,300)"/>
</svg>
