<?xml version="1.0" encoding="UTF-8"?>
<svg version="1.1" xmlns="http://www.w3.org/2000/svg" width="574" height="638">
<path d="M0 0 C0.80505427 -0.00367669 1.61010854 -0.00735338 2.43955839 -0.01114148 C5.13462869 -0.02214611 7.82966038 -0.02601669 10.52474976 -0.02983093 C12.45835491 -0.03609804 14.39195887 -0.04274506 16.32556152 -0.04974365 C22.67368739 -0.07075786 29.02181343 -0.0811439 35.3699646 -0.09111023 C37.55797717 -0.09515884 39.74598961 -0.09927579 41.93400192 -0.10346031 C52.21494236 -0.12250655 62.49587564 -0.13673851 72.77683032 -0.14507228 C84.63190074 -0.15484151 96.48678429 -0.18115532 108.34178889 -0.22157317 C117.51311258 -0.251765 126.6843828 -0.26654409 135.85575521 -0.26985329 C141.32955623 -0.27220034 146.80315749 -0.281116 152.27690506 -0.30631447 C157.42993336 -0.32965365 162.58263117 -0.33380487 167.7356987 -0.32355309 C169.62101086 -0.32305903 171.50633961 -0.32934077 173.39160156 -0.34310913 C195.53132363 -0.49567803 195.53132363 -0.49567803 204.37387085 6.66279602 C205.28781616 7.56513977 206.20176147 8.46748352 207.1434021 9.39717102 C207.89109863 10.12287292 207.89109863 10.12287292 208.65390015 10.86323547 C210.10278254 12.27611208 211.52991102 13.71119401 212.9559021 15.14717102 C213.71129272 15.87806946 214.46668335 16.6089679 215.2449646 17.36201477 C218.37510048 20.41359512 221.34054766 23.55271684 224.18051147 26.87568665 C227.9554945 31.20992642 231.96297729 35.26467965 236.0496521 39.30342102 C236.80000732 40.04998962 237.55036255 40.79655823 238.32345581 41.56575012 C240.6985013 43.92869127 243.07677027 46.28834472 245.4559021 48.64717102 C248.59429427 51.75877748 251.72922955 54.87380857 254.8621521 57.99092102 C255.569646 58.69011658 256.27713989 59.38931213 257.006073 60.10969543 C260.90627581 63.9908853 264.58831878 67.98173638 268.18112183 72.14753723 C271.31886506 75.68281283 274.68876399 78.98195345 278.0496521 82.30342102 C278.80000732 83.04998962 279.55036255 83.79655823 280.32345581 84.56575012 C282.6985013 86.92869127 285.07677027 89.28834472 287.4559021 91.64717102 C290.59429427 94.75877748 293.72922955 97.87380857 296.8621521 100.99092102 C297.569646 101.69011658 298.27713989 102.38931213 299.006073 103.10969543 C303.00841328 107.09252487 306.82226997 111.17847095 310.50320435 115.46075439 C311.66383034 116.80810897 312.85907898 118.12561264 314.0652771 119.43232727 C320.46656251 126.36705313 323.07479615 133.12872511 323.08732986 142.62995148 C323.09117101 143.72567585 323.09501215 144.82140021 323.0989697 145.95032835 C323.09810322 147.14865435 323.09723673 148.34698035 323.09634399 149.58161926 C323.10080068 151.49762208 323.10080068 151.49762208 323.10534739 153.45233202 C323.11340551 156.99603551 323.11520631 160.53971873 323.11594486 164.08343029 C323.11779755 167.90639983 323.1253461 171.72935891 323.13208008 175.55232239 C323.14565669 183.91213525 323.15168741 192.27194331 323.15609074 200.63176537 C323.15885497 205.85468014 323.16309272 211.07759307 323.16759491 216.30050659 C323.17978797 230.7689426 323.19008638 245.23737714 323.19347 259.70581818 C323.19368957 260.6317022 323.19390913 261.55758622 323.19413535 262.51152733 C323.19435363 263.43959953 323.19457191 264.36767172 323.1947968 265.32386732 C323.19524026 267.20442168 323.19568683 269.08497604 323.19613647 270.9655304 C323.1963579 271.89834589 323.19657933 272.83116139 323.19680747 273.79224402 C323.20075254 288.89543845 323.2181975 303.99858455 323.241496 319.10176033 C323.26523813 334.61818359 323.2776732 350.13458263 323.27883792 365.65102434 C323.27975321 374.35870527 323.28546839 383.06632327 323.30365753 391.77398682 C323.31909735 399.19152551 323.32415625 406.60898182 323.31591943 414.02653354 C323.31202628 417.80738839 323.31287666 421.58807754 323.32697678 425.36891174 C323.34216133 429.47834392 323.33380954 433.58740661 323.32339478 437.69685364 C323.33547938 439.46757398 323.33547938 439.46757398 323.34780812 441.27406645 C323.27557898 453.51260686 321.16899928 464.10924021 313.9559021 474.14717102 C313.51504272 474.78267883 313.07418335 475.41818665 312.6199646 476.07295227 C306.28776329 484.32677536 296.93045157 488.9381145 286.9559021 491.14717102 C282.80112366 491.54977275 278.6792831 491.55297064 274.50741577 491.52812195 C273.28902858 491.53280192 272.07064138 491.53748189 270.81533337 491.54230368 C267.45938387 491.55214887 264.10394323 491.54867438 260.74802542 491.53934503 C257.11878363 491.53252718 253.4895847 491.54304926 249.86035156 491.55128479 C242.7609498 491.56459526 235.66164341 491.5617564 228.56223798 491.55304687 C222.790243 491.54626013 217.01827468 491.54535788 211.24627686 491.54861832 C210.01205357 491.54930787 210.01205357 491.54930787 208.75289649 491.55001134 C207.08114313 491.55097056 205.40938979 491.5519432 203.73763645 491.55292912 C188.07705632 491.56147514 172.41652896 491.55166125 156.75595748 491.53552802 C143.3307173 491.52212555 129.90555494 491.52445387 116.48031616 491.5382843 C100.87416586 491.55435404 85.26806175 491.56065124 69.66190434 491.55144751 C67.99644535 491.55049191 66.33098635 491.54954879 64.66552734 491.54861832 C63.84617948 491.54815549 63.02683162 491.54769266 62.18265504 491.54721581 C56.42040372 491.5446301 50.65818182 491.54898787 44.89593506 491.55605698 C37.8696481 491.56448768 30.84346163 491.56215892 23.81718612 491.54621474 C20.23515021 491.53835308 16.65328161 491.53520425 13.0712471 491.5451622 C9.18220046 491.55580979 5.29342528 491.54306021 1.40438843 491.52812195 C0.28083545 491.53481411 -0.84271753 491.54150628 -2.00031757 491.54840124 C-13.70598276 491.46133463 -21.95721366 488.48716689 -31.0440979 481.14717102 C-31.69507446 480.62252258 -32.34605103 480.09787415 -33.01675415 479.55732727 C-40.63218175 472.71181103 -45.57831958 461.85042492 -46.28460693 451.68588257 C-46.28016571 450.47564926 -46.27572449 449.26541595 -46.27114868 448.01850891 C-46.27144073 447.34449036 -46.27173279 446.6704718 -46.27203369 445.97602844 C-46.27065323 443.77382507 -46.25515358 441.57197069 -46.2394104 439.36982727 C-46.23567569 437.83283676 -46.23283088 436.29584385 -46.23083496 434.7588501 C-46.22323455 430.7327455 -46.20361734 426.70678745 -46.181427 422.68074036 C-46.16089078 418.56475303 -46.15181668 414.4487418 -46.14175415 410.3327179 C-46.1203677 402.27080203 -46.08627566 394.20900481 -46.0440979 386.14717102 C-47.2245871 386.15605347 -48.40507629 386.16493591 -49.62133789 386.17408752 C-60.7730067 386.25534707 -71.92461505 386.31521975 -83.07651329 386.35441971 C-88.80916099 386.37525066 -94.54156874 386.40348634 -100.27407837 386.44892883 C-105.81136035 386.49254658 -111.34841222 386.51634189 -116.88585281 386.52667999 C-118.99326827 386.53404279 -121.10067184 386.5484204 -123.20798874 386.57009125 C-126.17104578 386.5993368 -129.13316472 386.60311819 -132.09634399 386.60127258 C-132.95806213 386.61565369 -133.81978027 386.63003479 -134.70761108 386.64485168 C-144.21627788 386.58120646 -153.28482059 382.9204427 -160.0440979 376.14717102 C-168.67360434 365.18582557 -169.34527561 354.93095124 -169.3187561 341.42280579 C-169.32311045 339.95003503 -169.328296 338.47726653 -169.33424377 337.00450134 C-169.34756635 333.02719117 -169.34822008 329.04997641 -169.34568048 325.07264829 C-169.34460631 321.74279174 -169.3495054 318.41295415 -169.3542859 315.08310169 C-169.36535746 307.22317726 -169.36583155 299.36330063 -169.35977173 291.50337219 C-169.3537314 283.41503337 -169.36604982 275.32686847 -169.3873418 267.23855931 C-169.40499544 260.27436138 -169.41095329 253.31021864 -169.40770406 246.34599918 C-169.40589728 242.19527413 -169.40846674 238.04467322 -169.42241859 233.89396858 C-169.43505405 229.98929624 -169.43299926 226.08489389 -169.42000771 222.18022537 C-169.41765488 220.75407886 -169.42032979 219.327913 -169.42863083 217.90178871 C-169.49974583 204.72584436 -167.58766818 194.26962439 -158.41519165 184.39326477 C-149.86990071 176.48242699 -140.15467418 174.98547532 -128.91763306 175.03364563 C-127.57032608 175.03342659 -127.57032608 175.03342659 -126.19580078 175.03320312 C-123.24156233 175.03389704 -120.28738777 175.04166497 -117.3331604 175.04951477 C-115.27907343 175.0513808 -113.22498601 175.05280383 -111.17089844 175.05380249 C-105.77538821 175.05761308 -100.37990507 175.0674309 -94.98440552 175.07850647 C-89.47435879 175.08875196 -83.96430767 175.09330683 -78.45425415 175.0983429 C-67.65085686 175.10905449 -56.84747964 175.12611338 -46.0440979 175.14717102 C-46.04778507 174.44186375 -46.05147224 173.73655647 -46.05527115 173.00987625 C-46.14381219 155.80624692 -46.2098996 138.60267586 -46.25134659 121.39886856 C-46.27192552 113.07904602 -46.29995618 104.75937606 -46.34585571 96.43965149 C-46.38586717 89.18370447 -46.41156461 81.92786802 -46.42045188 74.67181373 C-46.42564257 70.83379146 -46.43774358 66.99608538 -46.46701813 63.15816498 C-46.49441426 59.53674828 -46.50249484 55.91577434 -46.49652863 52.29426384 C-46.49813291 50.34989613 -46.51952795 48.40557529 -46.54177856 46.46133423 C-46.48080717 33.30977184 -42.7891976 23.01463646 -34.0440979 13.14717102 C-24.6894172 3.93185242 -12.90973923 -0.00318047 0 0 Z M-21.0440979 26.14717102 C-25.80826117 32.49271621 -28.17171217 37.83422205 -28.16435242 45.75331116 C-28.16572708 46.89472061 -28.16710175 48.03613007 -28.16851807 49.21212769 C-28.16492279 50.46009628 -28.16132751 51.70806488 -28.15762329 52.99385071 C-28.15776932 54.31116684 -28.15791534 55.62848297 -28.1580658 56.98571777 C-28.1583527 60.59488358 -28.15247324 64.20401616 -28.14549184 67.81317425 C-28.13924051 71.58614623 -28.13865309 75.35911897 -28.13746643 79.13209534 C-28.13435837 86.27537008 -28.12615204 93.41862951 -28.11611694 100.56189752 C-28.10493952 108.6948443 -28.09944124 116.82779182 -28.09442151 124.96074438 C-28.083969 141.68956222 -28.06637971 158.41836467 -28.0440979 175.14717102 C-26.67691305 175.15075355 -26.67691305 175.15075355 -25.28210831 175.15440845 C-3.07124317 175.21362773 19.13951409 175.28922212 41.35026169 175.38288593 C52.09135708 175.42778965 62.83241972 175.4672168 73.57357788 175.49360657 C82.93909458 175.51663059 92.30450715 175.55007773 101.66994119 175.59587258 C106.62566674 175.61974544 111.58128955 175.63851307 116.53707123 175.64478493 C121.20908474 175.65086271 125.88083556 175.67095919 130.55275154 175.70144653 C132.26022831 175.71018378 133.96773946 175.71395836 135.67523766 175.71217918 C149.09374713 175.70261861 161.01078972 176.17097479 171.5184021 185.39717102 C181.56801828 196.73519954 182.10621775 208.44878829 182.10116577 222.98603821 C182.10416145 224.3879251 182.10756492 225.78981117 182.11134338 227.19169617 C182.12014693 230.98529212 182.12251998 234.77886548 182.12315917 238.57247066 C182.12387185 240.94738179 182.12601032 243.32228725 182.12865639 245.69719696 C182.13789842 253.99628054 182.14199279 262.29534809 182.14120483 270.59443665 C182.14060465 278.30777067 182.15114768 286.02103462 182.1669485 293.73435092 C182.18006288 300.37495206 182.18538708 307.01553041 182.18474942 313.65614438 C182.18449554 317.6140828 182.18728566 321.57195892 182.19792747 325.52988434 C182.20767409 329.25637251 182.20764312 332.98273967 182.20041084 336.70923233 C182.19888202 338.712121 182.20716604 340.71500983 182.21585083 342.71788025 C182.17395839 354.86910273 181.41387551 365.97448119 172.9793396 375.34248352 C162.56811202 385.31224562 151.6495327 385.73691525 137.93002319 385.69306946 C136.11575438 385.70181516 134.30149326 385.7123044 132.48724365 385.72439575 C127.58710375 385.75215429 122.68721681 385.75566268 117.78700972 385.75467587 C112.6566962 385.75781371 107.52649515 385.78345004 102.39624023 385.80665588 C92.69259968 385.84715274 82.98902622 385.86754175 73.2853142 385.88062978 C62.23323735 385.89652122 51.18127433 385.93494589 40.12926364 385.97522306 C17.40484804 386.0575356 -5.31956433 386.11168171 -28.0440979 386.14717102 C-28.13726216 394.43208295 -28.20809583 402.71677172 -28.25134659 411.00207996 C-28.2721172 414.85035677 -28.30023862 418.6982721 -28.34585571 422.54634094 C-28.38969413 426.26815979 -28.4133139 429.98963356 -28.42360687 433.7116909 C-28.43093084 435.12331757 -28.44523057 436.53492789 -28.46701813 437.94640541 C-28.61883496 448.20048086 -28.07096203 458.11110753 -20.9190979 466.08467102 C-13.1905045 472.71998049 -4.71895079 473.73534109 5.14537048 473.65510559 C6.33587838 473.66134555 7.52638627 473.66758552 8.75297016 473.67401457 C12.03106439 473.68713822 15.30855839 473.68251149 18.5866369 473.67006969 C22.13202824 473.66097708 25.67734169 473.67500961 29.22271729 473.68598938 C36.15737486 473.70373396 43.09185881 473.69995299 50.02652306 473.68833882 C55.66409375 473.67928945 61.30161594 473.67808698 66.93919182 473.68243408 C67.74286853 473.68304701 68.54654525 473.68365995 69.3745758 473.68429145 C71.0074359 473.68557041 72.64029598 473.68686726 74.27315604 473.68818182 C89.56794573 473.69957552 104.86263936 473.68649255 120.1574133 473.66498035 C133.27087364 473.64710704 146.38419235 473.65021772 159.49765015 473.6686554 C174.74086348 473.69007762 189.98399276 473.69848059 205.22721905 473.68620634 C206.85362207 473.6849322 208.4800251 473.68367471 210.10642815 473.68243408 C211.30663785 473.68150843 211.30663785 473.68150843 212.53109421 473.68056408 C218.16007362 473.67711548 223.78899954 473.68292884 229.41797066 473.69235229 C236.28035868 473.70358855 243.14256377 473.70049803 250.00493092 473.67922932 C253.50385314 473.66874116 257.00247072 473.66455853 260.50139046 473.67782593 C264.29903615 473.68876415 268.09582611 473.67503651 271.89341736 473.65510559 C272.99264654 473.66402848 274.09187573 473.67295136 275.22441489 473.68214464 C283.96891361 473.59319209 291.61807816 471.48499496 297.9559021 465.14717102 C302.15445969 459.37415433 304.08183317 454.9673918 304.07894993 447.78236008 C304.08094098 446.68757646 304.08293203 445.59279285 304.08498341 444.46483397 C304.08061415 442.66134722 304.08061415 442.66134722 304.07615662 440.82142639 C304.07701104 439.54394036 304.07786547 438.26645432 304.07874578 436.95025659 C304.08098461 433.40199165 304.07697779 429.85375683 304.07196772 426.30549574 C304.06765466 422.4800361 304.06911026 418.6545782 304.06987 414.82911682 C304.07039469 408.20044807 304.0672536 401.57178915 304.06163216 394.94312286 C304.05350975 385.35915025 304.05090117 375.7751824 304.04964416 366.19120672 C304.04745481 350.64234577 304.04079789 335.09349006 304.03134155 319.54463196 C304.02216442 304.43916348 304.01508506 289.33369642 304.01083374 274.22822571 C304.01057102 273.29733398 304.01030829 272.36644226 304.01003761 271.40734169 C304.00873258 266.737394 304.00746887 262.06744631 304.00622571 257.39749861 C303.99585673 218.64738574 303.97824158 179.89727873 303.9559021 141.14717102 C302.82552521 141.14130478 301.69514832 141.13543854 300.53051758 141.12939453 C289.84957364 141.07204699 279.16883095 140.99922275 268.48809242 140.91145611 C262.99772246 140.86683191 257.50742534 140.82755829 252.01693726 140.80073547 C246.7129457 140.77462317 241.40923568 140.73416485 236.10541916 140.68398476 C234.08739107 140.66736955 232.06931434 140.65582213 230.05122757 140.64955711 C227.21267814 140.63985767 224.37484034 140.61172926 221.53646851 140.57954407 C220.71215332 140.58097916 219.88783813 140.58241425 219.0385437 140.58389282 C208.17020002 140.41092957 199.2971985 136.78230969 191.20199585 129.58857727 C181.12171143 119.05354318 182.35202502 104.82556702 182.3465271 91.29170227 C182.33152751 89.17748763 182.31479666 87.06328464 182.29641724 84.94909668 C182.25293136 79.41721525 182.23278631 73.88549185 182.21768188 68.35346985 C182.19804293 62.69541655 182.15608069 57.03753223 182.11605835 51.3795929 C182.0409596 40.3021713 181.99054522 29.2247879 181.9559021 18.14717102 C158.13799834 18.10041156 134.32010147 18.06516283 110.50216103 18.04354668 C99.44261768 18.03324232 88.38310289 18.01919804 77.32357788 17.99629211 C67.68200199 17.97633252 58.04044678 17.96344847 48.3988508 17.95899403 C43.2956253 17.95639101 38.19245897 17.95029025 33.08925247 17.93571091 C28.28109456 17.92208642 23.4730199 17.9179582 18.66484451 17.92095566 C16.90490262 17.92040767 15.14495779 17.91645933 13.38503265 17.90876007 C-5.21551121 17.50884086 -5.21551121 17.50884086 -21.0440979 26.14717102 Z M199.9559021 30.14717102 C199.86303332 40.30924719 199.7920516 50.47122163 199.74865341 60.63363647 C199.72781954 65.35298197 199.69957905 70.07203613 199.65414429 74.79121399 C199.61053615 79.34942978 199.58673342 83.90736616 199.57639313 88.46577454 C199.56902854 90.20084529 199.55464726 91.93590155 199.53298187 93.67085266 C199.50374798 96.10990394 199.49995429 98.54781521 199.50180054 100.98701477 C199.48741943 101.69696091 199.47303833 102.40690704 199.45822144 103.1383667 C199.51143147 109.67720806 201.75394688 114.82288495 206.2059021 119.52217102 C211.98607145 122.93772564 218.06399322 123.39680085 224.65707397 123.3742218 C225.74147263 123.37465988 225.74147263 123.37465988 226.84777832 123.37510681 C229.20686389 123.37372772 231.56562259 123.35823465 233.9246521 123.34248352 C235.57231473 123.33874832 237.2199796 123.33590374 238.86764526 123.33390808 C243.18142954 123.32631154 247.49507682 123.30669771 251.80880737 123.28450012 C256.21979927 123.2639555 260.63081354 123.25488802 265.0418396 123.24482727 C273.67992295 123.22344766 282.31789543 123.18936037 290.9559021 123.14717102 C288.95754447 120.81242603 286.95716018 118.47943016 284.9559021 116.14717102 C284.32893433 115.41578918 283.70196655 114.68440735 283.05599976 113.93086243 C274.93069702 104.70144738 266.05650381 96.17683288 257.3309021 87.52217102 C254.02324321 84.24128963 250.71904095 80.95698187 247.4168396 77.67060852 C246.67187225 76.93393951 245.92690491 76.19727051 245.15936279 75.4382782 C241.1581683 71.45566783 237.36205423 67.3739829 233.6774292 63.0980072 C230.76162615 59.79381636 227.64620723 56.69477734 224.5262146 53.58467102 C223.85041351 52.90791321 223.17461243 52.2311554 222.47833252 51.53388977 C221.06615836 50.12104107 219.65274461 48.70943034 218.23812866 47.29902649 C216.06214405 45.12845967 213.89162727 42.95252562 211.7215271 40.77607727 C210.34424398 39.39945391 208.96665125 38.02314023 207.5887146 36.64717102 C206.93774811 35.9941803 206.28678162 35.34118958 205.61608887 34.66841125 C203.16503974 31.61206167 203.16503974 31.61206167 199.9559021 30.14717102 Z M-147.87965393 199.91413879 C-151.54912668 205.55813132 -150.73173438 212.39607453 -150.67520142 218.87568665 C-150.68034464 220.37274014 -150.68762895 221.86978757 -150.69688416 223.36682129 C-150.71535551 227.4186298 -150.70248703 231.46977796 -150.68279386 235.52155876 C-150.66637052 239.76904401 -150.67522537 244.01648864 -150.68031311 248.26399231 C-150.68482997 255.39589446 -150.66898967 262.52753399 -150.64102173 269.65937805 C-150.60897157 277.8955033 -150.60898684 286.13115499 -150.6262365 294.36731386 C-150.64212052 302.30218706 -150.635356 310.23688726 -150.61829948 318.17175293 C-150.61144108 321.54322944 -150.61244894 324.91456677 -150.61984444 328.28604126 C-150.62752642 332.25892017 -150.61531941 336.23126254 -150.58799553 340.20405006 C-150.58113056 341.65885132 -150.58099346 343.11370287 -150.58821106 344.56850243 C-150.86153102 355.17721965 -150.86153102 355.17721965 -146.0440979 364.14717102 C-139.8110379 368.6439614 -133.56048308 368.71334946 -126.11291504 368.64837646 C-124.33266676 368.65667806 -124.33266676 368.65667806 -122.51645386 368.66514736 C-119.23944322 368.67636934 -115.96304042 368.66975477 -112.68606019 368.65541065 C-109.14547044 368.64427296 -105.60494694 368.65625256 -102.06436157 368.66525269 C-95.13577589 368.67916734 -88.20737277 368.67164257 -81.27879582 368.6565771 C-73.208286 368.63969785 -65.13782141 368.6429296 -57.06729938 368.64667118 C-42.66776437 368.65254632 -28.26831688 368.63839081 -13.86880493 368.61372375 C0.10128051 368.58979506 14.07124906 368.58272341 28.04135132 368.59321594 C43.25997804 368.60462575 58.47855074 368.60655513 73.69717681 368.59211785 C75.31990615 368.59059202 76.94263549 368.58907167 78.56536484 368.58755684 C79.36375264 368.58679902 80.16214044 368.58604121 80.98472182 368.58526043 C86.60956479 368.58051879 92.23438362 368.58236813 97.85922623 368.58662224 C104.71294237 368.59154926 111.56654802 368.58556273 118.42023887 368.56572794 C121.91670092 368.5558582 125.41299476 368.55074736 128.90946579 368.55862045 C132.699387 368.56455941 136.48881023 368.55209388 140.27868652 368.53485107 C141.38412752 368.54086112 142.48956852 368.54687117 143.62850773 368.55306333 C149.93506626 368.50073624 154.72842225 368.09100062 159.60043335 363.64717102 C163.2514367 358.95825702 164.08017421 356.00233943 164.10307312 350.1456604 C164.11022842 348.89097458 164.11738373 347.63628876 164.12475586 346.34358215 C164.12759611 344.95039392 164.13030784 343.55720543 164.13290405 342.16401672 C164.13916969 340.698739 164.14581658 339.23346287 164.15281677 337.76818848 C164.17385034 332.95312098 164.18421955 328.1380532 164.19418335 323.32295227 C164.19823138 321.66421683 164.20234832 320.00548155 164.20653343 318.34674644 C164.22558478 310.55234595 164.23981505 302.75795491 164.2481454 294.96353561 C164.25791336 285.97284394 164.28422148 276.98239876 164.32464629 267.99179393 C164.35483387 261.03879761 164.36961684 254.08587182 164.37292641 247.13281125 C164.3752742 242.98199761 164.38419885 238.83144732 164.40938759 234.68070412 C164.43271928 230.77279767 164.43688131 226.86532698 164.42662621 222.95736885 C164.42613194 221.52714842 164.4324201 220.09690617 164.44618225 218.66675186 C164.83088183 207.62111964 164.83088183 207.62111964 159.9559021 198.14717102 C153.83871875 193.56671826 148.54457623 193.58137605 141.06904602 193.64596558 C139.87490115 193.64043118 138.68075628 193.63489678 137.45042521 193.62919468 C134.14823321 193.61795932 130.84696504 193.62459962 127.54484403 193.63893139 C123.97901493 193.65005711 120.41325209 193.63809337 116.84742737 193.62908936 C109.86723605 193.61516615 102.88722582 193.62270601 95.90704315 193.63776494 C87.77729756 193.65463559 79.64759695 193.65141348 71.51783926 193.64767086 C57.01237506 193.64179406 42.50699771 193.65595727 28.0015564 193.68061829 C13.92763006 193.70454297 -0.14618027 193.71162059 -14.22012329 193.7011261 C-29.54897908 193.68971632 -44.87778123 193.68778722 -60.20663637 193.7022242 C-61.84117694 193.70375002 -63.47571752 193.70527038 -65.1102581 193.7067852 C-65.91446911 193.70754302 -66.71868013 193.70830083 -67.54726117 193.70908161 C-73.21367053 193.71382363 -78.88005593 193.71197361 -84.54646492 193.7077198 C-91.45144189 193.70279275 -98.35630919 193.70877935 -105.26126105 193.7286141 C-108.78404423 193.73848423 -112.30666043 193.74359429 -115.82945251 193.73572159 C-119.64781629 193.72736292 -123.46588681 193.74224791 -127.28422546 193.75949097 C-128.39813048 193.75348092 -129.5120355 193.74747088 -130.65969521 193.74127871 C-137.97572399 193.80153242 -142.47381214 194.63905699 -147.87965393 199.91413879 Z " fill="#5E17EA" transform="translate(202.04409790039063,60.85282897949219)"/>
<path d="M0 0 C7.94027509 2.055649 14.39989432 5.46138409 20.953125 10.34765625 C21.67113281 10.85941406 22.38914063 11.37117188 23.12890625 11.8984375 C31.61607018 18.53984927 37.48792955 28.916416 39.953125 39.34765625 C40.13359375 40.09015625 40.3140625 40.83265625 40.5 41.59765625 C42.94604601 56.44262511 40.42073054 70.38136338 31.8515625 82.85546875 C23.64220991 93.63235548 12.33949415 101.56482682 -1.046875 104.34765625 C-2.119375 104.57453125 -3.191875 104.80140625 -4.296875 105.03515625 C-21.83266981 106.49647248 -21.83266981 106.49647248 -28.046875 102.34765625 C-30.53881826 97.88855279 -30.33643988 93.47041838 -30.3215332 88.50585938 C-30.32664413 87.62558578 -30.33175507 86.74531219 -30.33702087 85.83836365 C-30.35089548 82.9351416 -30.34996193 80.03215746 -30.34765625 77.12890625 C-30.35154388 75.10778719 -30.3558787 73.08666894 -30.36064148 71.06555176 C-30.36809876 66.83224843 -30.36781562 62.59902851 -30.36254883 58.36572266 C-30.3567499 52.9416934 -30.37369788 47.51800515 -30.3968935 42.09403229 C-30.41162531 37.92130539 -30.41250337 33.74866077 -30.40938377 29.57591248 C-30.4098971 27.57603784 -30.41513695 25.57615861 -30.42519569 23.5763092 C-30.43753417 20.78046484 -30.43078432 17.98528684 -30.41918945 15.18945312 C-30.42683319 14.36436752 -30.43447693 13.53928192 -30.44235229 12.68919373 C-30.40019755 8.08966597 -30.03859972 5.07311019 -27.046875 1.34765625 C-20.21755221 -3.20522561 -7.85169556 -1.49070163 0 0 Z M-11.046875 18.34765625 C-11.046875 40.78765625 -11.046875 63.22765625 -11.046875 86.34765625 C0.59136767 85.05451818 8.84451741 81.9380579 16.33203125 72.72265625 C21.70433157 64.85191265 23.83644366 56.80436186 22.953125 47.34765625 C20.96776696 37.1525744 15.99175312 30.00540026 7.80078125 23.6875 C1.47662247 19.52399431 -3.33583448 18.34765625 -11.046875 18.34765625 Z " fill="#5D16EA" transform="translate(203.046875,289.65234375)"/>
<path d="M0 0 C0.77013931 -0.00807175 1.54027863 -0.01614349 2.33375549 -0.02445984 C3.97044625 -0.03830901 5.60716599 -0.04902743 7.24389648 -0.05688477 C8.90121041 -0.06833008 10.55848969 -0.08866183 12.21557617 -0.1184082 C25.15866283 -0.35071669 35.97081727 0.48947104 46.3125 9.203125 C53.55986973 16.56351414 56.92361752 26.0371546 57.48046875 36.24609375 C57.15888184 45.72053891 53.46192267 54.22099434 47.00390625 61.17578125 C34.48050055 72.43586094 20.17592269 71.53838855 4.31640625 71.23828125 C4.34259033 72.09059326 4.36877441 72.94290527 4.39575195 73.82104492 C4.48122117 76.99855252 4.54377414 80.17547235 4.59106445 83.35375977 C4.61613242 84.72635227 4.65019707 86.09881227 4.69360352 87.47094727 C4.75458156 89.44878821 4.78001634 91.42762309 4.8046875 93.40625 C4.83087158 94.59500732 4.85705566 95.78376465 4.8840332 97.00854492 C4.14975764 101.18649392 2.57682139 102.61778587 -0.68359375 105.23828125 C-4.34393571 106.45839524 -5.90780594 106.59091207 -9.43359375 104.98828125 C-11.68359375 103.23828125 -11.68359375 103.23828125 -13.68359375 100.23828125 C-13.88918321 97.20899812 -13.97727367 94.27089245 -13.97412109 91.24047852 C-13.98083832 90.3198764 -13.98755554 89.39927429 -13.99447632 88.45077515 C-14.01350277 85.40202465 -14.01738274 82.3534937 -14.01953125 79.3046875 C-14.0259555 77.18863331 -14.03268357 75.07258001 -14.03970337 72.95652771 C-14.05168745 68.5187677 -14.05538298 64.0810856 -14.05419922 59.64331055 C-14.05399587 53.95225346 -14.08131019 48.26169483 -14.11574364 42.57075596 C-14.13796177 38.19990232 -14.14203834 33.82916964 -14.14097977 29.4582653 C-14.14334293 27.3598655 -14.1522065 25.26146271 -14.1676445 23.16311836 C-14.18720326 20.23021467 -14.18150639 17.29839909 -14.16943359 14.36547852 C-14.18067261 13.49625259 -14.19191162 12.62702667 -14.20349121 11.73146057 C-14.14176542 5.84135287 -14.14176542 5.84135287 -11.77822876 2.73033142 C-7.88108255 -0.04568332 -4.65048449 0.04625857 0 0 Z M4.31640625 18.23828125 C4.31640625 29.45828125 4.31640625 40.67828125 4.31640625 52.23828125 C9.57578125 52.33109375 9.57578125 52.33109375 14.94140625 52.42578125 C16.03533691 52.45309326 17.12926758 52.48040527 18.25634766 52.50854492 C24.53013309 52.56206373 29.12460208 52.14957056 33.9609375 47.73828125 C37.8593946 42.73156711 38.74310612 39.0922225 38.65234375 32.875 C38.10258729 28.56005103 36.46229746 25.23998578 33.31640625 22.23828125 C27.20311951 17.97704936 21.57896648 17.72988411 14.31640625 17.98828125 C11.01640625 18.07078125 7.71640625 18.15328125 4.31640625 18.23828125 Z " fill="#5D16EA" transform="translate(99.68359375,288.76171875)"/>
<path d="M0 0 C1.16478378 -0.0127597 2.32956757 -0.02551941 3.52964783 -0.03866577 C4.78387039 -0.04089142 6.03809296 -0.04311707 7.33032227 -0.04541016 C8.62237076 -0.05206696 9.91441925 -0.05872375 11.24562073 -0.06558228 C13.97839703 -0.07754252 16.71104703 -0.08126434 19.44384766 -0.08007812 C22.93886206 -0.07987484 26.43306413 -0.10719039 29.92788601 -0.14162254 C33.27037691 -0.16925696 36.61271861 -0.16804102 39.95532227 -0.17041016 C41.83361977 -0.19196671 41.83361977 -0.19196671 43.74986267 -0.21395874 C44.91779861 -0.20780548 46.08573456 -0.20165222 47.2890625 -0.1953125 C48.31402328 -0.19816254 49.33898407 -0.20101257 50.39500427 -0.20394897 C53.9496093 0.42061675 55.62605812 1.82264832 58.20922852 4.29052734 C59.6358507 7.14377172 59.51956719 9.12507283 59.20922852 12.29052734 C57.40929077 14.99043396 56.12545552 16.83241384 53.20922852 18.29052734 C51.69758459 18.38030463 50.18202673 18.40810167 48.66772461 18.40405273 C47.72690033 18.4039772 46.78607605 18.40390167 45.81674194 18.40382385 C44.79899689 18.39866257 43.78125183 18.39350128 42.73266602 18.38818359 C41.6922818 18.38676865 40.65189758 18.3853537 39.57998657 18.38389587 C36.24803831 18.37828601 32.91615657 18.36573182 29.58422852 18.35302734 C27.32902115 18.34801362 25.07381274 18.34345049 22.81860352 18.33935547 C17.28209876 18.32916308 11.74573835 18.30958954 6.20922852 18.29052734 C6.20922852 26.54052734 6.20922852 34.79052734 6.20922852 43.29052734 C9.62782227 43.24412109 13.04641602 43.19771484 16.56860352 43.14990234 C19.87815872 43.11871087 23.18769758 43.09442066 26.49731445 43.07080078 C28.79817021 43.05068046 31.09897481 43.023381 33.3996582 42.98876953 C36.70610169 42.94027122 40.01186937 42.91756256 43.31860352 42.89990234 C44.34789978 42.8792572 45.37719604 42.85861206 46.43768311 42.83734131 C53.58145735 42.8350947 53.58145735 42.8350947 56.82739258 45.18994141 C59.19171912 48.78405193 59.63458938 50.95184656 59.20922852 55.29052734 C57.058324 58.6281378 56.00510052 60.02523667 52.20922852 61.29052734 C50.69015228 61.37722264 49.1675385 61.40822134 47.64599609 61.40405273 C46.7252681 61.4039772 45.8045401 61.40390167 44.85591125 61.40382385 C43.86520126 61.39866257 42.87449127 61.39350128 41.85375977 61.38818359 C40.83698654 61.38676865 39.82021332 61.3853537 38.77262878 61.38389587 C35.52229888 61.37829441 32.27203763 61.36574167 29.02172852 61.35302734 C26.81925555 61.34801253 24.61678151 61.34344959 22.41430664 61.33935547 C17.01259047 61.32832451 11.6109144 61.31158497 6.20922852 61.29052734 C6.23017578 62.48129883 6.25112305 63.67207031 6.27270508 64.89892578 C6.34513813 69.31937624 6.39104024 73.7397743 6.42895508 78.16064453 C6.44906303 80.0734947 6.47635358 81.98628346 6.51098633 83.89892578 C6.55954101 86.64940546 6.58220509 89.39907211 6.59985352 92.14990234 C6.62049866 93.00420837 6.6411438 93.8585144 6.66241455 94.7387085 C6.66465313 100.67019514 6.66465313 100.67019514 4.36450195 103.80322266 C1.52521792 105.76254734 -0.33766558 106.22146523 -3.79077148 106.29052734 C-7.76549212 104.76178864 -9.40930813 103.86272237 -11.79077148 100.29052734 C-11.98598082 97.29094892 -12.0636517 94.38446565 -12.04956055 91.38452148 C-12.05306519 90.47367294 -12.05656982 89.5628244 -12.06018066 88.62437439 C-12.06899592 85.608067 -12.06314903 82.59199345 -12.05639648 79.57568359 C-12.05774331 77.48205012 -12.05968399 75.38841695 -12.06219482 73.29478455 C-12.06514591 68.90409369 -12.06084935 64.51348415 -12.05151367 60.12280273 C-12.04012622 54.49241942 -12.04667428 48.86222692 -12.0586586 43.23185062 C-12.0658836 38.90732891 -12.06358619 34.58285247 -12.05840302 30.25832939 C-12.05706793 28.18227554 -12.05870931 26.1062176 -12.06336212 24.03016853 C-12.06843701 21.12864411 -12.06070311 18.2274291 -12.04956055 15.32592773 C-12.05360901 14.46605255 -12.05765747 13.60617737 -12.06182861 12.72024536 C-12.05618896 11.9281517 -12.05054932 11.13605804 -12.04473877 10.31996155 C-12.04398472 9.63435685 -12.04323067 8.94875216 -12.04245377 8.24237156 C-11.74062401 5.90162408 -11.00037801 4.30795851 -9.79077148 2.29052734 C-6.62134777 0.07608642 -3.79858105 0.02827556 0 0 Z " fill="#5D16EA" transform="translate(272.790771484375,288.70947265625)"/>
</svg>
