<?xml version="1.0" encoding="UTF-8"?>
<svg version="1.1" xmlns="http://www.w3.org/2000/svg" width="620" height="638">
<path d="M0 0 C1.59519569 1.34017256 3.17866836 2.69442519 4.75 4.0625 C5.96236328 5.09310547 5.96236328 5.09310547 7.19921875 6.14453125 C32.70754367 28.36920995 49.73164602 59.09009812 52.75 93.0625 C53.72817766 108.50373312 52.76529004 123.11485158 48.75 138.0625 C48.57339844 138.7342627 48.39679688 139.40602539 48.21484375 140.09814453 C43.82088558 156.23780385 35.46067716 170.35604449 24.75 183.0625 C23.98171875 184.00609375 23.2134375 184.9496875 22.421875 185.921875 C2.34794479 209.45224353 -27.65096244 220.94270771 -57.828125 223.34765625 C-78.84689123 223.92044253 -100.09693332 218.43664179 -119.25 210.0625 C-127.72122139 216.35668517 -127.72122139 216.35668517 -132.78515625 225.20166016 C-133.04156153 228.89241688 -132.70065037 232.50624618 -132.421875 236.1875 C-132.04490735 244.68640691 -137.54102739 249.58690711 -142.9375 255.5 C-147.44438111 260.29589954 -152.08183331 264.96360149 -156.80078125 269.55078125 C-158.76311613 271.56319166 -160.59053308 273.59961787 -162.41796875 275.73046875 C-167.579202 281.68114067 -173.25909592 287.11623628 -178.8671875 292.640625 C-183.25924663 296.99263495 -187.48886223 301.39318567 -191.51611328 306.08398438 C-194.76780554 309.7944482 -198.22333541 313.30156451 -201.6875 316.8125 C-202.39970703 317.55371094 -203.11191406 318.29492188 -203.84570312 319.05859375 C-212.09452498 327.40481314 -220.42372955 330.85207236 -232.19921875 331.1328125 C-248.81253019 330.3944431 -261.6078979 320.54489617 -272.796875 308.98828125 C-280.45986187 299.84882716 -283.63571181 289.46706662 -283.1875 277.6875 C-280.98514871 256.38976198 -262.65345475 241.31845114 -248.25 227.0625 C-251.74080938 225.89889687 -255.05504518 225.7124912 -258.6953125 225.484375 C-260.24599234 225.37825271 -261.79660844 225.27119604 -263.34716797 225.16333008 C-264.16586365 225.10690338 -264.98455933 225.05047668 -265.82806396 224.99234009 C-313.91963374 221.5965767 -365.09966501 213.41889798 -406.625 187.4375 C-407.3456665 186.99422363 -408.06633301 186.55094727 -408.80883789 186.09423828 C-413.09567424 183.30105694 -415.53433632 181.06137619 -417.25 176.0625 C-423.80453793 139.28849358 -411.24536358 98.391181 -390.81103516 67.91650391 C-384.33255892 58.6490105 -377.09130347 50.19551863 -369.25 42.0625 C-368.486875 41.23621094 -367.72375 40.40992188 -366.9375 39.55859375 C-336.36877151 7.38913792 -290.11271898 -10.46283445 -246.21923828 -12.046875 C-217.00179298 -12.74995685 -186.49107305 -9.52780346 -160.09570312 4.18139648 C-158.28922888 5.22876973 -158.28922888 5.22876973 -156.25390625 4.9296875 C-153.63727258 3.7973431 -152.18481522 2.22468903 -150.1875 0.1875 C-109.58525145 -37.30529799 -41.81030099 -32.91170798 0 0 Z M-141.25 23.0625 C-141.86488281 23.60261719 -142.47976563 24.14273438 -143.11328125 24.69921875 C-158.53919082 38.7775776 -167.98711342 62.48508933 -169.45654297 82.93725586 C-169.55253933 85.8780769 -169.57878765 88.80768393 -169.5625 91.75 C-169.55831055 92.79510742 -169.55412109 93.84021484 -169.54980469 94.91699219 C-169.17899464 120.55022266 -159.20093271 146.40809214 -141.5625 165.25 C-124.66115716 181.11177611 -103.03118224 190.56682305 -79.70703125 190.2734375 C-51.05787455 188.52535336 -26.8441457 174.52025704 -7.59082031 153.59423828 C8.51334545 135.19701759 18.12660879 112.45202031 19.75 88.0625 C19.83121094 86.98162109 19.83121094 86.98162109 19.9140625 85.87890625 C20.75845759 63.7327259 13.69747681 46.51532078 -0.69921875 30.3046875 C-15.37657966 14.82674327 -34.72299057 4.34976001 -55.25 -0.9375 C-56.13171875 -1.18242187 -57.0134375 -1.42734375 -57.921875 -1.6796875 C-88.31446692 -8.74548116 -119.24070736 2.03813268 -141.25 23.0625 Z M-261.25 12.0625 C-261.58 12.7225 -261.91 13.3825 -262.25 14.0625 C-261.13674195 16.59705807 -261.13674195 16.59705807 -259.4609375 19.4453125 C-258.54248047 21.07339844 -258.54248047 21.07339844 -257.60546875 22.734375 C-256.62513672 24.44367188 -256.62513672 24.44367188 -255.625 26.1875 C-254.99464844 27.30382812 -254.36429688 28.42015625 -253.71484375 29.5703125 C-248.78082502 40.07606232 -248.78082502 40.07606232 -241.25 48.0625 C-238.4224011 48.81494501 -238.4224011 48.81494501 -235.25 48.0625 C-229.6396364 42.53829189 -225.92365164 34.73964144 -221.96142578 27.97827148 C-220.86118047 26.10142605 -219.75341213 24.2291758 -218.64453125 22.35742188 C-215.08466603 17.42430671 -215.08466603 17.42430671 -213.25 12.0625 C-218.08531676 11.28030498 -222.72093764 10.93411735 -227.6171875 10.9296875 C-228.29621124 10.92873077 -228.97523499 10.92777405 -229.67483521 10.92678833 C-231.10174656 10.92611239 -232.52866109 10.92792547 -233.95556641 10.93212891 C-236.11237679 10.93746875 -238.26897737 10.93217251 -240.42578125 10.92578125 C-250.87985775 10.89307246 -250.87985775 10.89307246 -261.25 12.0625 Z M-343.25 49.0625 C-344.2296875 49.90683594 -345.209375 50.75117188 -346.21875 51.62109375 C-375.19617821 77.10382728 -392.64453436 112.85494588 -395.69921875 151.2265625 C-396.57766922 160.77236622 -396.57766922 160.77236622 -393.6171875 169.48046875 C-390.90079207 171.12411819 -388.26186492 172.04683027 -385.25 173.0625 C-383.00162071 174.10369578 -380.78571081 175.20232814 -378.56420898 176.29956055 C-372.63533025 179.60653136 -372.63533025 179.60653136 -366.25 181.0625 C-366.11537354 179.94113647 -366.11537354 179.94113647 -365.97802734 178.79711914 C-363.26562973 156.66388708 -359.29314814 135.34964117 -352.0625 114.1875 C-351.56314941 112.72401123 -351.56314941 112.72401123 -351.05371094 111.23095703 C-350.73305664 110.33231934 -350.41240234 109.43368164 -350.08203125 108.5078125 C-349.80077393 107.71906738 -349.5195166 106.93032227 -349.22973633 106.11767578 C-348.17711277 103.90960573 -347.12407794 102.62070513 -345.25 101.0625 C-339.95355585 99.55931871 -335.31083687 99.85649419 -330.25 102.0625 C-327.62687088 110.33360736 -328.85552809 115.82275939 -331.8125 123.8125 C-332.57362034 126.02096442 -333.32740493 128.23196924 -334.07421875 130.4453125 C-334.44724121 131.55036133 -334.82026367 132.65541016 -335.20458984 133.79394531 C-340.94402103 151.73871521 -343.24000152 170.32437023 -344.25 189.0625 C-326.85031999 193.91452505 -309.51470439 197.51177312 -291.57421875 199.6796875 C-290.47831421 199.81431396 -289.38240967 199.94894043 -288.2532959 200.08764648 C-285.58581339 200.41498958 -282.91805974 200.73990162 -280.25 201.0625 C-275.81688327 170.82474723 -271.42002632 140.58194673 -267.14788818 110.32098007 C-266.36097588 104.74756977 -265.57024967 99.17475242 -264.77148438 93.60302734 C-263.97740861 88.06342845 -263.19209114 82.52265482 -262.4131012 76.98091507 C-262.11955365 74.90327816 -261.82292913 72.82607341 -261.52305603 70.74934006 C-261.11045225 67.8878837 -260.70913998 65.02505779 -260.31054688 62.16162109 C-260.12528442 60.90448303 -260.12528442 60.90448303 -259.9362793 59.62194824 C-259.04471133 53.07784277 -259.35585408 48.05320009 -262.76171875 42.234375 C-263.27283203 41.35136719 -263.78394531 40.46835937 -264.31054688 39.55859375 C-265.11588867 38.19927734 -265.11588867 38.19927734 -265.9375 36.8125 C-266.45505859 35.92175781 -266.97261719 35.03101563 -267.50585938 34.11328125 C-268.54847362 32.32408769 -269.59906797 30.53951978 -270.65771484 28.75976562 C-271.75197751 26.90612963 -272.82412147 25.03931322 -273.87744141 23.16210938 C-274.39870605 22.24751953 -274.9199707 21.33292969 -275.45703125 20.390625 C-275.92214111 19.55950195 -276.38725098 18.72837891 -276.86645508 17.87207031 C-277.55130981 16.97633301 -277.55130981 16.97633301 -278.25 16.0625 C-300.71839795 16.0625 -327.1221643 35.1318554 -343.25 49.0625 Z M-197.25 16.0625 C-198.14138672 17.48175781 -198.14138672 17.48175781 -199.05078125 18.9296875 C-199.44612061 19.55907227 -199.84145996 20.18845703 -200.2487793 20.83691406 C-201.13597651 22.2555063 -202.01885228 23.67680905 -202.89770508 25.10058594 C-205.32406208 29.02601347 -207.79963375 32.89710862 -210.3984375 36.7109375 C-210.90592529 37.47937988 -211.41341309 38.24782227 -211.9362793 39.03955078 C-212.91088521 40.51516975 -213.90870872 41.97580802 -214.93286133 43.41748047 C-217.67488935 47.64741923 -218.50901683 50.55883481 -217.98069763 55.60571289 C-217.87087492 56.66615814 -217.76105221 57.72660339 -217.64790154 58.81918335 C-217.02846841 63.86821581 -216.30725513 68.89315604 -215.51586914 73.91796875 C-215.34337143 75.03495651 -215.17087372 76.15194427 -214.9931488 77.30278015 C-214.42821374 80.95255182 -213.85701934 84.60130791 -213.28515625 88.25 C-212.88763282 90.8015671 -212.49029176 93.35316261 -212.09312439 95.90478516 C-211.26301055 101.23076902 -210.42963759 106.55622899 -209.59399414 111.88134766 C-208.62902088 118.03119274 -207.6721941 124.1822675 -206.7192145 130.33398151 C-205.7987768 136.27336303 -204.87089879 142.21155597 -203.94009209 148.14932251 C-203.54606515 150.6688257 -203.15416454 153.18866237 -202.76442146 155.70883179 C-202.22050292 159.22098558 -201.66812065 162.7317061 -201.11352539 166.2421875 C-200.95397369 167.28428879 -200.794422 168.32639008 -200.6300354 169.40007019 C-200.47727646 170.35585464 -200.32451752 171.3116391 -200.16712952 172.29638672 C-200.03753373 173.12516327 -199.90793795 173.95393982 -199.77441502 174.80783081 C-199.23332308 177.13420071 -198.40367704 178.97940118 -197.25 181.0625 C-196.26 180.7325 -195.27 180.4025 -194.25 180.0625 C-192.29351683 179.96774156 -190.33377045 179.93261529 -188.375 179.9375 C-186.83199219 179.93363281 -186.83199219 179.93363281 -185.2578125 179.9296875 C-182.475352 180.05254939 -179.95760126 180.43305764 -177.25 181.0625 C-176.144019 179.81410501 -175.04029799 178.56370766 -173.9375 177.3125 C-173.32261719 176.61640625 -172.70773437 175.9203125 -172.07421875 175.203125 C-170.37685266 173.21135494 -168.79522191 171.17351085 -167.25 169.0625 C-168.10271484 167.69931641 -168.10271484 167.69931641 -168.97265625 166.30859375 C-188.31239615 135.0098589 -196.83325195 99.5239692 -188.25 63.0625 C-184.64393781 49.18808067 -178.75429471 36.25988304 -171.25 24.0625 C-174.2664505 22.90489372 -177.28883323 21.76360996 -180.3125 20.625 C-181.16005859 20.29951172 -182.00761719 19.97402344 -182.88085938 19.63867188 C-187.70689308 17.8312384 -192.11576464 16.55711426 -197.25 16.0625 Z M-245.25 63.0625 C-246.98982943 70.33751864 -248.12052911 77.60900823 -249.12939453 85.01782227 C-249.30525085 86.28710068 -249.48110718 87.55637909 -249.66229248 88.86412048 C-250.14067755 92.31757229 -250.61452376 95.77163288 -251.08751154 99.22582746 C-251.58398172 102.84565797 -252.08468772 106.46490252 -252.58493042 110.08421326 C-253.52990108 116.92587114 -254.47110207 123.76804199 -255.41092479 130.61040872 C-256.48177069 138.4053128 -257.55685586 146.19963034 -258.6322844 153.99390328 C-260.84288249 170.01612432 -263.04819834 186.03906772 -265.25 202.0625 C-264.00950394 202.22155823 -262.76900787 202.38061646 -261.49092102 202.54449463 C-260.79314198 202.63396488 -260.09536295 202.72343513 -259.37643909 202.81561661 C-253.84684221 203.45761272 -248.28504266 203.60843986 -242.72436523 203.7421875 C-241.2043406 203.78892254 -239.68481982 203.85717041 -238.16674805 203.94726562 C-230.73670079 204.37850605 -224.47078378 204.38589057 -218.1468811 200.10144043 C-214.73375083 196.71030257 -212.31110189 193.72898946 -212.13113403 188.82055664 C-212.33165375 187.63840576 -212.53217346 186.45625488 -212.73876953 185.23828125 C-212.84550963 184.55926884 -212.95224974 183.88025642 -213.06222439 183.18066788 C-213.30470698 181.6499816 -213.55839465 180.12104235 -213.82127571 178.59372711 C-214.28011723 175.88468513 -214.69347076 173.17137498 -215.09861755 170.45379639 C-216.07897442 163.89677344 -217.10309815 157.34691767 -218.12890625 150.796875 C-218.50495464 148.38554307 -218.88084192 145.97418602 -219.25657654 143.56280518 C-220.03922559 138.54341926 -220.82354443 133.5242981 -221.60913086 128.50537109 C-222.61634259 122.06988395 -223.61971815 115.63380568 -224.62191868 109.19753647 C-225.39519276 104.23375096 -226.17026329 99.2702473 -226.94590569 94.30683136 C-227.31680985 91.93221201 -227.68720096 89.55751246 -228.05706978 87.18273163 C-228.57213726 83.87772179 -229.08957138 80.57309115 -229.60766602 77.26855469 C-229.7598912 76.28884201 -229.91211639 75.30912933 -230.06895447 74.29972839 C-230.21047943 73.4002095 -230.35200439 72.50069061 -230.49781799 71.57391357 C-230.61966241 70.79457836 -230.74150682 70.01524315 -230.8670435 69.21229172 C-231.23552968 67.14373161 -231.74040252 65.1008899 -232.25 63.0625 C-236.54 63.0625 -240.83 63.0625 -245.25 63.0625 Z M27.75 85.0625 C27.66024902 85.72556152 27.57049805 86.38862305 27.47802734 87.07177734 C22.47844956 123.11481074 9.69372758 151.53162537 -19.25 175.0625 C-37.02005216 188.14781702 -56.3616726 195.73838283 -78.25 198.0625 C-78.25 198.3925 -78.25 198.7225 -78.25 199.0625 C-54.4571196 202.9393951 -31.71599185 197.77080915 -11.25 185.0625 C-7.38511342 182.26378903 -3.7947007 179.25435913 -0.25 176.0625 C0.51957031 175.38703125 1.28914063 174.7115625 2.08203125 174.015625 C20.61436212 156.74907505 29.65778167 131.48383553 30.73046875 106.625 C30.8863161 99.37101431 29.83372972 92.2186987 28.75 85.0625 C28.42 85.0625 28.09 85.0625 27.75 85.0625 Z M-143.25 174.0625 C-143.9615625 175.5165625 -143.9615625 175.5165625 -144.6875 177 C-147.16873952 181.41408915 -150.65306653 184.61005165 -154.32421875 188.046875 C-156.46716258 190.00279706 -156.46716258 190.00279706 -157.25 193.0625 C-156.80269531 193.43761719 -156.35539062 193.81273437 -155.89453125 194.19921875 C-154.98767578 194.96685547 -154.98767578 194.96685547 -154.0625 195.75 C-153.17498047 196.49830078 -153.17498047 196.49830078 -152.26953125 197.26171875 C-149.83793256 199.42993345 -147.55367393 201.75882607 -145.25 204.0625 C-139.31 198.1225 -133.37 192.1825 -127.25 186.0625 C-128.9 184.7425 -130.55 183.4225 -132.25 182.0625 C-133.12140625 181.35609375 -133.9928125 180.6496875 -134.890625 179.921875 C-135.75171875 179.22578125 -136.6128125 178.5296875 -137.5 177.8125 C-138.37140625 177.10609375 -139.2428125 176.3996875 -140.140625 175.671875 C-141.9403018 173.9614041 -141.9403018 173.9614041 -143.25 174.0625 Z M-197.5625 209.15625 C-199.62102907 211.38233376 -201.59956936 213.27376065 -203.89233398 215.22680664 C-208.33538773 219.0855252 -212.50613008 223.17420665 -216.66015625 227.33984375 C-217.43129257 228.11002335 -218.20242889 228.88020294 -218.99693298 229.67372131 C-220.61580153 231.29191373 -222.23342551 232.91135212 -223.84985352 234.53198242 C-226.30568718 236.99317232 -228.76681365 239.44897809 -231.22851562 241.90429688 C-232.81021653 243.48665867 -234.39160717 245.06933067 -235.97265625 246.65234375 C-236.69888687 247.37655014 -237.42511749 248.10075653 -238.1733551 248.84690857 C-253.53379397 263.11323382 -253.53379397 263.11323382 -260.48046875 281.71875 C-259.60777244 290.59362777 -254.85424447 295.20904589 -248.26171875 300.7265625 C-242.06495919 305.61177489 -236.44232648 308.95620834 -228.25 308.0625 C-222.78167066 305.88899269 -219.32086134 302.52446977 -215.3125 298.375 C-214.73048828 297.78783203 -214.14847656 297.20066406 -213.54882812 296.59570312 C-210.6175809 293.61251797 -207.80407509 290.56837802 -205.08984375 287.38671875 C-199.45678751 280.88207666 -193.19282186 274.95093582 -187.07470703 268.90771484 C-181.42199149 263.31800992 -175.8156533 257.74588531 -170.65478516 251.68994141 C-168.7742825 249.51138202 -166.75189162 247.5035624 -164.6875 245.5 C-163.93726563 244.74976563 -163.18703125 243.99953125 -162.4140625 243.2265625 C-161.04423123 241.85673123 -159.66509454 240.49608957 -158.2734375 239.1484375 C-156.69367802 237.51096991 -155.37170385 236.04112782 -154.25 234.0625 C-155.09232712 224.37573814 -165.36803276 215.05123255 -172.25 209.0625 C-176.83986211 205.63743674 -182.3022109 201.81719607 -188.1875 201.4375 C-192.2557061 202.67028973 -194.8067275 206.06531598 -197.5625 209.15625 Z " fill="#5D16EA" transform="translate(531.25,283.9375)"/>
<path d="M0 0 C22.87564891 19.68627272 34.20250704 48.5377298 37.60546875 77.96875 C37.70922365 79.44662462 37.79379259 80.92602214 37.85546875 82.40625 C37.89542969 83.1384375 37.93539062 83.870625 37.9765625 84.625 C38.71055812 110.5307278 30.14466691 134.45275207 13.85546875 154.40625 C13.39011719 155.0353125 12.92476562 155.664375 12.4453125 156.3125 C-2.05182823 175.11001581 -27.69094836 185.42490887 -50.14453125 190.40625 C-51.10488281 190.63183594 -52.06523437 190.85742188 -53.0546875 191.08984375 C-81.25974387 196.59419526 -110.60519679 191.09894471 -135.14453125 176.40625 C-139.69337971 173.34276378 -143.92491777 169.90573199 -148.14453125 166.40625 C-149.02238281 165.72046875 -149.90023437 165.0346875 -150.8046875 164.328125 C-170.5010849 148.15011579 -183.09124733 121.65699168 -185.93359375 96.64111328 C-188.5987368 68.40416945 -180.15533353 39.40808234 -162.14453125 17.40625 C-141.7499347 -6.95800909 -114.27311859 -20.09640226 -82.9296875 -23.36230469 C-52.10541377 -25.92378887 -24.08848715 -20.07498033 0 0 Z M-138.70703125 24.53125 C-155.57960526 42.49629283 -163.84459051 65.68444948 -163.34375 90.203125 C-162.48435172 112.97457513 -150.59372694 132.96280055 -134.3984375 148.42578125 C-116.79652461 163.8922801 -94.43921177 171.21566186 -71.14453125 170.40625 C-45.88883441 168.67523591 -22.87417247 159.63846373 -5.14453125 141.40625 C-4.54253906 140.80167969 -3.94054687 140.19710937 -3.3203125 139.57421875 C10.07623046 125.12282989 15.47778482 104.27109533 15.10546875 84.98046875 C13.56822715 63.00271773 6.87158959 40.95128497 -8.14453125 24.40625 C-8.89476562 23.56320313 -9.645 22.72015625 -10.41796875 21.8515625 C-20.22583811 11.40887959 -31.55899292 5.5733852 -45.14453125 1.40625 C-45.84835937 1.17164063 -46.5521875 0.93703125 -47.27734375 0.6953125 C-77.63316589 -8.372011 -116.04088692 3.59654725 -138.70703125 24.53125 Z " fill="#5D16EA" transform="translate(369.14453125,60.59375)"/>
<path d="M0 0 C1.26070312 0.41765625 1.26070312 0.41765625 2.546875 0.84375 C18.90670856 6.73735464 31.65115395 18.89617851 40 34 C48.18504012 51.6228925 49.99665728 71.46110847 43.73193359 90.02636719 C36.26270986 110.1668624 22.59177416 125.89917586 3 135 C-15.09602759 142.40814417 -36.5457132 144.39843434 -55 137 C-72.40572839 128.81572468 -86.69152882 116.14066954 -94 98 C-100.96231127 78.45378153 -100.09069701 59.11786528 -92 40 C-82.40013906 21.324288 -67.10461719 6.75736014 -47.0625 0.125 C-32.35903582 -4.54423889 -14.64309257 -5.34150546 0 0 Z M-69.7421875 33.9296875 C-79.97697544 46.70991493 -84.31307125 61.79346306 -83 78 C-80.76729519 93.17893117 -74.01084511 105.9425386 -61.6875 115.3125 C-48.04770683 124.6380492 -34.04572059 127.80306707 -17.63671875 125.53515625 C-2.20764854 122.41238635 11.81470344 113.90272503 21 101 C29.65384917 86.31901761 34.26914415 71.07238904 30.78515625 53.90625 C28.27829582 44.62712482 24.38690816 37.16275817 18 30 C17.47792969 29.38511719 16.95585937 28.77023437 16.41796875 28.13671875 C7.23366735 18.05856807 -5.93216235 12.71829017 -19.33984375 11.76171875 C-39.71147535 11.34145708 -56.08506047 18.80273513 -69.7421875 33.9296875 Z " fill="#5D16EA" transform="translate(477,307)"/>
<path d="M0 0 C2.55078958 2.22165544 2.93332671 3.60829443 3.5 6.9375 C2.80816058 11.17501648 1.31788818 12.29151985 -2 15 C-3.47398481 15.94562628 -4.95357942 16.88254302 -6.4375 17.8125 C-14.22545606 22.89216518 -17.54166273 29.23694741 -20 38 C-21.45367412 42.55484558 -21.45367412 42.55484558 -23.6875 44.375 C-27.06738225 45.28848169 -29.62036578 44.79882263 -33 44 C-35.97742107 41.69267138 -35.99215883 41.06174925 -36.5 37.0625 C-36.0393234 24.74440825 -28.19314174 14.75365915 -19.5625 6.6875 C-13.49900595 1.54022152 -8.19401653 -2.57067185 0 0 Z " fill="#5D16EA" transform="translate(441,335)"/>
<path d="M0 0 C3.70390021 2.02666238 5.65363011 3.48044516 8 7 C7.81989972 10.36187193 7.58112046 12.99918142 5.875 15.9375 C2.79508546 17.68278491 0.46867062 17.41153719 -3 17 C-6.10039543 15.24505919 -8.48825667 13.51174333 -11 11 C-11.42834085 7.14493238 -11.55897202 4.87199635 -9.4375 1.5625 C-6.02780394 -0.6232026 -3.987831 -0.55004566 0 0 Z " fill="#5D16EA" transform="translate(233,131)"/>
<path d="M0 0 C3.4203866 1.17013226 3.91540482 1.87310723 6 5 C6.34506219 8.24358463 6.30533635 10.33544441 4.9375 13.3125 C2.03468932 15.84075447 -0.19786878 15.9355571 -4 16 C-8.01519063 14.48483372 -9.60368353 13.5944747 -12 10 C-12.45185216 6.46049143 -12.42109443 4.66673285 -10.5 1.625 C-6.98085573 -0.66244378 -4.08622864 -0.56332782 0 0 Z " fill="#5D16EA" transform="translate(244,104)"/>
<path d="M0 0 C4.63235294 2.26470588 4.63235294 2.26470588 6 5 C6.375 8.375 6.375 8.375 6 12 C3.44296344 14.93307135 1.83417929 15.86097012 -2 16.5 C-5.83460553 15.86089908 -7.40320527 14.89357127 -10 12 C-11.125 8.5625 -11.125 8.5625 -11 5 C-7.85275381 0.51755845 -5.43710235 -0.90618373 0 0 Z " fill="#5D16EA" transform="translate(264,85)"/>
<path d="M0 0 C2.12890625 0.4140625 2.12890625 0.4140625 4.69140625 1.9765625 C6.70866322 5.39712867 6.75589455 7.51280198 6.12890625 11.4140625 C3.39040519 14.65047284 1.77648535 15.33453524 -2.43359375 15.8515625 C-7.53228876 15.20263768 -7.53228876 15.20263768 -9.87109375 12.4140625 C-11.06933121 8.37001106 -11.29703372 6.32402515 -9.49609375 2.4765625 C-6.18660954 -0.12374652 -4.12120312 -0.25799954 0 0 Z " fill="#5D16EA" transform="translate(458.87109375,328.5859375)"/>
</svg>
